<svg width="25" height="25" viewBox="0 0 25 25" fill="none" xmlns="http://www.w3.org/2000/svg">
<path d="M21.834 6.14795C18.504 5.81795 15.154 5.64795 11.814 5.64795C9.83398 5.64795 7.85398 5.74795 5.87398 5.94795L3.83398 6.14795" stroke="#F5F5F5" stroke-width="1.5" stroke-linecap="round" stroke-linejoin="round"/>
<path d="M9.33398 5.13797L9.55398 3.82797C9.71398 2.87797 9.83398 2.16797 11.524 2.16797H14.144C15.834 2.16797 15.964 2.91797 16.114 3.83797L16.334 5.13797" stroke="#F5F5F5" stroke-width="1.5" stroke-linecap="round" stroke-linejoin="round"/>
<path d="M19.6844 9.30798L19.0344 19.378C18.9244 20.948 18.8344 22.168 16.0444 22.168H9.62437C6.83437 22.168 6.74438 20.948 6.63438 19.378L5.98438 9.30798" stroke="#F5F5F5" stroke-width="1.5" stroke-linecap="round" stroke-linejoin="round"/>
<path d="M11.1641 16.668H14.4941" stroke="#F5F5F5" stroke-width="1.5" stroke-linecap="round" stroke-linejoin="round"/>
<path d="M10.334 12.668H15.334" stroke="#F5F5F5" stroke-width="1.5" stroke-linecap="round" stroke-linejoin="round"/>
</svg>
