<svg width="26" height="26" viewBox="0 0 26 26" fill="none" xmlns="http://www.w3.org/2000/svg">
<path d="M2.16602 9.74996V7.04163C2.16602 4.34413 4.34352 2.16663 7.04102 2.16663H9.74935" stroke="#0D2EA0" stroke-width="1.5" stroke-linecap="round" stroke-linejoin="round"/>
<path d="M16.25 2.16663H18.9583C21.6558 2.16663 23.8333 4.34413 23.8333 7.04163V9.74996" stroke="#0D2EA0" stroke-width="1.5" stroke-linecap="round" stroke-linejoin="round"/>
<path d="M23.834 17.3334V18.9584C23.834 21.6559 21.6565 23.8334 18.959 23.8334H17.334" stroke="#0D2EA0" stroke-width="1.5" stroke-linecap="round" stroke-linejoin="round"/>
<path d="M9.74935 23.8333H7.04102C4.34352 23.8333 2.16602 21.6558 2.16602 18.9583V16.25" stroke="#0D2EA0" stroke-width="1.5" stroke-linecap="round" stroke-linejoin="round"/>
<path d="M11.3757 7.58337V9.75004C11.3757 10.8334 10.834 11.375 9.75065 11.375H7.58398C6.50065 11.375 5.95898 10.8334 5.95898 9.75004V7.58337C5.95898 6.50004 6.50065 5.95837 7.58398 5.95837H9.75065C10.834 5.95837 11.3757 6.50004 11.3757 7.58337Z" stroke="#0D2EA0" stroke-width="1.5" stroke-linecap="round" stroke-linejoin="round"/>
<path d="M20.0417 7.58337V9.75004C20.0417 10.8334 19.5 11.375 18.4167 11.375H16.25C15.1667 11.375 14.625 10.8334 14.625 9.75004V7.58337C14.625 6.50004 15.1667 5.95837 16.25 5.95837H18.4167C19.5 5.95837 20.0417 6.50004 20.0417 7.58337Z" stroke="#0D2EA0" stroke-width="1.5" stroke-linecap="round" stroke-linejoin="round"/>
<path d="M11.3757 16.25V18.4167C11.3757 19.5 10.834 20.0417 9.75065 20.0417H7.58398C6.50065 20.0417 5.95898 19.5 5.95898 18.4167V16.25C5.95898 15.1667 6.50065 14.625 7.58398 14.625H9.75065C10.834 14.625 11.3757 15.1667 11.3757 16.25Z" stroke="#0D2EA0" stroke-width="1.5" stroke-linecap="round" stroke-linejoin="round"/>
<path d="M20.0417 16.25V18.4167C20.0417 19.5 19.5 20.0417 18.4167 20.0417H16.25C15.1667 20.0417 14.625 19.5 14.625 18.4167V16.25C14.625 15.1667 15.1667 14.625 16.25 14.625H18.4167C19.5 14.625 20.0417 15.1667 20.0417 16.25Z" stroke="#0D2EA0" stroke-width="1.5" stroke-linecap="round" stroke-linejoin="round"/>
</svg>
