<svg width="35" height="42" viewBox="0 0 35 42" fill="none" xmlns="http://www.w3.org/2000/svg">
<path opacity="0.2" d="M15.6001 41.5887L1.12685 33.2328C0.0795462 32.6274 0.210859 31.5705 1.4215 30.8723L15.3086 21.6996C16.5193 21.0014 18.3512 20.9246 19.3985 21.5299L33.875 31.0421C34.9223 31.6474 34.791 32.7043 33.5803 33.4057L19.6932 41.4222C18.4826 42.1204 16.6506 42.1973 15.6033 41.5919L15.6001 41.5887Z" fill="url(#paint0_linear_2793_52072)"/>
<path d="M32.9786 28.4798L19.3989 19.4833C18.3516 18.8779 16.5196 18.9548 15.309 19.653L2.02397 28.4798L0.419392 27.3236V30.0908C0.390567 30.5007 0.621165 30.8947 1.124 31.1861L15.5972 39.5421C16.6445 40.1474 18.4765 40.0706 19.6872 39.3724L33.5743 31.3559C34.202 30.994 34.5415 30.5328 34.5735 30.0908V27.3236L32.969 28.4798H32.9786Z" fill="url(#paint1_linear_2793_52072)"/>
<path d="M15.6001 36.7781L1.12685 28.4189C0.0795462 27.8136 0.210859 26.7566 1.4215 26.0584L15.3086 18.0388C16.5193 17.3406 18.3512 17.2637 19.3985 17.869L33.875 26.225C34.9223 26.8303 34.791 27.8872 33.5803 28.5886L19.6932 36.6051C18.4826 37.3033 16.6506 37.3802 15.6033 36.7749L15.6001 36.7781Z" fill="#E8F8FC"/>
<g style="mix-blend-mode:multiply" opacity="0.2">
<path d="M24.8208 23.5441C25.9417 24.191 25.9417 25.2415 24.8208 25.8885C23.6998 26.5354 21.8806 26.5354 20.7597 25.8885C19.6387 25.2415 19.6387 24.191 20.7597 23.5441C21.8806 22.8971 23.6998 22.8971 24.8208 23.5441Z" fill="#86B1B8"/>
</g>
<path d="M18.6488 10.0926C18.6488 10.0926 18.415 9.79797 18.3926 9.29834L18.5079 9.35599L18.6552 9.72751C18.6552 9.72751 18.8153 9.81398 18.8089 9.8332C18.8025 9.85562 18.6488 10.0894 18.6488 10.0894V10.0926Z" fill="#D93830"/>
<path d="M18.828 9.63472C18.8857 9.83009 18.7544 9.94859 18.6647 9.97101C18.6391 9.97741 18.6135 9.98382 18.591 9.99023C18.5206 10.0062 18.4469 10.0255 18.3989 10.0607C18.3316 10.1087 18.3124 10.2176 18.0946 10.3553C18.0466 10.3874 17.9985 10.4066 17.9505 10.4226C17.864 10.4514 17.7871 10.4546 17.7327 10.4514C17.7071 10.4514 17.6879 10.4482 17.675 10.445C17.6847 10.445 17.6975 10.4546 17.7103 10.461C17.7423 10.477 17.7743 10.5059 17.7775 10.5411C17.7807 10.6052 17.2523 10.6628 17.185 10.6116C17.121 10.5603 17.0697 10.5635 17.0057 10.4226C16.9512 10.3073 16.9512 9.97741 16.964 9.81728C16.964 9.81087 16.964 9.80126 16.964 9.79486C16.964 9.76924 16.9672 9.75002 16.9704 9.74041C16.9736 9.72119 16.9865 9.69557 17.0057 9.66995C17.0633 9.58988 17.169 9.5002 17.2235 9.46818C17.2555 9.44896 17.3484 9.44255 17.4444 9.43615C17.579 9.42654 17.675 9.45216 17.6782 9.42014C17.6943 9.23438 17.4957 9.22797 17.374 9.12228C17.2523 9.01339 17.2267 8.86926 17.3163 8.85965C17.406 8.84684 17.579 8.99737 17.7967 9.09986C18.0145 9.20235 18.2259 9.38811 18.2259 9.38811L18.3668 9.36249L18.8761 9.27281C18.8761 9.27281 18.7736 9.43615 18.8312 9.63152L18.828 9.63472Z" fill="#FFD5BD"/>
<g style="mix-blend-mode:multiply" opacity="0.3">
<path d="M18.8284 9.63459C18.886 9.82996 18.7547 9.94846 18.665 9.97088C18.6394 9.97728 18.6138 9.98369 18.5914 9.99009C18.5978 9.90362 18.6042 9.84597 18.5818 9.69864C18.5561 9.51609 18.3672 9.36556 18.3672 9.36556L18.8764 9.27588C18.8764 9.27588 18.7739 9.43922 18.8316 9.63459H18.8284Z" fill="#CC8C8C"/>
</g>
<path d="M19.9778 6.2045C19.9778 6.2045 19.9778 4.94902 20.1283 4.44298C20.2981 3.8793 20.7785 3.94015 20.7785 3.94015C20.7785 3.94015 20.7593 3.99139 21.0956 5.14118C21.3582 6.03475 21.4255 7.99163 21.5824 8.70585C21.6208 8.87559 21.4767 9.02612 21.3038 9.0005C21.0219 8.95566 20.6568 8.84356 20.5639 8.57133C20.407 8.11013 20.1572 6.74576 19.9746 6.2109L19.9778 6.2045Z" fill="#F44545"/>
<path d="M18.3955 9.30156C18.3955 9.30156 18.767 9.59622 18.6517 10.0958C18.6517 10.0958 20.109 9.94532 21.6047 9.13822C21.7648 9.05175 21.5342 8.47845 21.5342 8.47845C21.5342 8.47845 21.2299 8.38237 20.567 8.56813C19.8752 8.7603 18.4468 9.2311 18.3955 9.30156Z" fill="#F44545"/>
<g style="mix-blend-mode:multiply" opacity="0.3">
<path d="M17.9825 10.2464C17.9761 10.3009 17.9697 10.3553 17.9473 10.4226C17.8608 10.4514 17.7839 10.4546 17.7295 10.4514C17.7231 10.4546 17.7167 10.4578 17.7103 10.461C17.7423 10.477 17.7743 10.5058 17.7775 10.5411C17.7807 10.6051 17.2523 10.6628 17.185 10.6115C17.121 10.5603 17.0697 10.5635 17.0057 10.4226C16.9512 10.3073 16.9512 9.97739 16.964 9.81725C16.964 9.81084 16.964 9.80123 16.964 9.79483C16.964 9.76921 16.9672 9.74999 16.9704 9.74038C16.9736 9.72117 16.9865 9.69554 17.0057 9.66992C17.0281 9.66992 17.1658 9.74359 17.1786 9.74999C17.1786 9.74999 17.832 9.70195 17.832 9.84287C17.832 10.035 18.0049 10.0799 17.9857 10.2496L17.9825 10.2464Z" fill="#CC8C8C"/>
</g>
<path d="M17.8612 10.2624C17.8548 10.3265 17.8228 10.4001 17.7299 10.4514C17.7203 10.4674 17.7299 10.4738 17.7427 10.4834C17.7619 10.4994 17.7747 10.5187 17.7779 10.5411C17.7811 10.6051 17.2527 10.6628 17.1854 10.6115C17.1246 10.5667 17.0797 10.5635 17.0221 10.4578C17.0157 10.4482 17.0093 10.4354 17.006 10.4226C16.9868 10.3809 16.9772 10.3233 16.9708 10.2592C16.9708 10.2496 16.9708 10.2368 16.9676 10.2272C16.9612 10.1471 16.958 10.0575 16.958 9.97418C16.958 9.96457 16.958 9.95176 16.958 9.94216C16.958 9.89411 16.958 9.85248 16.9612 9.81725C16.9612 9.81084 16.9612 9.80123 16.9612 9.79483C16.9612 9.76921 16.9644 9.74999 16.9676 9.74038C16.9708 9.72117 16.9836 9.69554 17.0028 9.66992C17.1822 9.70515 17.6754 9.82365 17.6946 9.95497C17.6946 9.95497 17.7267 9.9902 17.669 10.0543C17.6562 10.0703 17.653 10.0799 17.6594 10.0863C17.685 10.1151 17.8516 10.1023 17.858 10.1663C17.858 10.176 17.858 10.1888 17.858 10.2016C17.858 10.2208 17.858 10.24 17.858 10.2624H17.8612Z" fill="#FFE1C7"/>
<path d="M17.669 10.0606C17.669 10.0606 17.6562 10.0798 17.6626 10.0894C17.4192 10.1087 17.179 10.0702 16.958 9.97734C16.958 9.96773 16.958 9.95492 16.958 9.94531C17.1822 10.0446 17.4256 10.083 17.6722 10.0606C17.6722 10.0606 17.6722 10.0606 17.6722 10.0638L17.669 10.0606Z" fill="#FFD5BD"/>
<path d="M17.8616 10.2624C17.8328 10.2945 17.7912 10.3105 17.7463 10.3201C17.6406 10.3393 17.5349 10.3489 17.4292 10.3457C17.2723 10.3393 17.1186 10.3105 16.968 10.2592C16.968 10.2496 16.968 10.2368 16.9648 10.2272C17.0962 10.2752 17.2339 10.3041 17.3748 10.3105C17.4549 10.3137 17.5349 10.3169 17.6182 10.3105C17.6951 10.3009 17.8296 10.3009 17.8584 10.2112C17.8648 10.224 17.8648 10.2432 17.8584 10.2656L17.8616 10.2624Z" fill="#FFD5BD"/>
<path d="M17.7425 10.4835C17.5023 10.5251 17.2589 10.5155 17.0219 10.4578C17.0155 10.4482 17.0091 10.4354 17.0059 10.4226C17.2589 10.4803 17.5055 10.4963 17.7169 10.4578C17.7233 10.4674 17.7329 10.4739 17.7425 10.4835Z" fill="#FFD5BD"/>
<path d="M22.2323 17.0137C22.2034 17.1322 22.1874 17.2283 22.1746 17.3116C22.1586 17.4269 22.1554 17.5102 22.149 17.571C22.1458 17.6095 22.1394 17.6383 22.1298 17.6639C22.1138 17.7023 22.0881 17.728 22.0305 17.7504C22.0081 17.76 21.9696 17.7792 21.9248 17.8016C21.6301 17.9393 20.9576 18.2308 20.8455 17.5646C20.8423 17.5422 20.8391 17.5166 20.8359 17.4909V17.4301C20.8359 17.4301 20.8166 17.2668 20.7878 16.9945C20.6789 15.9825 20.586 14.9672 20.5444 13.9519C20.5284 13.5772 20.5188 13.1993 20.538 12.8277C20.5476 12.6484 20.538 12.3697 20.6597 12.2192C21.0344 11.7388 21.5437 11.3385 22.117 11.5082C22.6935 11.678 22.7383 11.7997 22.7831 12.3057C22.828 12.8117 22.37 16.4533 22.2291 17.0201L22.2323 17.0137Z" fill="#FFD5BD"/>
<path d="M22.5493 24.3384C22.5493 24.3384 22.3091 24.5018 22.2579 24.5082C22.2066 24.5114 22.0625 24.3352 22.0625 24.3352C22.0625 24.3352 22.1073 24.2488 22.1714 24.1335C22.2931 23.9061 22.4725 23.5762 22.4789 23.589C22.4885 23.6114 22.5781 23.6114 22.5781 23.6114C22.5781 23.6114 22.5205 24.2648 22.5525 24.3416L22.5493 24.3384Z" fill="#BB3E45"/>
<path d="M22.3217 23.9861C22.3217 23.9861 22.3056 24.412 22.2608 24.5081C22.2096 24.5113 22.0654 24.3352 22.0654 24.3352C22.0654 24.3352 22.1103 24.2487 22.1743 24.1334L22.3217 23.9893V23.9861Z" fill="#E75E5A"/>
<path d="M22.2387 23.003C22.2387 23.003 22.5461 23.3553 22.5653 23.4578C22.5846 23.5603 22.6102 23.714 22.402 23.9638C22.1906 24.2136 21.8799 24.6908 21.8287 24.7933C21.7775 24.8958 21.281 25.1873 21.0697 25.1969C20.8615 25.2065 20.7205 25.0784 20.7622 24.9855C20.8038 24.8926 20.9992 24.5499 21.2234 24.236C21.5501 23.7845 21.6558 23.8421 21.6558 23.8421L22.2322 22.9966L22.2387 23.003Z" fill="#CD4D4D"/>
<path d="M22.5267 20.1909C22.5267 20.1909 22.2128 22.7115 22.2352 22.8364C22.2545 22.9581 22.4082 23.2848 22.3666 23.4257C22.3281 23.5634 21.7452 24.4922 21.4314 24.6908C21.4185 24.7004 21.4057 24.7068 21.3961 24.71C21.3833 24.7164 21.3737 24.7196 21.3641 24.726C21.0855 24.8445 21.0182 24.6588 21.0919 24.5274C21.1687 24.3897 21.5723 23.7652 21.5819 23.6211C21.6075 23.3104 21.6844 22.9325 21.662 22.7371C21.662 22.7371 21.3 19.5151 21.1015 18.7753C20.9029 18.0387 20.8613 17.6351 20.8517 17.5615C20.8453 17.507 21.1623 17.2604 21.473 17.2348C21.5851 17.2252 21.6972 17.2476 21.7933 17.318C21.8189 17.3373 21.8445 17.3565 21.8669 17.3757C21.9758 17.4654 22.0623 17.5615 22.136 17.6607C22.1488 17.68 22.1616 17.696 22.1744 17.7152C22.2513 17.8305 22.3089 17.9458 22.3473 18.0451C22.357 18.0675 22.3602 18.0835 22.3666 18.1027C22.3762 18.1283 22.3826 18.154 22.389 18.1764C22.4498 18.407 22.6804 19.3454 22.5299 20.1877L22.5267 20.1909Z" fill="#FFD5BD"/>
<g style="mix-blend-mode:multiply" opacity="0.3">
<path d="M22.5269 20.1908C22.5269 20.1908 22.213 22.7113 22.2354 22.8363C22.2547 22.958 22.4084 23.2846 22.3668 23.4256C22.3283 23.5633 21.7454 24.4921 21.4316 24.6906C21.6269 24.5433 22.1169 23.7074 22.1938 23.5056C22.2771 23.291 22.1362 22.6665 22.1362 22.6665C22.1362 22.6665 22.2867 19.0634 22.2162 18.6246C22.1682 18.3172 22.0177 18.0033 21.9312 17.7983C21.8928 17.7086 21.8671 17.6414 21.8671 17.603C21.8671 17.5133 21.8223 17.4268 21.7454 17.382C21.659 17.3275 21.5661 17.2795 21.4732 17.2378C21.1273 17.0777 20.7942 16.9912 20.7942 16.9912V16.9496C20.7846 16.9048 20.7814 16.8599 20.775 16.8183C20.775 16.7959 20.7718 16.7766 20.7686 16.7542C20.7654 16.719 20.7622 16.6966 20.759 16.6742C20.7526 16.6197 20.7494 16.5653 20.743 16.5044C20.7398 16.4724 20.7366 16.4372 20.7334 16.3987C20.7302 16.3667 20.727 16.3315 20.7237 16.2962C20.7205 16.2578 20.7173 16.2194 20.7109 16.1777C20.8743 16.1137 21.3515 16.0432 21.3963 16.0432C21.4476 16.0432 22.0209 16.6774 22.0209 16.6774C22.0209 16.6774 22.1073 17.0136 22.181 17.3051C22.165 17.4204 22.1618 17.5037 22.1554 17.5645C22.1522 17.603 22.1458 17.6318 22.1362 17.6574C22.149 17.6766 22.1618 17.6926 22.1746 17.7118C22.2515 17.8271 22.3091 17.9424 22.3475 18.0417C22.3539 18.0642 22.3604 18.0802 22.3668 18.0994C22.3764 18.125 22.3828 18.1506 22.3892 18.173C22.45 18.4036 22.6806 19.342 22.5301 20.1844L22.5269 20.1908Z" fill="#CC8C8C"/>
</g>
<path d="M23.9625 16.8569C23.8825 17.2893 23.812 17.6256 23.7704 17.7665C23.7608 17.7985 23.7544 17.8273 23.7448 17.8562C23.7191 17.9522 23.7031 18.0291 23.6935 18.0996C23.6743 18.2117 23.6711 18.2885 23.6583 18.3462C23.6455 18.4262 23.6231 18.4647 23.5398 18.4935C23.3668 18.5576 22.5469 18.9835 22.3804 18.3654C22.3676 18.3142 22.358 18.2533 22.3516 18.1828V18.122C22.3516 18.122 22.342 17.9426 22.3227 17.648C22.3227 17.5935 22.3163 17.5359 22.3131 17.4718C22.3131 17.4622 22.3131 17.4526 22.3131 17.443C22.2331 16.1107 22.0985 13.2634 22.3996 12.9079C22.7967 12.4403 23.3188 12.0656 23.8857 12.2577C24.4526 12.4499 24.4942 12.5748 24.5198 13.0841C24.539 13.4652 24.1996 15.5822 23.9593 16.8601L23.9625 16.8569Z" fill="#FFE1C7"/>
<path d="M24.0718 25.0079C24.0718 25.0079 23.8316 25.1712 23.7803 25.1776C23.7291 25.1808 23.585 25.0047 23.585 25.0047C23.585 25.0047 23.633 24.9182 23.6939 24.8029C23.8156 24.5755 23.9949 24.2456 24.0013 24.2584C24.0109 24.2808 24.1006 24.2808 24.1006 24.2808C24.1006 24.2808 24.043 24.9342 24.075 25.0111L24.0718 25.0079Z" fill="#BB3E45"/>
<path d="M23.8412 24.6558C23.8412 24.6558 23.8252 25.0817 23.7803 25.1778C23.7291 25.181 23.585 25.0049 23.585 25.0049C23.585 25.0049 23.633 24.9184 23.6939 24.8031L23.8412 24.659V24.6558Z" fill="#E75E5A"/>
<path d="M23.758 23.6724C23.758 23.6724 24.0655 24.0247 24.0847 24.1272C24.1039 24.2297 24.1296 24.3834 23.9214 24.6332C23.71 24.8831 23.3993 25.3603 23.3481 25.4628C23.2968 25.5652 22.8004 25.8567 22.5922 25.8663C22.3809 25.8759 22.2431 25.7478 22.2848 25.6549C22.3264 25.562 22.5218 25.2194 22.746 24.9055C23.0726 24.4539 23.1783 24.5115 23.1783 24.5115L23.758 23.666V23.6724Z" fill="#CD4D4D"/>
<path d="M24.0468 20.822C24.0468 20.822 23.7329 23.381 23.7521 23.5027C23.7714 23.6244 23.9283 23.9351 23.8899 24.0792C23.8482 24.2233 23.2205 25.2322 22.913 25.3827C22.8842 25.3955 22.8586 25.4083 22.833 25.4147C22.5895 25.482 22.5383 25.3186 22.6056 25.1969C22.6824 25.0592 23.086 24.4347 23.0956 24.2906C23.1212 23.9767 23.1981 23.602 23.1756 23.4066C23.1756 23.4066 22.8137 20.1846 22.6152 19.4448C22.4678 18.9035 22.407 18.5448 22.3814 18.3591C22.3718 18.2918 22.3686 18.2502 22.3654 18.231C22.3557 18.1573 22.945 17.7249 23.307 17.9875C23.371 18.0324 23.4287 18.0836 23.4799 18.1349C23.5504 18.2021 23.608 18.2726 23.6593 18.3431C23.7906 18.5256 23.8674 18.7114 23.9059 18.8491C23.9667 19.0797 24.1973 19.9797 24.0468 20.822Z" fill="#FFE1C7"/>
<g style="mix-blend-mode:multiply" opacity="0.3">
<path d="M24.0449 20.8217C24.0449 20.8217 23.731 23.3807 23.7503 23.5024C23.7695 23.6241 23.9264 23.9348 23.888 24.0789C23.8463 24.2231 23.2186 25.2319 22.9111 25.3825C22.8823 25.3953 22.8567 25.4081 22.8311 25.4145C23.0328 25.3344 23.7375 24.3896 23.7631 24.0469C23.7791 23.8387 23.6542 23.5857 23.6542 23.5857C23.6542 23.5857 23.7214 22.817 23.731 22.6377C23.7407 22.4583 23.8495 20.1299 23.8239 19.6175C23.8143 19.4093 23.6286 18.6663 23.5389 18.4901C23.4844 18.3812 23.446 18.2916 23.462 18.2371C23.4716 18.2083 23.4748 18.1731 23.478 18.1346C23.4844 18.0481 23.4748 17.9649 23.4076 17.904C23.0777 17.7375 22.5684 17.6894 22.325 17.6446C22.325 17.5902 22.3186 17.5325 22.3154 17.4685C22.3154 17.4588 22.3154 17.4492 22.3154 17.4396C22.4307 17.2314 22.6165 16.9144 22.6837 16.8663C22.767 16.8087 23.5517 16.8375 23.9648 16.8567C23.8848 17.2891 23.8143 17.6254 23.7727 17.7663C23.7631 17.7983 23.7567 17.8272 23.7471 17.856C23.7214 17.9521 23.7054 18.0289 23.6958 18.0994C23.6766 18.2115 23.6734 18.2884 23.6606 18.346C23.7919 18.5286 23.8688 18.7143 23.9072 18.852C23.968 19.0826 24.1986 19.9826 24.0481 20.8249L24.0449 20.8217Z" fill="#CC8C8C"/>
</g>
<path d="M24.5355 17.3021C24.5355 17.3021 24.6059 17.411 23.6707 17.6544C23.6195 17.6672 23.565 17.6768 23.5074 17.6832C23.4209 17.6896 23.328 17.6896 23.2319 17.6832C22.1942 17.5999 20.5929 16.7032 20.5929 16.6583C20.6025 16.6135 20.5352 15.8897 20.4423 15.3228C20.4391 15.3036 20.4359 15.2587 20.4327 15.1947C20.4135 14.6566 20.4295 12.7349 20.4423 12.4563C20.4487 12.3218 20.4648 12.1585 20.4808 11.9855C20.5448 11.393 20.6537 10.698 20.6537 10.698C20.6537 10.698 24.0807 11.2841 24.2024 11.361C24.3241 11.4378 24.433 11.7101 24.433 11.7101C24.7853 12.8118 24.5322 17.3021 24.5322 17.3021H24.5355Z" fill="#69A5BF"/>
<path d="M23.6931 16.7257C23.6355 17.1228 23.6483 17.4047 23.5074 17.6833C23.4209 17.6897 23.328 17.6897 23.2319 17.6833C22.1974 17.5968 20.6185 16.6904 20.5929 16.6584C20.4231 16.4342 20.4231 15.9986 20.4423 15.3229C20.4423 15.3036 20.4423 15.2588 20.4327 15.1948C20.4135 14.6567 20.4295 12.735 20.4423 12.4564C20.4487 12.3219 20.4648 12.1585 20.4808 11.9856C20.8875 12.1073 21.4544 12.2802 21.7619 12.3891C22.4408 12.6293 23.043 12.5845 23.3664 12.5845C23.6899 12.5845 23.6835 13.6542 23.6675 14.1923C23.6515 14.7304 23.8148 15.8833 23.6899 16.7257H23.6931Z" fill="#69A5BF"/>
<g style="mix-blend-mode:multiply" opacity="0.3">
<path d="M23.2318 17.6799C22.1974 17.5934 20.6184 16.6871 20.5928 16.655C20.5928 16.6999 22.1942 17.5934 23.2318 17.6799Z" fill="#3F7FA6"/>
<path d="M20.4326 15.1914C20.4326 15.2555 20.439 15.3003 20.4422 15.3195C20.4422 15.3003 20.4422 15.2555 20.4326 15.1914Z" fill="#3F7FA6"/>
<path d="M24.4366 11.7101C24.4366 11.7101 24.3309 11.4378 24.206 11.361C24.0843 11.2841 20.6573 10.698 20.6573 10.698C20.6573 10.698 20.5484 11.393 20.4844 11.9855C20.8911 12.1072 21.458 12.2802 21.7655 12.3891C22.4445 12.6293 23.0466 12.5844 23.3701 12.5844C23.6935 12.5844 23.6871 13.6541 23.6711 14.1922C23.6551 14.7303 23.8184 15.8833 23.6935 16.7256C23.6359 17.1227 23.6487 17.4046 23.5078 17.6832C23.5654 17.6768 23.6199 17.6704 23.6711 17.6544C24.6063 17.4078 24.5359 17.3021 24.5359 17.3021C24.5359 17.3021 24.7889 12.8086 24.4366 11.7101Z" fill="#3F7FA6"/>
</g>
<path d="M23.8179 8.71871C23.7378 9.20873 23.9012 10.3361 24.0229 10.714C24.1446 11.092 24.3816 11.3578 24.2567 11.6044C24.1766 11.7613 23.7634 11.851 23.2926 11.8958C23.03 11.9215 22.7482 11.9311 22.4984 11.9311C21.8034 11.9311 20.5863 11.2777 20.4838 11.1336C20.3813 10.9895 20.4934 10.2528 20.6279 9.87491C20.7625 9.49698 20.5991 8.4721 20.5575 8.17745C20.5511 8.12941 20.5383 8.07816 20.5223 8.02372C20.4422 7.74508 20.2532 7.40559 20.1411 7.1846C20.1251 7.15257 20.1123 7.12695 20.1027 7.10453C20.013 6.93798 20.0258 6.98923 19.9169 6.68176C19.7952 6.33266 20.1828 5.60244 20.2949 5.38785C20.3525 5.27576 20.3621 4.68645 20.3749 4.41422C20.3845 4.14518 20.5991 3.9306 20.8682 3.91459C21.4703 3.88256 22.4599 3.86334 22.8026 4.07152C23.1613 4.28931 23.7442 4.89783 24.0517 5.23412C24.1798 5.37184 24.2599 5.46472 24.2599 5.46472C24.4841 5.68891 24.5449 6.41594 24.5353 6.65294C24.5257 6.88674 23.9012 8.22869 23.8179 8.71871Z" fill="#E63B33"/>
<path d="M23.1705 2.30346C23.1449 2.15613 22.7221 1.83265 22.6805 1.79742C22.6677 1.78461 22.6068 1.7718 22.5299 1.75899L22.4435 0.506715L22.4211 0.15121C22.4211 0.15121 22.4146 0.148007 22.405 0.141602C21.9951 0.234481 21.5595 0.66365 21.3641 0.878235C21.2649 0.852613 21.1528 0.826991 21.0311 0.804571C20.6051 0.724503 20.4225 1.15687 20.3553 1.4163C20.3489 1.46754 20.3425 1.51879 20.3361 1.57643C20.3361 1.59245 20.3329 1.60846 20.3297 1.62127C20.2528 2.38353 20.2656 3.45645 20.541 3.7447C20.541 3.7447 20.6788 3.7447 20.8421 3.69345C21.4698 3.61659 22.3698 3.77993 22.7766 3.8664C22.8919 3.89202 23.0072 3.81196 23.0232 3.69345C23.0808 3.2803 23.1929 2.41556 23.1705 2.30346Z" fill="#744B44"/>
<path d="M21.3965 4.15469C21.3965 4.15469 21.4862 3.83442 21.5534 3.9273C21.6207 4.02018 21.6527 4.28921 21.6527 4.30202C21.6527 4.31483 21.6655 4.43333 21.6655 4.45575C21.6655 4.47817 21.6303 4.51981 21.6303 4.51981L21.4766 4.48458L21.3965 4.15469Z" fill="#D93830"/>
<path d="M21.204 4.93611C21.204 4.93611 21.5275 4.49733 21.6268 4.51014C21.6268 4.51014 21.4026 4.39805 21.361 4.49093C21.3193 4.58381 21.1464 4.82081 21.204 4.93611Z" fill="#D93830"/>
<path d="M21.6079 4.49423C21.5598 4.44299 21.5022 3.73198 21.5278 3.48216C21.5534 3.20032 21.4766 2.86723 21.4766 2.86723L22.6744 2.60141L22.7128 2.5918C22.7128 2.5918 22.5687 3.79923 22.7737 4.03304C22.9787 4.27004 21.9121 4.81451 21.6079 4.49423Z" fill="#FFD5BD"/>
<g style="mix-blend-mode:multiply" opacity="0.3">
<path d="M22.6744 2.59814C22.7032 4.03298 22.1459 4.04579 21.8705 4.05219C21.5086 4.06501 21.5054 3.73192 21.5278 3.4789C21.5534 3.19706 21.4766 2.86397 21.4766 2.86397L22.6744 2.59814Z" fill="#CC8C8C"/>
</g>
<path d="M23.1231 2.0953C23.075 2.19138 23.0174 2.27465 22.9597 2.3355C22.9597 2.3355 22.6843 2.90879 22.6235 3.01128C22.5818 3.08174 22.127 3.46287 21.7299 3.70308C21.5441 3.81517 21.3776 3.89524 21.2623 3.90165C20.9036 3.92086 20.6089 3.1458 20.5865 2.85755C20.5673 2.57251 20.6249 2.29387 20.4968 2.02804C20.4808 1.99281 20.4648 1.93516 20.4584 1.86149C20.4424 1.67573 20.468 1.38108 20.5897 1.07682C20.673 0.862235 20.8043 0.644448 20.9965 0.452283C20.9965 0.452283 21.4577 0.115994 21.9797 0.154427C22.5017 0.196063 23.0654 0.308159 23.2288 0.89106C23.3537 1.33304 23.2768 1.79103 23.1263 2.0953H23.1231Z" fill="#FFD5BD"/>
<g style="mix-blend-mode:multiply" opacity="0.3">
<path d="M23.1228 2.09541C23.0748 2.19149 23.0171 2.27476 22.9595 2.33561C22.9595 2.33561 22.684 2.90891 22.6232 3.0114C22.5815 3.08186 22.1268 3.46298 21.7296 3.70319C22.1139 3.46298 22.3285 3.20997 22.3221 2.50216C22.3221 2.16587 22.2549 2.19469 22.2549 2.19469L22.0018 2.21711C21.2684 2.24274 20.6855 1.97691 20.4613 1.8584C20.4453 1.67265 20.4709 1.37799 20.5926 1.07373C20.7816 1.07373 22.4438 1.09935 22.4791 1.14099C22.5175 1.18583 23.0908 1.89364 23.1292 2.09221L23.1228 2.09541Z" fill="#CC8C8C"/>
</g>
<path d="M21.6846 4.55829C21.6846 4.55829 21.9248 4.90419 21.8895 5.23728C21.8895 5.23728 21.9152 5.27891 21.9728 5.23728C22.008 5.21165 23.0105 4.73444 23.1899 4.37574L23.1354 4.32129L22.0881 4.83693L21.6846 4.55829Z" fill="#D93830"/>
<path d="M21.637 4.51983C21.637 4.51983 21.9124 4.70239 21.9124 5.03548V5.23405C21.9124 5.23405 23.1551 4.5935 23.1679 4.29564C23.1679 4.29564 22.8508 3.94013 22.8252 3.8953L22.6907 3.83765C22.6907 3.83765 22.79 4.02981 22.6715 4.13871C22.5498 4.2476 22.0021 4.63193 21.6338 4.51983H21.637Z" fill="#F44545"/>
<path d="M21.5273 3.86011C21.5273 3.86011 21.348 3.89854 21.2455 4.04266C21.1814 4.13554 20.986 4.80172 21.207 4.93943C21.207 4.93943 21.3768 4.46543 21.6394 4.52308C21.6394 4.52308 21.4056 4.46543 21.5305 3.93377C21.5337 3.91776 21.5209 3.88253 21.5273 3.86331V3.86011Z" fill="#F44545"/>
<path d="M23.469 3.28996C23.3376 3.52376 23.1327 3.81841 22.9918 3.91449C22.9918 3.91449 22.8188 3.98175 22.7003 4.03299C22.6811 4.0426 22.7676 3.56539 22.7676 3.54618C22.6587 3.87286 22.6298 4.06822 22.5786 4.09064C22.3896 4.16751 22.1943 4.24117 22.1334 4.23797C22.0405 4.23477 22.3672 3.37323 22.3864 2.61418C22.3928 2.406 22.3736 2.20743 22.316 2.03448C22.3 1.98964 22.2839 1.9448 22.2647 1.90316C22.0822 1.53485 21.8452 1.31066 21.6466 1.17934C21.4288 1.03522 21.2559 0.999988 21.2559 0.999988C21.2559 0.999988 21.2879 0.961555 21.3423 0.900703C21.3487 0.894297 21.3551 0.884689 21.3648 0.878284C21.5633 0.663699 21.9348 0.196097 22.3416 0.100015C22.3736 0.0936094 22.5113 0.100015 22.5145 0.100015C23.1295 0.141651 23.4754 0.935933 23.5522 1.31386C23.6579 1.84551 23.5971 3.05936 23.4658 3.29316L23.469 3.28996Z" fill="#AC6556"/>
<path d="M22.4082 0.141662C21.9982 0.234542 21.5626 0.66371 21.3673 0.878295C21.268 0.852673 21.1559 0.827051 21.0342 0.804631C20.6082 0.724563 20.4257 1.15693 20.3584 1.41636C20.3744 1.29145 20.3936 1.17935 20.416 1.08647C20.5634 0.436315 21.1142 0.199311 21.5434 0.0487819C21.9245 -0.082531 22.3313 0.0872149 22.4082 0.138459V0.141662Z" fill="#AC6556"/>
<path d="M22.418 2.05702C22.418 2.05702 22.4084 2.07624 22.3924 2.08264C22.2322 2.13709 21.3963 2.0314 21.233 2.00257C21.0504 1.97055 20.5188 1.78158 20.5124 1.75596C20.5092 1.73674 20.5124 1.63105 20.5316 1.51896C20.5412 1.46131 20.5572 1.40366 20.5796 1.35241C20.57 1.36843 20.5348 1.44529 20.4963 1.52536C20.4579 1.60863 20.4227 1.69831 20.4259 1.73034C20.4259 1.73034 20.301 1.6823 20.2625 1.63426C20.2561 1.62465 20.2529 1.61824 20.2529 1.60863C20.2529 1.60863 20.2529 1.59903 20.2529 1.58942C20.2561 1.55739 20.2657 1.49333 20.2882 1.41647C20.3618 1.13783 20.5572 0.676633 21.0152 0.759905C21.1433 0.782324 21.265 0.811149 21.3707 0.836771C21.5885 0.89442 21.7646 0.961678 21.8991 1.04175C22.0208 1.11541 22.1105 1.19868 22.1682 1.29476C22.3219 1.55419 22.4148 1.94813 22.4212 2.05382L22.418 2.05702Z" fill="#C8785B"/>
<path d="M21.5275 11.71C21.4795 11.63 21.5275 11.1752 21.6044 10.4129C21.6556 9.9229 21.7069 9.42007 21.7005 9.2151C21.6813 8.74429 21.5275 8.38879 21.2297 7.86354C20.9222 7.31907 20.7557 6.66571 21.1656 6.15647C21.5531 5.67926 21.5884 4.51986 21.5884 4.51025L21.6652 4.54548C21.6652 4.58392 21.6172 5.70168 21.2137 6.1949C20.8165 6.68172 20.9863 7.30626 21.2809 7.83151C21.582 8.36637 21.7389 8.72508 21.7581 9.21189C21.7677 9.42007 21.7133 9.92931 21.662 10.4193C21.6044 10.9574 21.5499 11.6556 21.5884 11.7261L21.5211 11.71H21.5275Z" fill="#F44545"/>
<g style="mix-blend-mode:multiply" opacity="0.3">
<path d="M23.818 8.71875C23.7379 9.20878 23.9013 10.3361 24.023 10.7141C24.1447 11.092 24.3817 11.3578 24.2568 11.6044C24.1767 11.7614 23.7636 11.851 23.2928 11.8959C23.4913 11.1625 23.1743 9.88135 22.8764 9.85893C22.5465 9.83331 20.7818 9.83652 20.5192 8.02055C20.4391 7.74192 20.2501 7.40242 20.138 7.18143C20.122 7.14941 20.1092 7.12378 20.0996 7.10136C20.6281 7.40242 22.0117 8.13585 22.5177 7.90846C23.1454 7.62662 23.4016 6.18217 23.4016 6.18217L24.0518 5.23096C24.1799 5.36868 24.26 5.46155 24.26 5.46155C24.4842 5.68575 24.545 6.41277 24.5354 6.64978C24.5258 6.88358 23.9013 8.22553 23.818 8.71555V8.71875Z" fill="#E69E7A"/>
</g>
<path d="M21.7713 11.361C21.7713 11.361 21.5824 11.1112 21.6368 10.6147L21.9122 10.6404L21.9987 11.0279C21.9987 11.0279 21.9731 11.188 21.9635 11.2073C21.9539 11.2297 21.7713 11.361 21.7713 11.361Z" fill="#D93830"/>
<path d="M25.1246 9.85567C25.1342 10.0286 24.9676 10.1567 24.8043 10.1023C24.673 10.0606 24.484 10.0703 24.3175 10.0606C24.1413 10.0478 23.9908 10.0158 23.9652 9.86848C23.9524 9.80122 23.9844 9.71795 23.9652 9.62187C23.8435 9.04217 23.5905 8.04291 23.4495 7.63937C23.4495 7.63937 23.2125 5.98034 23.6129 5.55117C24.01 5.1188 24.2182 5.33659 24.2182 5.33659C24.2182 5.33659 24.231 5.3462 24.2566 5.37182C24.3495 5.4711 24.5993 5.8138 24.721 6.76181C24.8299 7.59453 25.0285 8.85321 25.1086 9.62828C25.1182 9.71155 25.1246 9.79162 25.1278 9.86208L25.1246 9.85567Z" fill="#F44545"/>
<path d="M22.2354 11.156C22.2354 11.156 22.213 11.172 22.197 11.1784C22.1073 11.2104 21.9087 11.2296 21.7134 11.2745C21.5788 11.3033 21.4475 11.3449 21.361 11.4058C21.124 11.5755 20.7814 11.7004 20.7814 11.7004C20.7814 11.7004 20.4355 11.7293 20.2881 11.6844C20.1248 11.6332 20.0671 11.5339 20.0735 11.5211C20.0735 11.5243 20.0511 11.5307 19.9326 11.4923C19.8077 11.4506 19.7981 11.3033 19.7981 11.2713C19.7212 11.1752 19.7725 11.0182 19.7725 11.0182C19.7725 11.0182 19.6636 10.9286 19.6188 10.8709C19.5739 10.8165 19.5099 10.6948 19.5739 10.6019C19.638 10.509 19.7789 10.7012 19.9006 10.746C20.0223 10.7908 20.2753 10.8005 20.5732 10.7844C20.8678 10.7684 20.8774 10.7268 20.8678 10.6243C20.8582 10.5218 20.554 10.4417 20.4707 10.3264C20.3874 10.2112 20.4995 10.0862 20.5315 10.0991C20.5636 10.1119 20.6981 10.2432 20.9959 10.3393C21.2938 10.4353 21.4219 10.6755 21.4219 10.6755C21.4219 10.6755 21.4956 10.6852 21.6045 10.682C21.7294 10.682 21.8991 10.6627 22.056 10.5955C22.1713 10.5474 22.056 10.6948 22.1553 10.7652C22.2066 10.8005 22.2514 10.8773 22.2738 10.9574C22.2931 11.0311 22.2866 11.1079 22.2386 11.156H22.2354Z" fill="#FFE1C7"/>
<g style="mix-blend-mode:multiply" opacity="0.3">
<path d="M22.2709 10.9541C22.2485 11.0246 22.2229 11.1014 22.1973 11.1751C22.1076 11.2071 21.909 11.2264 21.7137 11.2712C21.8129 11.1495 21.688 10.7395 21.6016 10.6787C21.7265 10.6787 21.8962 10.6595 22.0532 10.5922C22.1685 10.5442 22.0532 10.6915 22.1524 10.762C22.2037 10.7972 22.2485 10.8741 22.2709 10.9541Z" fill="#CC8C8C"/>
</g>
<path d="M24.974 10.2848C23.4207 10.9702 21.7712 11.3577 21.7712 11.3577C21.7937 11.2777 21.7937 11.1848 21.7808 11.0919C21.7488 10.8517 21.6367 10.6115 21.6367 10.6115C21.6912 10.557 23.1324 9.84923 23.9171 9.61543C24.0004 9.58981 24.0772 9.57059 24.1413 9.55778C24.311 9.52575 24.4551 9.51294 24.5768 9.51294C24.9067 9.51294 25.0733 9.59941 25.1053 9.61863C25.1117 9.61863 25.1437 10.2111 24.974 10.2848Z" fill="#F44545"/>
<g style="mix-blend-mode:multiply" opacity="0.2">
<path d="M15.3022 28.0152C16.4232 28.6622 16.4232 29.7127 15.3022 30.3597C14.1812 31.0066 12.3621 31.0066 11.2411 30.3597C10.1201 29.7127 10.1201 28.6622 11.2411 28.0152C12.3621 27.3683 14.1812 27.3683 15.3022 28.0152Z" fill="#86B1B8"/>
</g>
<path d="M12.5674 22.4615C12.5674 22.4615 12.5642 22.4711 12.5578 22.4775C12.5066 22.5576 12.308 22.6601 12.0614 22.7337C11.581 22.8778 10.9116 22.9195 10.7835 22.4999C10.7643 22.4423 10.7483 22.3622 10.7355 22.2661C10.5977 21.2989 10.6618 18.6598 10.6618 18.6598C10.1237 17.5292 10.6298 15.8318 10.6298 15.8318L13.1151 16.7222C13.1439 16.8535 13.1567 17.036 13.1599 17.2602C13.176 18.8135 12.6507 22.2565 12.5674 22.4615Z" fill="#69A5BF"/>
<path d="M13.5604 28.14C13.5476 28.2041 13.5316 28.2617 13.522 28.3066C13.5092 28.3514 13.4803 28.3898 13.4419 28.4122C13.4003 28.4379 13.3362 28.4763 13.2593 28.5211C12.8142 28.7902 11.879 29.341 11.6195 29.4243C11.3569 29.5044 11.0975 29.3378 10.9886 29.2514C10.9534 29.2225 10.9341 29.1809 10.9341 29.1361V29.0368V28.9951C10.9181 28.6973 10.9822 28.5115 11.0334 28.4122C11.0623 28.3546 11.0879 28.329 11.0879 28.329L11.7989 28.1784L11.879 28.1624L12.148 28.0055L12.3914 27.8646L12.7085 27.7108L12.7789 27.6756L12.9871 27.5731C13.1857 27.5123 13.3426 27.5635 13.4451 27.6532C13.4963 27.698 13.5348 27.7557 13.5604 27.8133C13.5956 27.8934 13.5828 28.0247 13.5604 28.14Z" fill="#FFC046"/>
<path d="M12.9841 27.935C12.9552 27.9639 11.9912 28.4283 11.9912 28.4283L12.1481 28.0696L12.3916 27.9286L12.7086 27.7749C12.8079 27.7749 13.0161 27.9062 12.9841 27.9382V27.935Z" fill="#F6F7EF"/>
<path d="M13.5606 28.1401C13.5478 28.2042 13.5318 28.2618 13.5222 28.3067C13.5093 28.3515 13.4805 28.39 13.4421 28.4124C13.4004 28.438 13.3364 28.4764 13.2595 28.5213C13.298 28.3323 13.2595 28.1465 13.2051 27.9992C13.33 27.8999 13.4101 27.7462 13.4485 27.6533C13.4997 27.6982 13.5382 27.7558 13.5638 27.8135C13.599 27.8935 13.5862 28.0248 13.5638 28.1401H13.5606Z" fill="#E5EAE7"/>
<path d="M11.9147 28.3995C11.9147 28.3995 12.1933 28.3066 12.2574 28.2233C12.2958 28.1689 12.3631 28.0664 12.3855 27.9703C12.4015 27.9062 12.3503 27.807 12.3022 27.7621C12.2254 27.6853 12.1005 27.5828 12.0204 27.5828C11.8955 27.5828 11.777 27.6148 11.777 27.6148L11.7354 28.1464L11.9147 28.4027V28.3995Z" fill="#D3DBDC"/>
<path d="M11.9688 28.3418C11.9688 28.3418 12.3115 28.0343 12.2539 27.903C12.1994 27.7685 11.988 27.7173 11.988 27.7173L11.8567 27.6917L11.7734 28.0888L11.9688 28.3418Z" fill="#A2AFB8"/>
<path d="M13.2564 28.5242C12.8112 28.7933 11.876 29.3441 11.6166 29.4274C11.354 29.5075 11.0946 29.3409 10.9857 29.2545C10.9504 29.2256 10.9312 29.184 10.9312 29.1392V29.0399V28.9983C10.9152 28.7004 10.9793 28.5146 11.0305 28.4154C11.0593 28.694 11.639 28.7324 11.8504 28.6395C12.254 28.4602 12.9233 28.1687 13.1507 28.0374C13.1699 28.0278 13.186 28.015 13.202 28.0022C13.2596 28.1495 13.2948 28.3353 13.2564 28.5242Z" fill="#FF8C36"/>
<path d="M13.4455 27.6564C13.407 27.7493 13.327 27.903 13.2021 28.0023C13.1764 27.9382 13.1476 27.8838 13.122 27.8357C13.0451 27.7076 12.8754 27.682 12.7793 27.6756L12.9875 27.5731C13.186 27.5123 13.343 27.5635 13.4455 27.6532V27.6564Z" fill="#F6F7EF"/>
<path d="M11.617 29.4276C11.3544 29.5077 11.095 29.3411 10.9861 29.2547C10.9509 29.2258 10.9316 29.1842 10.9316 29.1394V29.0401C11.0469 29.149 11.2968 29.3187 11.5017 29.2771C11.7323 29.2322 12.3729 28.896 12.3729 28.896C12.3729 28.896 13.3081 28.3899 13.5643 28.1433C13.5515 28.2074 13.5355 28.265 13.5259 28.3099C13.5131 28.3547 13.4842 28.3931 13.4458 28.4155C13.1608 28.5885 11.9309 29.3315 11.6234 29.4276H11.617Z" fill="#A2AFB8"/>
<path d="M11.2645 28.6397C11.2645 28.6397 11.1492 28.9472 11.1781 29.213C11.1781 29.213 10.9955 29.1618 10.9891 29.0913C10.9827 28.9792 10.9667 28.7262 11.0756 28.5244C11.0756 28.5244 11.1492 28.5917 11.2613 28.6397H11.2645Z" fill="#F6F7EF"/>
<path d="M11.1107 28.0086C11.1107 28.0086 11.1396 28.1079 11.1107 28.3834C11.0979 28.5019 11.4022 28.5947 11.5719 28.5691C11.7417 28.5435 11.9723 28.3866 11.9723 28.3449C11.9723 28.3033 11.9403 28.1912 11.9659 27.9638C11.9915 27.7396 11.1139 28.0118 11.1139 28.0118L11.1107 28.0086Z" fill="#FFD5BD"/>
<path d="M12.6123 22.2373C12.6027 22.2982 12.5835 22.3814 12.5579 22.4775C12.4682 22.8298 12.3081 23.3647 12.3081 23.6689C12.3081 24.0565 12.1127 27.8037 12.1127 27.8037V28.0087C12.1127 28.0567 12.0935 28.1047 12.0551 28.1368C12.007 28.1816 11.9301 28.2393 11.8309 28.2809C11.7636 28.3097 11.6835 28.3289 11.6003 28.3257C11.3024 28.3161 10.9565 28.1015 10.9245 28.0503C10.8925 27.9991 10.822 25.9109 10.8028 25.7796C10.7836 25.6514 10.2679 23.6401 10.7355 22.2661C10.7579 22.2053 10.7804 22.1444 10.8028 22.0868C11.1295 21.3149 11.6611 21.2124 12.0615 21.2669C12.3753 21.3117 12.6091 21.4526 12.6091 21.4526C12.6091 21.4526 12.6572 21.9523 12.6091 22.2405L12.6123 22.2373Z" fill="#69A5BF"/>
<path d="M12.2573 28.2234C12.2573 28.2234 12.0491 28.4636 11.7352 28.5244C11.6552 28.5405 11.953 28.3643 12.0203 28.2971C12.0875 28.2266 12.2573 28.2234 12.2573 28.2234Z" fill="#D3DBDC"/>
<g style="mix-blend-mode:multiply" opacity="0.3">
<path d="M12.5675 22.4615C12.5675 22.4615 12.5643 22.4711 12.5579 22.4775C12.4682 22.8298 12.3081 23.3647 12.3081 23.669C12.3081 24.0565 12.1127 27.8037 12.1127 27.8037V28.0087C12.1127 28.0567 12.0935 28.1048 12.0551 28.1368C12.007 28.1816 11.9301 28.2393 11.8309 28.2809C12.1255 27.3329 11.9654 23.2526 11.9654 23.2526C12.007 23.0925 12.0358 22.9163 12.0583 22.7337C12.1095 22.2693 12.2568 21.7953 12.2568 21.3053C12.2568 20.7288 12.1351 20.2708 12.0647 19.6047C12.0166 19.1723 10.6843 18.583 10.8124 18.6182C11.786 18.8776 11.8309 18.3876 11.8309 18.3876C12.7244 18.4581 13.0543 16.9912 13.0543 16.9912L13.1568 17.2602C13.1728 18.8136 12.6476 22.2565 12.5643 22.4615H12.5675Z" fill="#3F7FA6"/>
</g>
<path d="M15.7284 29.1937C15.7156 29.2577 15.6995 29.3154 15.6899 29.3602C15.6771 29.4051 15.6483 29.4435 15.6099 29.4659C15.5682 29.4915 15.5042 29.53 15.4273 29.5748C14.9821 29.8438 14.0469 30.3947 13.7875 30.478C13.5249 30.5581 13.2655 30.3915 13.1566 30.305C13.1213 30.2762 13.1021 30.2346 13.1021 30.1897V30.0905V30.0488C13.0861 29.751 13.1502 29.5652 13.2014 29.4659C13.2302 29.4083 13.2558 29.3827 13.2558 29.3827L13.9669 29.2321L14.0469 29.2161L14.316 29.0624L14.5594 28.9215L14.8764 28.7677L14.9469 28.7325L15.1551 28.63C15.3569 28.5692 15.5106 28.6204 15.6131 28.7101C15.6643 28.7549 15.7027 28.8126 15.7284 28.8702C15.7636 28.9503 15.7508 29.0816 15.7284 29.1969V29.1937Z" fill="#FFC046"/>
<path d="M15.1494 28.9888C15.1173 29.0176 14.1533 29.482 14.1533 29.482L14.3103 29.1233L14.5537 28.9824L14.8707 28.8254C14.97 28.8254 15.175 28.9568 15.1462 28.9888H15.1494Z" fill="#F6F7EF"/>
<path d="M15.7286 29.1939C15.7157 29.2579 15.6997 29.3156 15.6901 29.3604C15.6773 29.4052 15.6485 29.4437 15.6101 29.4661C15.5684 29.4917 15.5044 29.5301 15.4275 29.575C15.4659 29.386 15.4275 29.2003 15.373 29.0529C15.5012 28.9536 15.578 28.7999 15.6165 28.707C15.6677 28.7519 15.7061 28.8095 15.7318 28.8672C15.767 28.9472 15.7542 29.0786 15.7318 29.1939H15.7286Z" fill="#E5EAE7"/>
<path d="M14.0827 29.4532C14.0827 29.4532 14.3613 29.3635 14.4254 29.277C14.4638 29.2258 14.5311 29.1201 14.5535 29.024C14.5695 28.96 14.5182 28.8607 14.4702 28.8158C14.3901 28.739 14.2684 28.6365 14.1884 28.6365C14.0635 28.6365 13.945 28.6685 13.945 28.6685L13.9033 29.2002L14.0827 29.4564V29.4532Z" fill="#D3DBDC"/>
<path d="M14.1368 29.3955C14.1368 29.3955 14.4763 29.0881 14.4218 28.9567C14.3674 28.8222 14.156 28.771 14.156 28.771L14.0247 28.7454L13.9414 29.1425L14.1368 29.3955Z" fill="#A2AFB8"/>
<path d="M15.4244 29.578C14.9792 29.847 14.044 30.3979 13.7846 30.4811C13.5219 30.5612 13.2625 30.3947 13.1536 30.3082C13.1184 30.2794 13.0992 30.2377 13.0992 30.1929V30.0936V30.052C13.0832 29.7541 13.1472 29.5683 13.1985 29.4691C13.2273 29.7477 13.807 29.7861 14.0184 29.6933C14.4219 29.5139 15.0945 29.2225 15.3187 29.0911C15.3379 29.0815 15.3539 29.0687 15.3699 29.0559C15.4276 29.2032 15.4628 29.389 15.4244 29.578Z" fill="#FF8C36"/>
<path d="M15.6134 28.7101C15.575 28.803 15.4949 28.9567 15.37 29.056C15.3444 28.9919 15.3156 28.9375 15.29 28.8895C15.2131 28.7613 15.0433 28.7357 14.9473 28.7293L15.1554 28.6268C15.3572 28.566 15.5109 28.6172 15.6134 28.7069V28.7101Z" fill="#F6F7EF"/>
<path d="M15.7288 29.1936C15.716 29.2577 15.7 29.3153 15.6904 29.3601C15.6776 29.405 15.6487 29.4434 15.6103 29.4658C15.3252 29.6388 14.0954 30.3818 13.7879 30.4779C13.5253 30.558 13.2659 30.3914 13.157 30.305C13.1218 30.2761 13.1025 30.2345 13.1025 30.1897V30.0904C13.2178 30.1993 13.4677 30.369 13.6726 30.3274C13.9032 30.2825 14.5438 29.9462 14.5438 29.9462C14.5438 29.9462 15.479 29.4402 15.7352 29.1936H15.7288Z" fill="#A2AFB8"/>
<path d="M13.4325 29.6934C13.4325 29.6934 13.3172 30.0009 13.346 30.2667C13.346 30.2667 13.1635 30.2155 13.1571 30.145C13.1507 30.0329 13.1347 29.7799 13.2435 29.5781C13.2435 29.5781 13.3172 29.6422 13.4293 29.6934H13.4325Z" fill="#F6F7EF"/>
<path d="M13.2787 29.0623C13.2787 29.0623 13.3075 29.1616 13.2787 29.4371C13.2659 29.5556 13.5702 29.6484 13.7399 29.6228C13.9097 29.5972 14.1403 29.4371 14.1403 29.3986C14.1403 29.3602 14.1082 29.2449 14.1338 29.0175C14.1595 28.7933 13.2819 29.0655 13.2819 29.0655L13.2787 29.0623Z" fill="#FFD5BD"/>
<path d="M14.8095 22.4391C14.7838 22.6889 14.7614 22.8554 14.7518 22.8971C14.7326 22.9739 14.5789 23.0924 14.3643 23.2013C13.9063 23.4319 13.1857 23.6049 12.9903 23.1853C12.9839 23.1725 12.9775 23.1597 12.9711 23.1437C12.686 22.4391 12.3337 19.3997 12.3337 19.3997C11.4946 18.6438 11.8117 16.9944 11.8117 16.9944L14.4347 17.1865L14.8671 17.2186C15.1682 18.0385 14.9312 21.2316 14.8062 22.4423L14.8095 22.4391Z" fill="#69A5BF"/>
<path d="M14.809 23.2238C14.761 23.5088 14.5047 24.2679 14.5047 24.6554C14.5047 25.0429 14.3094 28.7901 14.3094 28.7901V28.9983C14.3094 29.0464 14.2902 29.088 14.2549 29.12C14.2229 29.1489 14.1749 29.1841 14.1204 29.2129C14.0339 29.261 13.925 29.2994 13.8001 29.309C13.3966 29.3442 13.1564 29.0848 13.1244 29.0336C13.0923 28.9823 13.0219 26.8941 13.0027 26.7628C12.9834 26.6315 12.439 24.5145 12.9738 23.1405C12.9834 23.1149 12.993 23.0924 13.0027 23.07C13.3998 22.1348 14.098 22.1797 14.5015 22.3046C14.6873 22.3622 14.8122 22.4359 14.8122 22.4359C14.8122 22.4551 14.857 22.9419 14.8122 23.2238H14.809Z" fill="#69A5BF"/>
<path d="M14.4213 29.2769C14.4213 29.2769 14.2132 29.5171 13.8993 29.5811C13.8192 29.5971 14.1171 29.421 14.1843 29.3505C14.2516 29.2801 14.4213 29.2769 14.4213 29.2769Z" fill="#D3DBDC"/>
<g style="mix-blend-mode:multiply" opacity="0.3">
<path d="M14.8096 22.4391C14.8096 22.4583 14.8544 22.9452 14.8096 23.2238C14.7615 23.5088 14.5053 24.2679 14.5053 24.6554C14.5053 25.043 14.3099 28.7902 14.3099 28.7902V28.9984C14.3099 29.0464 14.2907 29.088 14.2555 29.1201C14.2235 29.1489 14.1754 29.1841 14.121 29.2129C14.0569 29.0816 13.964 26.8749 14.0089 25.5074C14.0505 24.2775 14.1786 23.906 14.3644 23.195C14.3868 23.1149 14.406 23.0316 14.4284 22.942C14.4637 22.8042 14.4861 22.58 14.4989 22.3014C14.5726 20.7641 14.3772 17.5325 14.3772 17.5325C14.3772 17.5325 14.3996 17.3788 14.4348 17.177L14.8672 17.209C15.1683 18.0289 14.9313 21.2221 14.8064 22.4327L14.8096 22.4391Z" fill="#3F7FA6"/>
</g>
<path d="M13.4059 10.0221C13.4059 10.0221 13.5532 9.74022 14.4116 9.47119C14.4116 9.47119 15.5485 9.57048 15.6446 9.76264C15.7407 9.95481 15.193 10.163 15.113 10.1438C15.0329 10.1246 14.3731 10.1566 14.1874 10.2783C14.0016 10.4032 14.1457 10.4801 14.1457 10.4801C14.1457 10.4801 13.6621 10.6562 13.518 10.7235C13.3739 10.7875 13.092 11.0309 13.092 11.0309C13.092 11.0309 12.317 11.0437 12.5988 10.7875C12.8775 10.5313 13.4123 10.0221 13.4123 10.0221H13.4059Z" fill="#E69E7A"/>
<path d="M18.5013 10.6018L18.0561 10.9445C18.0561 10.9445 17.9088 11.537 17.9184 11.5787C17.928 11.6203 18.0145 11.7388 18.117 11.7004C18.2195 11.6651 18.7511 11.4538 18.7607 11.3513C18.7704 11.2488 18.6935 10.8132 18.6775 10.794C18.6615 10.7748 18.4981 10.5986 18.4981 10.5986L18.5013 10.6018Z" fill="#E69E7A"/>
<path d="M16.3589 11.0823L18.5016 9.83643L18.4952 11.7581L16.3525 13.0039L16.3589 11.0823Z" fill="#D4A36E"/>
<path d="M18.5015 9.83641L16.3589 11.0823L15.4237 10.541L15.1611 10.3905L14.3027 9.89406L16.4454 8.64819L17.3133 9.15103L17.5727 9.30156L18.5015 9.83641Z" fill="#FFE3BD"/>
<path d="M16.3585 11.0823L16.3521 13.0039L14.2959 11.8189L14.3023 9.89404L16.3585 11.0823Z" fill="#F3C895"/>
<path d="M17.5728 9.30141L15.4238 10.5409L15.1611 10.3903L17.3134 9.15088L17.5728 9.30141Z" fill="#E8593A"/>
<path d="M15.1611 10.3936L15.4238 10.5441V11.6811L15.1611 11.5305V10.3936Z" fill="#BB5A31"/>
<path d="M16.8547 12.1263C16.8547 12.1263 16.8387 12.1327 16.8291 12.1359C16.797 12.1551 16.7682 12.1903 16.7554 12.232C16.7426 12.2095 16.7138 12.2031 16.6817 12.2223C16.6497 12.2416 16.6209 12.28 16.6081 12.3184C16.5953 12.296 16.5664 12.2896 16.5344 12.3088C16.5248 12.3152 16.5152 12.3216 16.5088 12.3312C16.528 12.2288 16.5985 12.1199 16.6849 12.0718C16.7682 12.0238 16.8387 12.0494 16.8579 12.1295L16.8547 12.1263Z" fill="#C48455"/>
<path d="M16.7044 12.5779C16.6788 12.5939 16.666 12.5779 16.666 12.5619V12.1936C16.666 12.1936 16.6724 12.1776 16.6788 12.1712C16.6852 12.168 16.6916 12.1712 16.6916 12.1776V12.5427C16.6916 12.5427 16.6916 12.5523 16.7044 12.5459C16.7173 12.5395 16.7173 12.5171 16.7205 12.5171C16.7205 12.5075 16.7269 12.4979 16.7333 12.4979C16.7397 12.4947 16.7461 12.4979 16.7461 12.5075C16.7461 12.5235 16.7365 12.5587 16.7077 12.5747L16.7044 12.5779Z" fill="#C48455"/>
<path d="M17.0983 12.1071L17.0726 12.1232C17.0182 12.1552 16.9766 12.1296 16.9766 12.0687V11.915L17.1976 11.7869V11.9406C17.1976 12.0014 17.1559 12.0783 17.1015 12.1071H17.0983Z" fill="#C48455"/>
<path d="M17.095 12.3409L17.0693 12.357V12.1007L17.095 12.0847V12.3409Z" fill="#C48455"/>
<path d="M17.156 12.3218L17.0118 12.4051C17.0118 12.4051 16.999 12.4051 16.999 12.3987C16.999 12.3923 17.0054 12.3794 17.0118 12.3762L17.156 12.293C17.156 12.293 17.1688 12.293 17.1688 12.2994C17.1688 12.3058 17.1624 12.3154 17.156 12.3218Z" fill="#C48455"/>
<path d="M17.761 11.9822L17.3127 12.2416C17.3127 12.2416 17.2934 12.248 17.287 12.2416C17.2806 12.2352 17.2806 12.2224 17.287 12.2064L17.5112 11.6299C17.5208 11.6011 17.5529 11.5851 17.5625 11.6011L17.7867 11.9213C17.7867 11.9213 17.7931 11.9406 17.7867 11.9566C17.7803 11.9694 17.7706 11.9822 17.761 11.9886V11.9822ZM17.5368 11.6235L17.3095 12.2064C17.3127 12.2128 17.761 11.9534 17.761 11.9534C17.7642 11.9438 17.54 11.6235 17.54 11.6235C17.54 11.6235 17.54 11.6235 17.5368 11.6235Z" fill="#C48455"/>
<path d="M17.5176 11.9086V11.7517L17.556 11.7292V11.9438L17.5208 11.963V11.9086H17.5176ZM17.5176 12.0335V11.9919L17.556 11.9695V12.0111L17.5176 12.0335Z" fill="#C48455"/>
<path d="M17.489 11.3608L16.6562 11.8412V11.2199L17.489 10.7395V11.3608Z" fill="#ECEBE3"/>
<path d="M17.3069 11.348L16.8393 11.617C16.8393 11.617 16.8232 11.617 16.8232 11.6074C16.8232 11.5978 16.8296 11.585 16.8393 11.5786L17.3069 11.3096C17.3069 11.3096 17.3229 11.3096 17.3229 11.3192C17.3229 11.3288 17.3165 11.3416 17.3069 11.348Z" fill="#744B44"/>
<path d="M17.3069 11.2328L16.8393 11.5018C16.8393 11.5018 16.8232 11.5018 16.8232 11.4922C16.8232 11.4826 16.8296 11.4698 16.8393 11.4634L17.3069 11.1943C17.3069 11.1943 17.3229 11.1943 17.3229 11.2039C17.3229 11.2136 17.3165 11.2264 17.3069 11.2328Z" fill="#744B44"/>
<path d="M17.3069 11.1173L16.8393 11.3863C16.8393 11.3863 16.8232 11.3863 16.8232 11.3767C16.8232 11.3671 16.8296 11.3543 16.8393 11.3479L17.3069 11.0789C17.3069 11.0789 17.3229 11.0789 17.3229 11.0885C17.3229 11.0981 17.3165 11.1109 17.3069 11.1173Z" fill="#744B44"/>
<path d="M17.3069 11.0021L16.8393 11.2711C16.8393 11.2711 16.8232 11.2711 16.8232 11.2615C16.8232 11.2519 16.8296 11.2391 16.8393 11.2327L17.3069 10.9636C17.3069 10.9636 17.3229 10.9636 17.3229 10.9732C17.3229 10.9828 17.3165 10.9957 17.3069 11.0021Z" fill="#744B44"/>
<path d="M13.4058 10.0093C13.4058 10.0093 13.7934 9.65703 14.5684 9.60259C14.831 9.58337 15.0745 9.61219 15.1257 9.64743C15.1769 9.68266 15.1193 9.93247 14.8983 9.94208C14.6773 9.95169 14.5908 9.87802 14.5428 9.93567C14.4948 9.99332 14.4659 10.0382 14.4147 10.1054C14.3634 10.1759 14.3282 10.3232 14.3186 10.3328C14.309 10.3424 14.1873 10.4833 14.136 10.4801C14.0848 10.4769 13.3994 10.0221 13.3994 10.0221V10.0093H13.4058Z" fill="#FCC39E"/>
<path d="M19.0819 11.7549C19.0723 11.8606 18.7264 12.1296 18.6143 12.2225C18.5022 12.3154 18.3837 12.2385 18.2331 12.3026C18.1435 12.341 17.9801 12.5556 17.8616 12.7221C17.7783 12.8374 17.7175 12.9335 17.7175 12.9335L17.3428 12.3058C17.3428 12.3058 17.426 12.2097 17.5157 12.0912C17.6086 11.9631 17.7079 11.8062 17.7111 11.7069C17.7207 11.5115 17.8616 10.8485 17.8968 10.7653C17.9289 10.682 18.2556 10.429 18.3612 10.3969C18.4701 10.3649 18.4477 10.5667 18.3612 10.7076C18.2748 10.8517 18.1723 10.8453 18.1723 10.9446C18.1723 11.0439 18.2107 11.2072 18.2331 11.2585C18.2524 11.3097 18.5214 11.2072 18.5662 11.0631C18.6111 10.919 18.5086 10.6596 18.5086 10.6596L18.499 10.6019C18.499 10.6019 18.7904 10.6372 18.9185 10.919C18.9548 11.0023 18.9804 11.0962 18.9954 11.2008C19.005 11.2745 19.0787 11.2617 19.0787 11.4731C19.0787 11.5531 19.0915 11.6492 19.0787 11.7581L19.0819 11.7549Z" fill="#FCC39E"/>
<path d="M10.213 10.5891C10.2227 10.1663 10.3444 9.75315 10.5782 9.40085C10.671 9.26313 10.7799 9.13502 10.9016 9.04855C11.334 8.74749 11.9361 9.08378 11.9746 9.15424C12.013 9.2215 12.0194 8.96207 11.9425 9.91329C11.8657 10.8645 11.5262 12.8918 11.5134 12.9303C11.4973 12.9687 11.2283 13.8751 10.8056 13.9359C10.3828 13.9968 9.92479 13.8975 10.0721 12.61C10.165 11.7997 10.197 11.0375 10.2098 10.5859L10.213 10.5891Z" fill="#FFCE2B"/>
<path d="M10.364 12.7959C10.364 12.7959 11.3537 12.1009 11.9622 11.8639C12.9903 11.4636 13.397 11.1881 13.4867 11.1593C13.5764 11.1305 14.0632 11.6685 13.6469 12.229C13.6469 12.229 12.9711 12.7255 12.7533 12.8824C12.5355 13.0361 10.9149 14.3076 10.4409 13.9233C9.96689 13.539 10.348 12.8344 10.348 12.8344L10.364 12.7959Z" fill="#FFCE2B"/>
<path d="M14.6556 15.8352C14.6716 15.9665 14.8702 17.2155 14.8702 17.2155C14.8702 17.2155 14.6332 17.4301 14.3802 17.539C14.2873 17.5775 14.0279 17.5935 13.6916 17.571C13.1119 17.5326 12.3048 17.3853 11.7571 17.0554C11.2735 16.764 10.9372 16.5141 10.7386 16.3508C10.5945 16.2323 10.5209 16.0497 10.5465 15.864C10.6169 15.3451 10.7611 15.1754 10.8155 14.9768C10.934 14.5444 10.3767 12.2192 10.4536 10.2464C10.4632 10.019 10.7771 9.08055 11.1838 8.94283C11.5906 8.80512 11.8436 8.88198 11.8436 8.88198L12.6187 9.04212C12.6187 9.04212 13.3265 9.38481 13.746 9.63143C14.3129 9.96771 14.8798 10.4481 14.8798 10.4481C14.8798 10.4481 14.9342 10.714 14.9663 11.1047C15.0079 11.5979 15.0207 12.2865 14.8574 12.9014C14.5659 14.0064 14.6428 15.7038 14.6588 15.832L14.6556 15.8352Z" fill="#FFB424"/>
<path d="M13.4994 8.43993C13.493 8.49117 13.4866 8.5264 13.477 8.54562C13.4418 8.61288 13.4225 9.01963 13.4129 9.31748C13.4129 9.35592 13.4129 9.39435 13.4097 9.42958C13.4097 9.46481 13.4097 9.49684 13.4097 9.52566C13.4097 9.60253 13.3617 9.66979 13.2944 9.70181C13.1535 9.76587 12.9613 9.83313 12.6154 9.8075C12.4297 9.79469 11.9621 9.54168 12.0069 9.35912C12.0069 9.34631 12.0133 9.3367 12.0133 9.32069C12.0133 9.31108 12.0133 9.30467 12.0165 9.29506C12.0229 9.24382 12.0293 9.17976 12.0325 9.1093C12.0454 8.85949 12.0389 8.54562 12.0389 8.54562C12.0389 8.54562 12.529 7.5976 12.545 7.57198C12.561 7.54636 13.4866 7.5912 13.5026 7.60401C13.5154 7.61362 13.5282 8.18691 13.5026 8.43993H13.4994Z" fill="#FFD5BD"/>
<g style="mix-blend-mode:multiply" opacity="0.3">
<path d="M13.4989 8.43986C13.4925 8.4911 13.4861 8.52633 13.4765 8.54555C13.4412 8.6128 13.422 9.01955 13.4124 9.31741C13.1882 9.34623 12.9224 8.76333 12.6822 8.85942C12.2018 9.05158 12 8.8434 12 8.8434C12 8.8434 12.9961 7.47262 13.0665 7.43099C13.137 7.38935 13.4316 8.20285 13.5149 8.19324C13.5341 8.19324 13.4316 8.38221 13.4989 8.44306V8.43986Z" fill="#E69E7A"/>
</g>
<path d="M15.5715 6.05698L14.4665 6.5502L14.3384 6.21391L14.0918 5.55414C14.0918 5.55414 14.6555 5.31394 14.8701 5.33956C15.0398 5.35878 15.3505 5.50931 15.5202 5.68546C15.5651 5.7303 15.5907 5.78154 15.6163 5.82318C15.7028 5.97691 15.5715 6.05377 15.5715 6.05377V6.05698Z" fill="#FFEE62"/>
<path d="M15.5202 5.68887C15.5202 5.68887 14.8605 6.08602 14.3384 6.21733L14.0918 5.55756C14.0918 5.55756 14.6555 5.31736 14.8701 5.34298C15.0398 5.36219 15.3505 5.51272 15.5202 5.68887Z" fill="#F9FF9C"/>
<path d="M13.2972 5.64397C13.2556 5.62476 12.6951 5.62476 12.6951 5.62476C12.6951 5.62476 11.8047 6.36139 11.7951 6.42224C11.7855 6.48309 12.1634 7.83466 12.2467 7.84426C12.33 7.85387 13.3164 7.75138 13.3164 7.75138L13.3452 8.64815C13.4189 8.95562 13.7039 9.01007 13.9538 8.97484C14.053 8.95882 14.2836 8.95562 14.3061 8.85954C14.3797 8.55207 14.6231 7.98839 14.5078 7.52719C14.463 7.34463 14.3445 7.05639 14.4246 6.39021C14.4246 6.39021 14.4662 5.84895 13.8705 5.80731C13.278 5.76568 13.2972 5.64397 13.2972 5.64397Z" fill="#FFD5BD"/>
<path d="M13.8803 6.90256C13.8803 6.90256 13.7586 7.13957 13.7778 7.39258C13.797 7.6488 13.7778 7.81214 13.7778 7.81214L13.6177 7.873C13.6177 7.873 13.4031 7.63599 13.0956 7.94346C12.7882 8.25092 12.9515 8.53597 12.4102 8.77297C12.3942 8.77938 12.3782 8.78578 12.3622 8.79219C11.869 8.98755 11.9074 8.67048 11.9074 8.67048C11.9074 8.67048 11.3853 7.51429 11.3533 7.42141C11.3469 7.40219 11.3277 7.32853 11.3053 7.21964C11.2861 7.11074 11.2668 6.96662 11.2668 6.80328C11.2604 6.35169 11.3789 5.75918 11.9362 5.37485C12.897 4.70868 13.6049 5.12824 13.7682 5.2019C13.9315 5.27236 14.1846 5.39086 14.4119 5.86807C14.4119 5.86807 14.4312 5.92572 14.4376 6.0154C14.4568 6.23319 14.4087 6.63673 13.8771 6.89936L13.8803 6.90256Z" fill="#9A7F60"/>
<path d="M13.8804 6.90273C13.8804 6.90273 13.7587 7.13973 13.7779 7.39275C13.7971 7.64897 13.7779 7.81231 13.7779 7.81231L13.6178 7.87316C13.6178 7.87316 13.4032 7.63616 13.0957 7.94362C12.7883 8.25108 12.9516 8.53613 12.4103 8.77313C12.3943 8.77954 12.3783 8.78594 12.3623 8.79235C12.4648 8.64502 12.5769 8.41442 12.6057 8.07814C12.6602 7.40556 12.295 5.8266 13.5217 5.88745C13.8868 5.90667 14.1943 5.95471 14.4441 6.01556C14.4633 6.23335 14.4153 6.6369 13.8836 6.89952L13.8804 6.90273Z" fill="#78594B"/>
<path d="M12.8552 7.18457C12.8616 7.29666 12.679 7.46641 12.679 7.46641C12.679 7.46641 12.2434 7.52726 12 7.46641C11.8015 7.41516 11.4844 7.33189 11.305 7.223C11.2858 7.1141 11.2666 6.96998 11.2666 6.80664C11.4844 6.80664 12.0064 6.81945 12.0289 6.83226C12.0545 6.84828 12.8488 7.07247 12.8552 7.18457Z" fill="#78594B"/>
<path d="M13.6886 7.90497C13.6886 7.90497 13.5861 7.39253 13.4228 7.30286C13.2306 7.19717 13.0641 7.36371 13.0705 7.55908C13.0769 7.75445 13.173 7.99465 13.3395 8.09394C13.5061 8.19322 13.5061 8.09394 13.5061 8.09394L13.6918 7.90818L13.6886 7.90497Z" fill="#FFD5BD"/>
<path d="M14.4664 6.5535C14.4664 6.5535 14.3735 6.74567 13.2173 7.2453C12.8618 7.39903 12.5352 7.44066 12.2565 7.42465C11.6256 7.38942 11.222 7.06594 11.222 7.06594C11.1099 5.51901 12.0547 4.98415 12.6921 4.88807C13.1821 4.81441 14.0436 5.1539 14.2774 5.52222C14.5657 5.9706 14.4664 6.5503 14.4664 6.5503V6.5535Z" fill="#FFEE62"/>
<path d="M11.9847 7.10118C11.9206 7.16203 11.4722 6.98908 11.3857 6.90261C11.3857 6.90261 11.3825 6.44782 11.5075 6.40938C11.5171 6.40938 11.5267 6.40618 11.5395 6.40938C11.6996 6.44141 11.9078 6.5471 11.943 6.61436C11.9783 6.68162 12.0295 7.04032 11.9847 7.10438V7.10118Z" fill="#78594B"/>
<path d="M11.9844 7.10121C11.805 7.06598 11.5167 6.94427 11.4463 6.87381C11.4463 6.87381 11.4463 6.56635 11.5071 6.40621C11.5167 6.40621 11.5264 6.40301 11.5392 6.40621C11.6993 6.43824 11.9075 6.54393 11.9427 6.61118C11.9779 6.67844 12.0292 7.03715 11.9844 7.10121Z" fill="#9A7F60"/>
<path d="M14.4669 6.55345C14.4669 6.55345 14.374 6.74562 13.2178 7.24524C12.8623 7.39898 12.5356 7.44061 12.257 7.4246C12.1769 7.09151 12.084 6.15631 12.9616 5.62145C12.9808 5.60864 13.0032 5.59583 13.0224 5.58622C13.6982 5.2115 14.5245 5.73034 14.4701 6.50221C14.4701 6.53423 14.4669 6.55025 14.4669 6.55025V6.55345Z" fill="#FFCE2B"/>
<g style="mix-blend-mode:multiply" opacity="0.3">
<path d="M13.4578 7.82499C13.4578 7.82499 13.4258 7.7257 13.4578 7.70328C13.4898 7.68086 13.4258 7.34457 13.2848 7.39902C13.1407 7.45667 13.1823 7.6072 13.2176 7.70328C13.2528 7.79936 13.3777 8.04598 13.4642 8.04277C13.5539 8.04277 13.4578 7.82178 13.4578 7.82178V7.82499Z" fill="#E69E7A"/>
</g>
<path d="M13.4027 9.8364C13.2041 9.94209 12.9735 10.0126 12.5315 9.9517C12.0896 9.89085 11.7853 9.53854 11.8429 9.32076C11.875 9.19585 11.9358 9.17343 12.0319 9.10938C12.0287 9.17984 12.0223 9.24389 12.0159 9.29513C12.0127 9.32076 12.0095 9.33997 12.0031 9.35919C11.9582 9.54495 12.429 9.79476 12.6116 9.80758C12.9575 9.8332 13.1497 9.76594 13.2906 9.70188C13.361 9.66986 13.4059 9.5994 13.4059 9.52573C13.4059 9.49691 13.4059 9.46488 13.4059 9.42965L13.4763 9.47129C13.582 9.53534 13.5564 9.50652 13.566 9.56096C13.582 9.63783 13.518 9.77234 13.3995 9.8364H13.4027Z" fill="#FFCE2B"/>
<g style="mix-blend-mode:multiply" opacity="0.3">
<path d="M13.4058 9.52578C13.4058 9.60264 13.3578 9.6699 13.2905 9.70193C13.1496 9.76598 12.9574 9.83324 12.6115 9.80762C12.4258 9.79481 11.9582 9.54179 12.003 9.35923C12.003 9.34642 12.0094 9.33681 12.0094 9.3208C12.0094 9.3208 12.2304 9.70513 12.65 9.74036C13.0695 9.77559 13.345 9.62506 13.4058 9.52257V9.52578Z" fill="#E69E7A"/>
</g>
<g style="mix-blend-mode:multiply" opacity="0.3">
<path d="M14.6554 15.8352C14.6714 15.9665 14.87 17.2156 14.87 17.2156C14.87 17.2156 14.633 17.4301 14.38 17.539C14.2871 17.5775 14.0277 17.5935 13.6914 17.5711C14.2839 17.1035 14.0918 15.6814 14.0982 15.0601C14.1046 14.3395 13.8547 12.421 13.8547 12.421L14.9661 11.1079C15.0077 11.6011 15.0205 12.2897 14.8572 12.9047C14.5658 14.0096 14.6426 15.7071 14.6586 15.8352H14.6554Z" fill="#E69E7A"/>
</g>
<g style="mix-blend-mode:multiply" opacity="0.3">
<path d="M17.8616 12.7253C17.7783 12.8406 17.7175 12.9367 17.7175 12.9367L17.3428 12.309C17.3428 12.309 17.3748 12.2833 17.4613 12.1648L17.4869 12.1328C17.4869 12.1328 17.631 12.1296 17.7335 12.309C17.836 12.4883 17.8936 12.5844 17.8616 12.7317V12.7253Z" fill="#E69E7A"/>
</g>
<path d="M17.8003 13.0422C17.8003 13.0422 17.3616 13.7596 17.2174 13.9838C17.0733 14.208 16.0516 15.9983 15.4687 15.819C14.8858 15.6396 14.9723 14.8421 14.9723 14.8421V14.8005C14.9723 14.8005 15.2894 14.3105 15.6417 13.8589C15.7217 13.7564 15.805 13.6571 15.8851 13.5642C15.9555 13.4842 16.026 13.4105 16.0901 13.3464C16.9036 12.5778 17.1758 12.1678 17.2463 12.107C17.3167 12.0461 17.9733 12.3632 17.8003 13.039V13.0422Z" fill="#FFCE2B"/>
<g style="mix-blend-mode:multiply" opacity="0.3">
<path d="M16.0935 15.0281C16.0935 15.0281 16.0807 15.0409 16.0743 15.0505C15.6451 15.4797 15.8789 13.5292 15.8885 13.5708C15.959 13.4908 15.9238 13.5228 15.9878 13.4587C16.0807 13.6701 16.3626 14.9224 16.0967 15.0281H16.0935Z" fill="#E69E7A"/>
</g>
<path d="M16.0934 15.028C16.071 15.297 16.0005 15.5853 15.818 15.6942C15.7059 15.7582 15.5874 15.8095 15.4656 15.8191C15.1806 15.8383 14.8827 15.6173 14.6393 14.743C14.2934 13.4939 13.8515 12.421 13.8515 12.421C13.8515 12.421 13.781 11.5722 14.066 11.1303C14.3511 10.6915 14.7963 10.384 14.8571 10.4353C14.918 10.4833 15.0685 10.6306 15.3536 11.5402C15.5041 12.0206 15.7027 12.8085 15.8532 13.4491C15.8628 13.4907 15.8724 13.5323 15.882 13.5708C16.0037 14.0864 16.0902 14.4803 16.0902 14.4996C16.0902 14.5188 16.1126 14.7654 16.0902 15.0312L16.0934 15.028Z" fill="#FFCE2B"/>
<defs>
<linearGradient id="paint0_linear_2793_52072" x1="17.4993" y1="41.9987" x2="17.4993" y2="21.1199" gradientUnits="userSpaceOnUse">
<stop stop-color="#8BBFD3"/>
<stop offset="0.31" stop-color="#C5E2EC"/>
<stop offset="0.47" stop-color="#DEF2F7"/>
</linearGradient>
<linearGradient id="paint1_linear_2793_52072" x1="0.419392" y1="29.5143" x2="34.5832" y2="29.5143" gradientUnits="userSpaceOnUse">
<stop offset="0.26" stop-color="#B3DAE4"/>
<stop offset="0.29" stop-color="#AED6E2"/>
<stop offset="0.49" stop-color="#94C5D7"/>
<stop offset="0.6" stop-color="#8BBFD3"/>
</linearGradient>
</defs>
</svg>
