<svg width="112" height="112" viewBox="0 0 112 112" fill="none" xmlns="http://www.w3.org/2000/svg">
<g clip-path="url(#clip0_1900_28535)">
<rect width="112" height="112" rx="56" fill="#F1F0F4"/>
<path d="M55.9998 64.9999C68.8865 64.9999 79.3332 54.5532 79.3332 41.6666C79.3332 28.7799 68.8865 18.3333 55.9998 18.3333C43.1132 18.3333 32.6665 28.7799 32.6665 41.6666C32.6665 54.5532 43.1132 64.9999 55.9998 64.9999Z" fill="#87868C"/>
<path d="M56.0001 76.6667C32.6201 76.6667 13.5801 92.3467 13.5801 111.667C13.5801 112.973 14.6067 114 15.9134 114H96.0867C97.3934 114 98.4201 112.973 98.4201 111.667C98.4201 92.3467 79.3801 76.6667 56.0001 76.6667Z" fill="#87868C"/>
</g>
<rect x="1" y="1" width="110" height="110" rx="55" stroke="#87868C" stroke-width="2"/>
<defs>
<clipPath id="clip0_1900_28535">
<rect width="112" height="112" rx="56" fill="white"/>
</clipPath>
</defs>
</svg>
