<svg width="25" height="24" viewBox="0 0 25 24" fill="none" xmlns="http://www.w3.org/2000/svg">
<path d="M5.057 19.5293H19.943C21.6368 19.5293 22.5 18.6824 22.5 17.0049V8.47883C22.5 6.8013 21.6368 5.96254 19.943 5.96254H17.614C16.9707 5.96254 16.7752 5.83225 16.4088 5.42508L15.7573 4.69218C15.3502 4.2443 14.9349 4 14.0961 4H10.8469C10.0081 4 9.59283 4.2443 9.18567 4.69218L8.5342 5.42508C8.16775 5.8241 7.96417 5.96254 7.32899 5.96254H5.057C3.35505 5.96254 2.5 6.8013 2.5 8.47883V17.0049C2.5 18.6824 3.35505 19.5293 5.057 19.5293ZM12.5 17.127C10.0326 17.127 8.05375 15.1564 8.05375 12.6726C8.05375 10.1971 10.0326 8.22638 12.5 8.22638C14.9674 8.22638 16.9381 10.1971 16.9381 12.6726C16.9381 15.1564 14.9593 17.127 12.5 17.127ZM17.4837 9.6759C17.4837 9.12215 17.9723 8.63355 18.5423 8.63355C19.1042 8.63355 19.5847 9.12215 19.5847 9.6759C19.5847 10.2541 19.1042 10.7182 18.5423 10.7264C17.9723 10.7264 17.4837 10.2622 17.4837 9.6759ZM12.5 15.8893C14.2752 15.8893 15.7085 14.4642 15.7085 12.6726C15.7085 10.8893 14.2752 9.45603 12.5 9.45603C10.7248 9.45603 9.28339 10.8893 9.28339 12.6726C9.28339 14.4642 10.7329 15.8893 12.5 15.8893Z" fill="#333333"/>
</svg>
