<svg width="41" height="42" viewBox="0 0 41 42" fill="none" xmlns="http://www.w3.org/2000/svg">
<path opacity="0.2" d="M18.3197 41.5282L1.7172 31.9435C0.515474 31.2494 0.666836 30.0369 2.05509 29.2358L17.9848 18.7138C19.3731 17.9126 21.4753 17.8255 22.6771 18.5196L39.2826 29.4299C40.4843 30.1241 40.333 31.3365 38.9447 32.1407L23.015 41.3371C21.6267 42.1383 19.5245 42.2254 18.3227 41.5313L18.3197 41.5282Z" fill="url(#paint0_linear_2793_52617)"/>
<path d="M38.2613 26.4914L22.6847 16.1712C21.483 15.4771 19.3823 15.5658 17.9925 16.3654L2.75381 26.4914L0.913 25.1658V28.3398C0.879364 28.8107 1.14387 29.2618 1.72179 29.5966L18.3243 39.1814C19.526 39.8755 21.6267 39.7868 23.0165 38.9872L38.9462 29.7908C39.6664 29.3749 40.0562 28.8459 40.0929 28.3398V25.1658L38.2521 26.4914H38.2613Z" fill="url(#paint1_linear_2793_52617)"/>
<path d="M18.3197 36.0105L1.7172 26.4212C0.515474 25.727 0.666836 24.5146 2.05509 23.7135L17.9848 14.514C19.3731 13.7128 21.4753 13.6242 22.6771 14.3198L39.2826 23.9046C40.4843 24.5987 40.333 25.8111 38.9447 26.6153L23.015 35.8117C21.6267 36.6129 19.5245 36.7016 18.3227 36.0059L18.3197 36.0105Z" fill="#E9F6FB"/>
<path d="M5.14551 22.2058L8.87759 22.1875L12.6112 22.1814L20.0769 22.1707L27.5426 22.1814L31.2762 22.1875L35.0082 22.2058L31.2762 22.2226L27.5426 22.2288L20.0769 22.241L12.6112 22.2288L8.87759 22.2226L5.14551 22.2058Z" fill="#1A2F36"/>
<path d="M31.4367 16.2676H26.084V22.1952H31.4367V16.2676Z" fill="#EBEBEB"/>
<path d="M34.2008 16.2676H31.4365V22.1952H34.2008V16.2676Z" fill="#DCDBDB"/>
<path d="M34.01 21.787C33.8051 21.365 33.6018 20.943 33.4015 20.518L32.8021 19.2429L32.2104 17.9617C32.0147 17.5336 31.8206 17.1055 31.6279 16.6743C31.8328 17.0963 32.0362 17.5183 32.2364 17.9433L32.8358 19.2184L33.4275 20.4997C33.6232 20.9278 33.8173 21.3574 34.01 21.787Z" fill="#EBEBEB"/>
<path d="M34.01 16.6758C33.8173 17.1054 33.6232 17.535 33.4275 17.9631L32.8358 19.2444L32.2364 20.5195C32.0362 20.9445 31.8328 21.3665 31.6279 21.7885C31.8206 21.3573 32.0147 20.9292 32.2104 20.5011L32.8021 19.2199L33.4015 17.9448C33.6033 17.5197 33.8051 17.0978 34.01 16.6758Z" fill="#EBEBEB"/>
<path d="M31.4367 7.31421H26.084V12.8336H31.4367V7.31421Z" fill="#EBEBEB"/>
<path d="M34.2008 7.31421H31.4365V12.8336H34.2008V7.31421Z" fill="#DCDBDB"/>
<path d="M29.2139 8.59544H29.1007H29.0166L28.9677 8.49759L28.8989 8.59544L28.8072 8.39209L28.72 8.59544H28.4693H28.3546L28.3133 8.45937L28.2736 8.59544H28.2002V7.31421H29.2139V8.59544Z" fill="#DCDBDB"/>
<path d="M34.01 12.4819C33.8051 12.089 33.6018 11.6961 33.4015 11.3001L32.8021 10.1136L32.2104 8.92108C32.0147 8.52356 31.8206 8.12299 31.6279 7.72241C31.8328 8.11534 32.0362 8.50827 32.2364 8.90426L32.8358 10.0922L33.4275 11.2848C33.6232 11.6823 33.8173 12.0813 34.01 12.4819Z" fill="#EBEBEB"/>
<path d="M34.01 7.72241C33.8173 8.12299 33.6232 8.52203 33.4275 8.92108L32.8358 10.1136L32.2364 11.3016C32.0362 11.6961 31.8328 12.0905 31.6279 12.4834C31.8206 12.0829 32.0147 11.6838 32.2104 11.2848L32.8021 10.0922L33.4015 8.90579C33.6033 8.50827 33.8051 8.11534 34.01 7.72241Z" fill="#EBEBEB"/>
<path d="M31.085 11.8965H30.4902V12.4912H31.085V11.8965Z" fill="white"/>
<path d="M11.6603 11.4897H6.30762V17.0091H11.6603V11.4897Z" fill="#EBEBEB"/>
<path d="M14.4264 11.4897H11.6621V17.0091H14.4264V11.4897Z" fill="#DCDBDB"/>
<path d="M14.2346 16.6575C14.0297 16.2645 13.8264 15.8716 13.6261 15.4756L13.0267 14.2892L12.4351 13.0966C12.2394 12.6991 12.0452 12.2985 11.8525 11.8979C12.0574 12.2909 12.2608 12.6838 12.461 13.0798L13.0604 14.2678L13.6521 15.4603C13.8478 15.8578 14.0419 16.2569 14.2346 16.6575Z" fill="#EBEBEB"/>
<path d="M14.2346 11.8979C14.0419 12.2985 13.8478 12.6976 13.6521 13.0966L13.0604 14.2892L12.461 15.4771C12.2608 15.8716 12.0574 16.2661 11.8525 16.659C12.0452 16.2584 12.2394 15.8594 12.4351 15.4603L13.0267 14.2678L13.6261 13.0813C13.8264 12.6838 14.0297 12.2909 14.2346 11.8979Z" fill="#EBEBEB"/>
<path d="M11.3086 16.072H10.7139V16.6668H11.3086V16.072Z" fill="white"/>
<path d="M31.7932 12.8335H26.4404V16.2659H31.7932V12.8335Z" fill="#DCDBDB"/>
<path d="M34.5572 12.8335H31.793V16.2674H34.5572V12.8335Z" fill="#C7C7C6"/>
<path d="M29.5718 14.1147H29.4587H29.3731L29.3242 14.0169L29.2569 14.1147L29.1636 13.9129L29.0765 14.1147H28.8257H28.7111L28.6698 13.9802L28.6316 14.1147H28.5566V12.8335H29.5718V14.1147Z" fill="white"/>
<path d="M34.3674 16.0625C34.1625 15.8133 33.9592 15.5626 33.7589 15.3118L33.1596 14.5581L32.5679 13.7997C32.3722 13.5475 32.178 13.2921 31.9854 13.0383C32.1902 13.2875 32.3936 13.5383 32.5939 13.789L33.1932 14.5443L33.7849 15.3027C33.9806 15.5549 34.1748 15.8087 34.3674 16.0625Z" fill="#DCDBDB"/>
<path d="M34.3674 13.0383C34.1748 13.2937 33.9806 13.5475 33.7849 13.7997L33.1932 14.5581L32.5939 15.3134C32.3936 15.5641 32.1902 15.8148 31.9854 16.0641C32.178 15.8087 32.3722 15.5549 32.5679 15.3027L33.1596 14.5443L33.7589 13.789C33.9592 13.5383 34.1625 13.2875 34.3674 13.0383Z" fill="#DCDBDB"/>
<path d="M11.3088 8.05737H5.95605V11.4898H11.3088V8.05737Z" fill="#DCDBDB"/>
<path d="M14.0748 8.05737H11.3105V11.4913H14.0748V8.05737Z" fill="#C7C7C6"/>
<path d="M9.08746 9.33707H8.97432H8.88871L8.84131 9.23922L8.77251 9.33707L8.67924 9.13526L8.5921 9.33707H8.34135H8.22821L8.1854 9.20253L8.14718 9.33707H8.07227V8.05737H9.08746V9.33707Z" fill="white"/>
<path d="M13.883 11.2864C13.6781 11.0372 13.4748 10.7864 13.2745 10.5357L12.6752 9.78195L12.0835 9.02361C11.8878 8.77134 11.6936 8.51601 11.501 8.26221C11.7059 8.51142 11.9092 8.76216 12.1095 9.0129L12.7088 9.76819L13.3005 10.5265C13.4962 10.7773 13.6904 11.0311 13.883 11.2864Z" fill="#DCDBDB"/>
<path d="M13.883 8.26074C13.6904 8.51607 13.4962 8.76987 13.3005 9.02214L12.7088 9.78048L12.1095 10.5358C11.9092 10.7865 11.7059 11.0372 11.501 11.2865C11.6936 11.0311 11.8878 10.7773 12.0835 10.5251L12.6752 9.76672L13.2745 9.01297C13.4748 8.7607 13.6781 8.50996 13.883 8.26074Z" fill="#DCDBDB"/>
<path d="M10.9494 17.009H5.59668V22.1951H10.9494V17.009Z" fill="#DCDBDB"/>
<path d="M13.7135 17.009H10.9492V22.1951H13.7135V17.009Z" fill="#C7C7C6"/>
<path d="M8.72809 18.2903H8.61495H8.52933L8.48041 18.1924L8.4116 18.2903L8.31987 18.0884L8.23272 18.2903H7.98198H7.86731L7.82603 18.1557L7.78781 18.2903H7.71289V17.009H8.72809V18.2903Z" fill="white"/>
<path d="M13.5236 21.8877C13.3188 21.5116 13.1154 21.1324 12.9151 20.7533L12.3158 19.6142L11.7241 18.4691C11.5284 18.0869 11.3342 17.7031 11.1416 17.3193C11.3465 17.6954 11.5498 18.0746 11.7501 18.4538L12.3494 19.5928L12.9411 20.738C13.1368 21.1187 13.331 21.5024 13.5236 21.8877Z" fill="#DCDBDB"/>
<path d="M13.5236 17.3179C13.331 17.7032 13.1368 18.0854 12.9411 18.4676L12.3494 19.6128L11.7501 20.7518C11.5498 21.131 11.3465 21.5086 11.1416 21.8863C11.3342 21.501 11.5284 21.1188 11.7241 20.7365L12.3158 19.5914L12.9151 18.4523C13.1154 18.0732 13.3188 17.6955 13.5236 17.3179Z" fill="#DCDBDB"/>
<path opacity="0.2" d="M20.5 28.6976C28.9811 28.6976 35.8564 27.9132 35.8564 26.9455C35.8564 25.9778 28.9811 25.1934 20.5 25.1934C12.0189 25.1934 5.14355 25.9778 5.14355 26.9455C5.14355 27.9132 12.0189 28.6976 20.5 28.6976Z" fill="#87B2B9"/>
<path d="M14.3698 0H12.3027V22.1952H14.3698V0Z" fill="#263238"/>
<path d="M27.8474 0H25.7803V22.1952H27.8474V0Z" fill="#455B64"/>
<path d="M25.7812 2.17725H13.1523V2.92336H25.7812V2.17725Z" fill="#37474F"/>
<path d="M25.7812 6.99487H13.1523V7.74098H25.7812V6.99487Z" fill="#37474F"/>
<path d="M25.7812 11.814H13.1523V12.5601H25.7812V11.814Z" fill="#37474F"/>
<path d="M25.7812 16.6316H13.1523V17.3777H25.7812V16.6316Z" fill="#37474F"/>
<path d="M25.7812 21.4507H13.1523V22.1968H25.7812V21.4507Z" fill="#37474F"/>
<path d="M18.5283 2.95996H14.6143V6.99476H18.5283V2.95996Z" fill="#EBEBEB"/>
<path d="M20.5476 2.95996H18.5264V6.99476H20.5476V2.95996Z" fill="#DCDBDB"/>
<path d="M16.9027 3.89566H16.8201H16.7574L16.7222 3.8238L16.6718 3.89566L16.6045 3.74735L16.5403 3.89566H16.3568H16.2743L16.2437 3.79781L16.2146 3.89566H16.1611V2.95996H16.9027V3.89566Z" fill="#DCDBDB"/>
<path d="M20.408 6.73786C20.2582 6.45043 20.1099 6.16299 19.9631 5.87403L19.5243 5.0056L19.0916 4.13412C18.9479 3.84363 18.8057 3.55161 18.665 3.25806C18.8149 3.54549 18.9632 3.83293 19.11 4.12189L19.5488 4.99032L19.9814 5.8618C20.1252 6.15229 20.2673 6.44431 20.408 6.73786Z" fill="#EBEBEB"/>
<path d="M20.408 3.25806C20.2673 3.55161 20.1252 3.84363 19.9814 4.13412L19.5488 5.0056L19.11 5.87403C18.9632 6.16299 18.8149 6.45043 18.665 6.73786C18.8057 6.44431 18.9479 6.15229 19.0916 5.8618L19.5243 4.99032L19.9631 4.12189C20.1099 3.83293 20.2582 3.54549 20.408 3.25806Z" fill="#EBEBEB"/>
<path d="M18.2701 6.30981H17.8359V6.74403H18.2701V6.30981Z" fill="white"/>
<path d="M20.9931 9.30347H17.0791V11.8139H20.9931V9.30347Z" fill="#DCDBDB"/>
<path d="M23.0124 9.30347H20.9912V11.8139H23.0124V9.30347Z" fill="#C7C7C6"/>
<path d="M19.3681 10.2407H19.2855H19.2228L19.1876 10.1673L19.1372 10.2407L19.0699 10.0909L19.0057 10.2407H18.8222H18.7381L18.7091 10.1413L18.68 10.2407H18.625V9.30347H19.3681V10.2407Z" fill="white"/>
<path d="M22.8728 11.6642C22.723 11.4822 22.5747 11.2988 22.4279 11.1153L21.9891 10.5634L21.5565 10.0099C21.4127 9.8249 21.2705 9.6399 21.1299 9.45337C21.2797 9.63531 21.428 9.81878 21.5748 10.0022L22.0136 10.5542L22.4463 11.1077C22.59 11.2927 22.7322 11.4777 22.8728 11.6642Z" fill="#DCDBDB"/>
<path d="M22.8728 9.45337C22.7322 9.6399 22.59 9.8249 22.4463 10.0099L22.0136 10.5634L21.5748 11.1153C21.428 11.2988 21.2797 11.4822 21.1299 11.6642C21.2705 11.4777 21.4127 11.2927 21.5565 11.1077L21.9891 10.5542L22.4279 10.0022C22.5747 9.81878 22.723 9.63531 22.8728 9.45337Z" fill="#DCDBDB"/>
<path d="M34.9291 26.3967C34.9108 26.2301 32.9874 22.0852 32.8146 21.9751C32.7489 21.9323 32.1297 22.1769 31.3881 22.4949C31.3805 22.498 31.3729 22.501 31.3652 22.5056C31.2123 22.5714 28.3945 23.3282 28.3945 23.3282L29.6437 26.0405L32.5761 25.1935L32.6204 25.172C32.6204 25.172 34.0653 26.4288 34.2701 26.5313C34.472 26.6291 34.9475 26.5634 34.9291 26.3967Z" fill="#CA5F50"/>
<path d="M30.8281 22.6617L32.1124 25.3235L32.5741 25.1905L32.62 25.1691C32.62 25.1691 34.0648 26.4258 34.2682 26.5283C34.4715 26.6292 34.947 26.5634 34.9271 26.3968C34.9088 26.2286 32.9854 22.0853 32.8127 21.9752C32.7469 21.9308 32.1277 22.1755 31.3862 22.4935C31.3785 22.4965 31.3709 22.5011 31.3632 22.5042C31.3266 22.521 31.1186 22.5806 30.8281 22.6617Z" fill="#EBEBEB"/>
<path d="M34.9442 26.4182C34.9259 26.25 32.9994 22.0592 32.8236 21.9446C32.7579 21.9018 32.131 22.1464 31.3818 22.4644L32.6157 25.1706C32.6157 25.1706 34.0712 26.4457 34.2761 26.5497C34.4825 26.6506 34.9626 26.5864 34.9442 26.4182Z" fill="#FFC829"/>
<path d="M34.7504 26.4351C34.4094 25.741 33.1037 22.9064 32.8194 22.1939C32.8163 22.1878 32.8209 22.1863 32.824 22.1924C33.1756 22.8727 34.4599 25.718 34.7626 26.429C34.7672 26.4443 34.7565 26.4489 34.7504 26.4351Z" fill="#263238"/>
<path d="M34.0037 26.3479C33.9196 26.1843 33.9242 25.9855 33.9823 25.8494C34.0373 25.7179 34.1367 25.5819 34.285 25.5207C34.2896 25.5192 34.2926 25.5268 34.2896 25.5299C34.0327 25.6965 33.9073 26.0574 34.0128 26.3463C34.0144 26.3494 34.0067 26.3524 34.0037 26.3479Z" fill="#263238"/>
<path d="M32.8127 25.4106C32.6797 25.1308 32.6292 24.7593 32.779 24.4795C32.7852 24.4688 32.8005 24.4765 32.8005 24.4872C32.7867 24.8021 32.8005 25.088 32.8509 25.3999C32.854 25.4213 32.8219 25.4305 32.8127 25.4106Z" fill="#263238"/>
<path d="M32.9973 25.5881C32.8642 25.3083 32.8138 24.9368 32.9636 24.657C32.9697 24.6463 32.985 24.654 32.985 24.6647C32.9713 24.9796 32.985 25.2655 33.0355 25.5774C33.037 25.5988 33.0064 25.608 32.9973 25.5881Z" fill="#263238"/>
<path d="M33.1828 25.7671C33.0498 25.4873 32.9993 25.1158 33.1492 24.836C33.1553 24.8253 33.1706 24.8329 33.1706 24.8436C33.1568 25.1586 33.1706 25.4445 33.221 25.7564C33.2226 25.7778 33.192 25.7869 33.1828 25.7671Z" fill="#263238"/>
<path d="M33.3664 25.9443C33.2334 25.6645 33.1829 25.293 33.3328 25.0132C33.3389 25.0025 33.3542 25.0102 33.3542 25.0209C33.3404 25.3358 33.3542 25.6217 33.4046 25.9336C33.4077 25.955 33.3756 25.9642 33.3664 25.9443Z" fill="#263238"/>
<path d="M32.2331 22.6801C32.0894 22.3636 32.5802 22.1404 32.7239 22.4553C32.8691 22.7718 32.3783 22.9966 32.2331 22.6801Z" fill="#263238"/>
<path d="M32.6046 25.8464C32.7299 25.6048 32.7467 25.3174 32.7941 25.0529C32.7987 25.0254 32.7712 25.0101 32.7483 25.0131C32.7467 25.0086 32.7422 25.0055 32.736 25.0086C32.5006 25.1355 32.2682 25.3617 32.1352 25.5941C32.0526 25.7378 32.0205 25.9702 32.204 26.0589C32.3752 26.1415 32.5312 25.9886 32.6046 25.8464ZM32.3767 25.9672C32.0572 26.0803 32.1658 25.6966 32.2315 25.5926C32.2728 25.5253 32.3232 25.4626 32.3737 25.403C32.4792 25.2761 32.6 25.1676 32.7177 25.0529C32.6871 25.1813 32.6672 25.3113 32.6412 25.4397C32.6107 25.5926 32.5526 25.9045 32.3767 25.9672Z" fill="#263238"/>
<path d="M32.0967 24.0929C31.9239 24.1999 31.9805 24.4277 32.0768 24.5623C32.2327 24.7809 32.4881 24.9812 32.7357 25.0836C32.7419 25.0867 32.7464 25.0821 32.748 25.0775C32.7709 25.0791 32.7969 25.0592 32.7893 25.0332C32.7159 24.7748 32.67 24.4904 32.5186 24.2626C32.43 24.1296 32.2603 23.992 32.0967 24.0929ZM32.5966 24.6632C32.6364 24.7886 32.6685 24.9155 32.7128 25.0408C32.5844 24.9384 32.4529 24.8421 32.3352 24.7274C32.2786 24.6724 32.222 24.6158 32.1746 24.5531C32.0997 24.4568 31.9529 24.0853 32.2817 24.1648C32.4605 24.2091 32.5507 24.5134 32.5966 24.6632Z" fill="#263238"/>
<path d="M24.6953 14.4805C24.6953 14.4805 24.7473 16.1042 24.9904 16.9038C24.9904 16.9038 25.2564 17.0429 25.3359 17.0934C25.3359 17.0934 23.3178 21.9247 23.4324 23.7839C23.4707 24.3939 24.1602 25.3954 24.8574 25.8281C26.0912 26.5956 32.1121 25.9229 32.1121 25.9229L31.2391 22.3024C31.2391 22.3024 27.4321 22.5149 27.3358 22.3085C27.2134 22.0471 27.9718 20.0151 28.5772 18.3639C28.6384 18.1973 29.2469 17.5811 29.1766 16.4681C29.1078 15.3841 28.6522 14.4805 28.6522 14.4805H24.6953Z" fill="#37474F"/>
<path d="M30.5451 22.706C29.7149 22.6907 29.0375 22.7611 28.2074 22.7611C27.9979 22.7611 27.7884 22.7611 27.5805 22.7611C27.4765 22.7611 27.371 22.7611 27.2671 22.7611C27.1937 22.7611 27.1218 22.758 27.05 22.7412C26.9857 22.7259 26.92 22.6984 26.8833 22.6418C26.8283 22.5593 26.8573 22.4553 26.8772 22.3651C26.9185 22.1694 26.9659 21.9752 27.0179 21.7826C27.2273 20.9982 27.501 20.2323 27.7578 19.4617C27.8909 19.0657 28.0224 18.6682 28.1554 18.2722C28.1875 18.1759 28.2196 18.0795 28.2609 17.9863C28.2991 17.9007 28.345 17.8181 28.3908 17.7371C28.4826 17.5796 28.5636 17.4221 28.6171 17.2478C28.8419 16.5094 28.6263 15.7449 28.3633 15.0492C28.3281 14.956 28.2914 14.8627 28.2532 14.7694C28.2502 14.7633 28.241 14.7664 28.2425 14.7725C28.4826 15.5079 28.7669 16.2739 28.6064 17.0582C28.5682 17.2432 28.5055 17.4206 28.4153 17.5857C28.3694 17.6698 28.319 17.7524 28.2746 17.8364C28.2288 17.9221 28.1921 18.0123 28.1584 18.104C28.0178 18.4939 27.8924 18.8899 27.7609 19.2828C27.4979 20.0641 27.2227 20.8438 27.0041 21.6389C26.9491 21.8376 26.8986 22.0364 26.8543 22.2367C26.8206 22.385 26.7472 22.5853 26.8757 22.7076C26.9705 22.7978 27.1188 22.8085 27.2411 22.8085C27.4475 22.81 27.6554 22.8069 27.8618 22.8069C28.7042 22.8039 30.4441 22.7336 30.5481 22.732C30.5649 22.7351 30.5634 22.706 30.5451 22.706Z" fill="#263238"/>
<path d="M31.4743 25.7561C31.3933 25.3326 31.3153 24.9076 31.2205 24.4871C31.1272 24.0651 31.0248 23.6462 30.9162 23.2273C30.8857 23.1096 30.8536 22.9918 30.8214 22.8741C30.8062 22.8175 30.7909 22.7625 30.7756 22.7059C30.7588 22.6494 30.7465 22.5913 30.7236 22.5378C30.7205 22.5316 30.7129 22.5347 30.7129 22.5408C30.719 22.6478 30.7496 22.7595 30.771 22.8649C30.7924 22.9674 30.8107 23.0698 30.8321 23.1707C30.875 23.3802 30.9193 23.5897 30.9652 23.7991C31.0569 24.218 31.1609 24.6339 31.2679 25.0498C31.329 25.2852 31.3902 25.5222 31.4514 25.7576C31.4559 25.7729 31.4758 25.7699 31.4743 25.7561Z" fill="#263238"/>
<path d="M24.125 20.4005L28.3998 18.8517C28.4595 18.6866 28.5191 18.5245 28.5787 18.364C28.6399 18.1973 29.2484 17.5812 29.1781 16.4681C29.1093 15.3841 28.6552 14.479 28.6552 14.479H24.6983C24.6983 14.479 24.7503 16.1042 24.9934 16.9023C24.9934 16.9023 25.2595 17.043 25.339 17.0919C25.3359 17.095 24.6693 18.6896 24.125 20.4005Z" fill="#263238"/>
<path d="M17.6268 26.591C17.7874 26.6399 22.3527 26.4885 22.524 26.3723C22.5897 26.3295 22.6065 25.6629 22.6035 24.8572C22.6035 24.848 22.6035 24.8403 22.6035 24.8312C22.6035 24.6645 22.2258 21.8804 22.2258 21.8804L19.0304 21.9767L19.6572 24.8954L19.6603 24.9458C19.6603 24.9458 17.9387 25.7852 17.7645 25.9335C17.5917 26.0803 17.4663 26.5436 17.6268 26.591Z" fill="#CA5F50"/>
<path d="M17.6269 26.5926C17.7874 26.6415 22.3528 26.4902 22.524 26.374C22.5898 26.3296 22.6066 25.6645 22.6035 24.8588V24.8328C22.602 24.787 22.5745 24.5454 22.5347 24.2197L19.5365 24.3359L19.6558 24.897L19.6588 24.9475C19.6588 24.9475 17.9373 25.7869 17.763 25.9352C17.5917 26.0804 17.4664 26.5437 17.6269 26.5926Z" fill="#EBEBEB"/>
<path d="M17.5934 26.6108C17.7554 26.6597 22.3666 26.5053 22.5379 26.3891C22.6036 26.3447 22.6204 25.672 22.6174 24.8586L19.6452 24.9488C19.6452 24.9488 17.9068 25.7974 17.731 25.9457C17.5567 26.0955 17.4298 26.5634 17.5934 26.6108Z" fill="#FFC829"/>
<path d="M17.6532 26.4242C18.4253 26.3799 21.5443 26.2713 22.3103 26.2866C22.3164 26.2866 22.3164 26.2912 22.3103 26.2912C21.5459 26.3524 18.4269 26.4349 17.6532 26.4365C17.6364 26.438 17.6364 26.4258 17.6532 26.4242Z" fill="#263238"/>
<path d="M18.0216 25.7713C18.2051 25.7575 18.387 25.8386 18.4895 25.9441C18.5888 26.0465 18.676 26.1902 18.676 26.3508C18.676 26.3553 18.6668 26.3553 18.6668 26.3508C18.6133 26.0496 18.3289 25.7927 18.0216 25.7805C18.017 25.7805 18.0155 25.7713 18.0216 25.7713Z" fill="#263238"/>
<path d="M19.347 25.036C19.6558 25.0207 20.0182 25.1185 20.2185 25.3647C20.2261 25.3739 20.2124 25.3846 20.2032 25.38C19.9188 25.2454 19.6497 25.146 19.3424 25.0727C19.3225 25.0696 19.3256 25.0375 19.347 25.036Z" fill="#263238"/>
<path d="M19.1123 25.1368C19.4211 25.1215 19.7835 25.2194 19.9838 25.4655C19.9914 25.4747 19.9776 25.4854 19.9685 25.4808C19.6841 25.3463 19.415 25.2469 19.1077 25.1735C19.0863 25.1704 19.0909 25.1383 19.1123 25.1368Z" fill="#263238"/>
<path d="M18.8769 25.2393C19.1858 25.224 19.5481 25.3219 19.7484 25.568C19.7561 25.5772 19.7423 25.5879 19.7331 25.5833C19.4487 25.4488 19.1797 25.3494 18.8723 25.276C18.8509 25.2714 18.8555 25.2393 18.8769 25.2393Z" fill="#263238"/>
<path d="M18.6406 25.3402C18.9494 25.3249 19.3118 25.4227 19.5121 25.6689C19.5197 25.6781 19.506 25.6888 19.4968 25.6842C19.2124 25.5496 18.9433 25.4502 18.636 25.3769C18.6146 25.3723 18.6192 25.3402 18.6406 25.3402Z" fill="#263238"/>
<path d="M22.089 25.5605C22.436 25.5498 22.4528 26.0895 22.1058 26.1002C21.7587 26.1093 21.7419 25.5696 22.089 25.5605Z" fill="#263238"/>
<path d="M19.0266 24.6752C19.2009 24.8847 19.4593 25.0116 19.684 25.1568C19.707 25.1721 19.733 25.1523 19.7391 25.1293C19.7437 25.1293 19.7498 25.1263 19.7482 25.1201C19.7222 24.8541 19.6045 24.5514 19.4409 24.3389C19.34 24.2074 19.1382 24.0866 18.9868 24.2227C18.8431 24.3496 18.9242 24.5529 19.0266 24.6752ZM19.0037 24.4199C19.0235 24.082 19.3354 24.3312 19.4058 24.4306C19.4516 24.4948 19.4899 24.5652 19.525 24.6355C19.6015 24.7823 19.6534 24.9351 19.7146 25.088C19.6076 25.0101 19.496 24.9413 19.3874 24.8679C19.2575 24.7792 18.993 24.6049 19.0037 24.4199Z" fill="#263238"/>
<path d="M20.84 24.8879C20.8094 24.6861 20.577 24.6509 20.4149 24.6876C20.1535 24.7472 19.8691 24.9047 19.6795 25.0927C19.6749 25.0973 19.6765 25.1019 19.6811 25.1065C19.6719 25.1279 19.678 25.1585 19.7055 25.1615C19.9716 25.1937 20.2513 25.2609 20.5204 25.2105C20.6779 25.1814 20.8706 25.0775 20.84 24.8879ZM20.1199 25.1264C19.9884 25.1141 19.8584 25.0943 19.7269 25.0866C19.8706 25.0087 20.0098 24.923 20.1611 24.8588C20.233 24.8282 20.3079 24.7977 20.3844 24.7778C20.5021 24.7457 20.9011 24.7533 20.7008 25.027C20.5908 25.1784 20.2758 25.1417 20.1199 25.1264Z" fill="#263238"/>
<path d="M19.396 24.6737H22.9706C22.9706 24.6737 22.3331 19.8072 22.5456 19.4892C22.6389 19.3501 27.2791 19.8148 28.6368 18.344C29.8783 17.0001 28.6154 14.4805 28.6154 14.4805H24.8053C24.8053 14.4805 24.7273 15.5599 24.5225 15.9926C24.4353 16.1776 20.1788 15.9146 19.5138 17.1301C18.6255 18.7538 19.396 24.6737 19.396 24.6737Z" fill="#37474F"/>
<path d="M22.5942 23.9933C22.1906 23.9811 21.787 23.9658 21.3833 23.9658C20.9782 23.9658 20.573 23.975 20.1694 23.9903C20.0547 23.9949 19.7183 24.0102 19.6633 24.0147C19.6083 24.0193 19.5532 24.0178 19.4982 24.0285C19.4921 24.03 19.4936 24.0377 19.4982 24.0392C19.5853 24.0545 20.5011 24.0652 20.7014 24.0652C21.1035 24.0667 21.5056 24.0545 21.9077 24.0407C22.1356 24.0331 22.3649 24.0239 22.5927 24.0147C22.6065 24.0147 22.608 23.9949 22.5942 23.9933Z" fill="#263238"/>
<path d="M24.9621 15.647C24.9774 15.5323 24.9927 15.4177 25.0065 15.3045C25.0371 15.0431 25.0646 14.7801 25.0722 14.5171C25.0722 14.4973 25.0432 14.4988 25.0417 14.5171C25.0172 14.7205 24.9988 14.9238 24.9759 15.1272C24.953 15.329 24.9362 15.5339 24.8979 15.7326C24.8872 15.7923 24.8612 15.8932 24.7848 15.8947C24.6808 15.8962 24.6625 15.7571 24.6533 15.6822C24.6304 15.4926 24.6334 15.303 24.6426 15.1134C24.6533 14.8978 24.6808 14.6823 24.7053 14.4682C24.7068 14.4606 24.6931 14.4591 24.6915 14.4667C24.6029 14.8841 24.5172 15.3229 24.5922 15.7495C24.6059 15.832 24.6441 15.9222 24.7313 15.9513C24.7328 15.9513 24.7343 15.9513 24.7359 15.9528C24.7343 15.9543 24.7328 15.9574 24.7328 15.9604C24.7328 15.9727 24.7328 15.9849 24.7328 15.9971C24.7328 16.0078 24.7328 16.017 24.7328 16.0277C24.7328 16.0491 24.7313 16.0705 24.7328 16.0919C24.7343 16.1118 24.7603 16.1118 24.7634 16.095C24.768 16.0935 24.7726 16.0904 24.7741 16.0843C24.7833 16.0445 24.7787 16.0002 24.771 15.9604C24.8215 15.962 24.8674 15.936 24.8979 15.8916C24.9438 15.8183 24.9499 15.728 24.9621 15.647Z" fill="#263238"/>
<path d="M24.5837 15.9558C24.8772 16.15 25.1478 16.3885 25.4032 16.6301C25.4139 16.6392 25.4001 16.656 25.3894 16.6469C25.1096 16.4313 24.8237 16.2203 24.5561 15.9894C24.5363 15.9711 24.5607 15.9405 24.5837 15.9558Z" fill="#263238"/>
<path d="M27.7149 16.1637C27.6324 16.1622 27.5513 16.1591 27.4688 16.1454C27.3969 16.1316 27.3251 16.1117 27.2547 16.0903C27.1232 16.0506 26.9627 16.0047 26.8664 15.9008C26.7685 15.7953 26.7028 15.65 26.6447 15.5201C26.5805 15.3763 26.5316 15.2219 26.5147 15.066C26.5147 15.0583 26.5025 15.0599 26.504 15.066C26.5178 15.2296 26.5377 15.3886 26.5851 15.546C26.608 15.624 26.6401 15.7005 26.6753 15.7739C26.7104 15.8457 26.7487 15.9191 26.8022 15.9772C26.9092 16.0919 27.0835 16.1484 27.2318 16.1775C27.3877 16.2081 27.5605 16.2081 27.7165 16.1805C27.7287 16.179 27.7241 16.1637 27.7149 16.1637Z" fill="#263238"/>
<path d="M22.1616 19.2598C22.1845 19.1681 22.2441 19.11 22.3374 19.0931C22.4383 19.0748 22.5453 19.0855 22.6462 19.087C22.8848 19.0886 23.1233 19.0916 23.3602 19.0931C24.299 19.0947 25.2439 19.0687 26.1673 18.8837C26.6153 18.7935 27.0602 18.6696 27.4791 18.4877C27.8369 18.3333 28.1947 18.1208 28.4179 17.7905C28.6747 17.4113 28.6946 16.916 28.6855 16.4726C28.6763 15.994 28.5983 15.517 28.4561 15.0614C28.4194 14.9452 28.3781 14.8305 28.3323 14.7174C28.3292 14.7097 28.3399 14.7036 28.343 14.7113C28.531 15.147 28.6595 15.6011 28.7145 16.0735C28.742 16.3044 28.7527 16.5368 28.7466 16.7692C28.7405 16.9955 28.7221 17.2263 28.6579 17.445C28.4148 18.2752 27.4853 18.6177 26.733 18.8286C25.8279 19.0824 24.883 19.1528 23.9473 19.1665C23.4764 19.1742 23.0055 19.1681 22.5346 19.1604C22.4444 19.1589 22.2961 19.1344 22.2441 19.2277C22.2166 19.2766 22.2105 19.3439 22.2013 19.3989C22.1906 19.4647 22.183 19.5319 22.1784 19.5992C22.16 19.85 22.1738 20.1007 22.1891 20.3499C22.2197 20.8575 22.2548 21.3651 22.2946 21.8727C22.3343 22.3834 22.3924 22.8925 22.4291 23.4016C22.4383 23.527 22.4505 23.6508 22.4628 23.7762C22.4643 23.79 22.4398 23.793 22.4383 23.7793C22.3084 22.7702 22.2136 21.758 22.1478 20.7428C22.131 20.4921 22.1127 20.2414 22.1065 19.9906C22.0989 19.749 22.102 19.4952 22.1616 19.2598Z" fill="#263238"/>
<path d="M24.4506 19.4464C24.8053 19.4434 25.0989 19.4159 25.4001 19.3776C25.6967 19.3409 25.9933 19.2997 26.2868 19.2492C26.799 19.1621 27.3234 19.0657 27.8066 18.87C28.0665 18.7645 28.3249 18.6285 28.5389 18.445C28.545 18.4404 28.5527 18.4481 28.5466 18.4542C28.1796 18.8089 27.7164 19.0183 27.2286 19.1514C26.6721 19.3027 26.0942 19.3914 25.5224 19.451C25.1814 19.4862 24.7915 19.4877 24.4491 19.4816C24.4261 19.4816 24.4277 19.4464 24.4506 19.4464Z" fill="#263238"/>
<path d="M25.5578 10.1826C25.5685 11.3522 25.252 13.1273 24.8132 13.9881C24.4997 14.6027 22.636 15.8105 21.6453 16.0842C21.2951 16.1805 21.1208 14.725 21.2921 14.3688C21.3945 14.1547 23.2583 13.1212 23.4494 12.8353C23.7383 12.4026 24.327 11.1718 24.7612 10.1199C24.989 9.56493 25.5501 9.45638 25.5578 10.1826Z" fill="#FDD5BE"/>
<path d="M21.9036 14.0355C21.9036 14.0355 21.3547 13.9698 21.107 13.9942C20.8593 14.0187 19.971 14.4483 20.0521 14.6455C20.1576 14.9009 20.7202 14.7541 20.9862 14.6455C20.9862 14.6455 21.2309 15.2357 21.6559 15.2174C22.0825 15.1975 21.9036 14.0355 21.9036 14.0355Z" fill="#CA5F50"/>
<path d="M21.9694 15.9605C21.7752 16.0477 20.8548 16.3657 20.578 16.3978C20.3013 16.4299 19.5002 16.462 19.4543 16.2525C19.4084 16.0431 19.6423 16.0156 19.6423 16.0156C19.6423 16.0156 19.3014 15.9758 19.2754 15.7602C19.2494 15.5462 19.6148 15.5141 19.6148 15.5141C19.6148 15.5141 19.2678 15.4483 19.2571 15.2312C19.2464 15.0156 19.6194 15.0447 19.6194 15.0447C19.6194 15.0447 19.2999 14.9988 19.3656 14.8169C19.4451 14.5983 20.0246 14.7496 20.3273 14.6915C20.3961 14.6778 21.7003 14.3276 21.7003 14.3276L21.9694 15.9605Z" fill="#CA5F50"/>
<path d="M19.5861 15.0415C20.0126 15.1516 20.219 15.1256 20.6334 14.9941C20.641 14.9911 20.6471 15.0033 20.6395 15.0064C20.2465 15.173 19.9927 15.2418 19.5815 15.0629C19.5585 15.0538 19.5662 15.0369 19.5861 15.0415Z" fill="#263238"/>
<path d="M19.5794 15.5033C20.0334 15.5797 20.2567 15.5537 20.7001 15.4467C20.7062 15.4452 20.7092 15.4559 20.7031 15.4574C20.2765 15.598 20.0227 15.6623 19.5794 15.5262C19.5595 15.5201 19.5595 15.5002 19.5794 15.5033Z" fill="#263238"/>
<path d="M19.6652 16.0078C20.1101 16.0491 20.3562 16.0322 20.7736 15.8732C20.7828 15.8702 20.7905 15.8839 20.7797 15.8885C20.37 16.0919 20.0627 16.1163 19.6652 16.0231C19.6377 16.0154 19.6377 16.0047 19.6652 16.0078Z" fill="#263238"/>
<path d="M20.1037 14.7051C20.3682 14.8671 20.7076 14.7036 20.9737 14.6179C20.9936 14.6118 21.0058 14.6256 21.0088 14.6424C21.1281 14.8824 21.3651 15.1867 21.6449 15.2295C21.6525 15.231 21.6525 15.2433 21.6433 15.2417C21.3376 15.2371 21.0792 14.9574 20.966 14.6852C20.6954 14.7769 20.3468 14.9268 20.1022 14.7066C20.1007 14.7066 20.1022 14.7036 20.1037 14.7051Z" fill="#263238"/>
<path d="M23.9775 11.4271L25.4636 12.4072C25.4636 12.4072 25.6609 10.4593 25.5569 9.87071C25.4407 9.20717 25.1273 9.41204 24.7558 9.9334C24.3827 10.4548 23.9775 11.4271 23.9775 11.4271Z" fill="#FFC829"/>
<path opacity="0.1" d="M23.9775 11.4271L25.4636 12.4072C25.4636 12.4072 25.6609 10.4593 25.5569 9.87071C25.4407 9.20717 25.1273 9.41204 24.7558 9.9334C24.3827 10.4548 23.9775 11.4271 23.9775 11.4271Z" fill="#010101"/>
<path d="M24.2073 11.1933C24.4137 11.2927 24.9901 11.678 25.0849 11.7407C25.1354 11.7743 25.3311 11.915 25.3815 11.9471C25.3876 11.9517 25.38 11.9608 25.3739 11.9563C25.2775 11.8936 25.1736 11.8416 25.0757 11.7804C24.9763 11.7178 24.3785 11.3493 24.2012 11.201C24.1981 11.1979 24.2027 11.1903 24.2073 11.1933Z" fill="#263238"/>
<path d="M25.5757 10.6581C25.5772 10.6505 25.5879 10.652 25.5879 10.6596C25.5895 10.8263 25.5879 10.9929 25.5834 11.1581C25.6063 11.074 25.6201 10.9883 25.6277 10.9012C25.6277 10.8966 25.6338 10.8981 25.6338 10.9012C25.6308 11.0006 25.6109 11.1015 25.5818 11.1978C25.5788 11.314 25.5742 11.4302 25.5681 11.5449C25.5528 11.84 25.5406 12.135 25.5084 12.4286C25.5069 12.4439 25.4886 12.4515 25.4763 12.4423C25.4259 12.4072 25.377 12.369 25.328 12.3307C25.3234 12.3261 25.328 12.317 25.3342 12.32C25.38 12.343 25.4244 12.3674 25.4687 12.3934C25.4763 12.109 25.4977 11.8231 25.513 11.5388C25.5299 11.2467 25.5482 10.9517 25.5757 10.6581Z" fill="#263238"/>
<path d="M29.2039 15.0507L24.4123 15.7158C24.426 15.809 24.1585 11.9256 25.0881 9.4885C25.1507 9.32185 25.8816 9.05123 26.2561 9.31267C27.8967 10.4532 29.2115 15.1118 29.2039 15.0507Z" fill="#FFC829"/>
<path opacity="0.1" d="M26.3701 9.39841L25.0522 9.59258C25.0537 9.58494 25.0568 9.57729 25.0614 9.57118L26.3487 9.38159C26.3549 9.38618 26.3625 9.39229 26.3701 9.39841ZM26.7325 9.747L24.9131 10.0161C24.91 10.0237 24.9085 10.0299 24.907 10.0375L26.7493 9.76688C26.7447 9.76076 26.7386 9.75312 26.7325 9.747ZM27.0368 10.1262L24.7954 10.4564C24.7938 10.4641 24.7923 10.4702 24.7908 10.4778L27.0505 10.146C27.0459 10.1384 27.0413 10.1323 27.0368 10.1262ZM27.2967 10.5115L24.699 10.8937C24.6975 10.9013 24.696 10.9074 24.6945 10.9151L27.3074 10.5298C27.3043 10.5237 27.2997 10.5176 27.2967 10.5115ZM27.5275 10.9013L24.6211 11.3294C24.6195 11.3371 24.618 11.3432 24.618 11.3508L27.5382 10.9212C27.5336 10.9136 27.5306 10.9074 27.5275 10.9013ZM27.737 11.2927L24.5553 11.7606C24.5553 11.7682 24.5538 11.7743 24.5523 11.782L27.7462 11.3126C27.7446 11.3065 27.7416 11.2988 27.737 11.2927ZM27.9327 11.6872L24.5049 12.1917C24.5049 12.1994 24.5033 12.2055 24.5033 12.2131L27.9419 11.7071C27.9388 11.701 27.9358 11.6933 27.9327 11.6872ZM28.1146 12.0847L24.4636 12.6229C24.4636 12.6305 24.4621 12.6366 24.4621 12.6443L28.1238 12.1046C28.1208 12.0969 28.1177 12.0908 28.1146 12.0847ZM28.2859 12.4822L24.433 13.0495C24.433 13.0571 24.4315 13.0632 24.4315 13.0709L28.2935 12.5021C28.292 12.496 28.2889 12.4899 28.2859 12.4822ZM28.4495 12.8813L24.4101 13.476C24.4101 13.4837 24.4101 13.4898 24.4085 13.4974L28.4571 12.9011C28.4541 12.895 28.4525 12.8874 28.4495 12.8813ZM28.6039 13.2819L24.3948 13.9011C24.3948 13.9087 24.3948 13.9148 24.3948 13.9225L28.6115 13.3017C28.6085 13.2956 28.6069 13.2895 28.6039 13.2819ZM28.7522 13.684L24.3887 14.3261C24.3887 14.3337 24.3887 14.3399 24.3887 14.3475L28.7583 13.7038C28.7552 13.6962 28.7537 13.6901 28.7522 13.684ZM28.8929 14.0861L24.3887 14.7496V14.7695L28.9005 14.1059C28.8974 14.0998 28.8944 14.0922 28.8929 14.0861ZM29.0274 14.4897L24.3948 15.1716C24.3948 15.1792 24.3948 15.1853 24.3948 15.193L29.0335 14.5096C29.032 14.5035 29.0289 14.4958 29.0274 14.4897ZM29.1558 14.8949L24.4085 15.5936C24.4085 15.6012 24.4085 15.6073 24.4085 15.615L29.1604 14.9163C29.1589 14.9086 29.1574 14.901 29.1558 14.8949Z" fill="#010101"/>
<path opacity="0.1" d="M25.5156 11.0081L26.2694 10.9011C26.2694 10.9011 26.41 11.6748 26.41 11.6962C26.41 11.7176 26.0477 12.0111 26.014 11.9989C25.9804 11.9867 25.6242 11.8888 25.6135 11.8659C25.6028 11.8445 25.5156 11.0081 25.5156 11.0081Z" fill="#010101"/>
<path d="M24.4094 12.3459H19.7432V17.5121H24.4094V12.3459Z" fill="#FFC829"/>
<path opacity="0.1" d="M24.4094 12.3459H19.7432V17.5121H24.4094V12.3459Z" fill="#010101"/>
<path d="M17.3336 17.5125H19.7432V12.3463H17.3336V17.5125Z" fill="#FFC829"/>
<path d="M21.6807 13.4621H21.78H21.8534L21.8962 13.3764L21.9559 13.4621L22.0354 13.2847L22.1118 13.4621H22.3305H22.4298L22.4665 13.3443L22.5002 13.4621H22.5659V12.3459H21.6807V13.4621Z" fill="white"/>
<g opacity="0.1">
<path d="M17.5 17.1559C17.6789 16.789 17.8547 16.4205 18.0305 16.0505L18.5534 14.939L19.0687 13.8229C19.2399 13.4499 19.4096 13.0768 19.5763 12.7007C19.3974 13.0676 19.2216 13.4361 19.0457 13.8061L18.5228 14.9176L18.0076 16.0337C17.8379 16.4083 17.6682 16.7814 17.5 17.1559Z" fill="#010101"/>
<path d="M17.5 12.7021C17.6682 13.0767 17.8364 13.4513 18.0076 13.8244L18.5228 14.9405L19.0457 16.052C19.22 16.422 19.3974 16.7905 19.5763 17.1574C19.4081 16.7828 19.2399 16.4082 19.0687 16.0352L18.5534 14.9191L18.0305 13.8076C17.8562 13.4376 17.6789 13.0691 17.5 12.7021Z" fill="#010101"/>
</g>
<path d="M25.1835 13.4636H20.5187L19.7451 12.3459H24.4098L25.1835 13.4636Z" fill="#FFC829"/>
<g opacity="0.2">
<path d="M25.1835 13.4636H20.5187L19.7451 12.3459H24.4098L25.1835 13.4636Z" fill="#010101"/>
</g>
<path d="M18.9693 13.4636H16.5674L17.3425 12.3459H19.7445L18.9693 13.4636Z" fill="#FFC829"/>
<path opacity="0.1" d="M18.9693 13.4636H16.5674L17.3425 12.3459H19.7445L18.9693 13.4636Z" fill="#010101"/>
<path d="M25.3369 10.1152C25.5724 10.1382 26.0112 9.80181 26.1289 9.45322C26.1365 9.42876 26.0632 9.20554 25.9852 8.9288C25.9393 8.76062 25.8919 8.57257 25.8598 8.39827C25.8537 8.36311 24.8125 8.85847 24.8125 8.85847C24.8125 8.85847 24.9853 9.20554 25.0373 9.50979C25.0418 9.53578 25.0434 9.55872 25.0418 9.58318C25.0418 9.58624 25.0418 9.59082 25.0418 9.59541C25.0449 9.7376 25.0846 10.0923 25.3369 10.1152Z" fill="#FDD5BE"/>
<path d="M25.0418 9.58473C25.0418 9.58779 25.0418 9.59238 25.0434 9.59697C25.0785 9.59544 25.1152 9.59085 25.1565 9.5832C25.7986 9.45478 25.8246 8.61693 25.8216 8.40747C25.632 8.47016 24.8125 8.86156 24.8125 8.86156C24.8125 8.86156 24.9853 9.20862 25.0373 9.51288C25.0403 9.53887 25.0434 9.5618 25.0418 9.58473Z" fill="#263238"/>
<path d="M25.8212 7.0054C25.997 7.37845 25.9542 8.53584 25.7141 8.82633C25.3655 9.24984 24.7112 9.3798 24.332 8.941C23.9635 8.51596 24.0446 7.00845 24.3213 6.73478C24.7295 6.33267 25.5628 6.45499 25.8212 7.0054Z" fill="#FDD5BE"/>
<path d="M24.8185 7.84031C24.8185 7.83725 24.8246 7.8449 24.8246 7.84795C24.82 7.92593 24.8277 8.01613 24.8965 8.04365C24.898 8.04518 24.898 8.04824 24.895 8.04824C24.8109 8.03295 24.8017 7.91217 24.8185 7.84031Z" fill="#263238"/>
<path d="M24.8917 7.76085C25.0171 7.75474 25.0186 8.00701 24.9024 8.01159C24.7878 8.01771 24.7862 7.76544 24.8917 7.76085Z" fill="#263238"/>
<path d="M24.3679 7.85556C24.3679 7.8525 24.3618 7.85862 24.3618 7.8632C24.3648 7.94118 24.3557 8.03138 24.2853 8.05738C24.2838 8.0589 24.2838 8.06196 24.2853 8.06196C24.3725 8.0482 24.3832 7.92895 24.3679 7.85556Z" fill="#263238"/>
<path d="M24.2975 7.77441C24.1721 7.76524 24.1645 8.01751 24.2807 8.02516C24.3953 8.03433 24.403 7.78206 24.2975 7.77441Z" fill="#263238"/>
<path d="M24.9898 7.64454C24.9562 7.6369 24.9256 7.62314 24.8919 7.61091C24.8553 7.59715 24.8231 7.59103 24.7987 7.55739C24.7849 7.53905 24.791 7.50694 24.8063 7.49318C24.8445 7.45954 24.8935 7.46413 24.9393 7.47789C24.9883 7.49318 25.0234 7.51764 25.051 7.56045C25.08 7.60326 25.0357 7.65524 24.9898 7.64454Z" fill="#263238"/>
<path d="M24.1999 7.64917C24.2351 7.64306 24.2657 7.63236 24.2993 7.62318C24.3375 7.61248 24.3696 7.60789 24.3956 7.57579C24.4094 7.55897 24.4078 7.52686 24.3926 7.51157C24.3574 7.47488 24.3069 7.47641 24.2611 7.48711C24.2106 7.49934 24.1754 7.52075 24.1433 7.56203C24.1128 7.60178 24.154 7.65682 24.1999 7.64917Z" fill="#263238"/>
<path d="M24.8967 8.5633C24.8783 8.58164 24.86 8.60764 24.8309 8.60916C24.8034 8.61222 24.7713 8.59999 24.7468 8.59082C24.7438 8.58929 24.7422 8.59235 24.7438 8.5954C24.7636 8.62445 24.8064 8.64433 24.8431 8.63668C24.8783 8.63057 24.8951 8.59999 24.9043 8.56788C24.9058 8.56177 24.8997 8.56024 24.8967 8.5633Z" fill="#263238"/>
<path d="M24.8128 8.32952C24.77 8.39679 24.7058 8.43502 24.637 8.44878C24.6064 8.45489 24.5728 8.45642 24.5422 8.45336C24.5361 8.45336 24.5299 8.45336 24.5238 8.45183C24.5177 8.45183 24.5131 8.45031 24.507 8.44878C24.4978 8.44725 24.4933 8.4396 24.4917 8.43196C24.4917 8.4289 24.4917 8.42737 24.4917 8.42431V8.4182C24.4902 8.35857 24.4948 8.26684 24.4948 8.26684C24.4734 8.27754 24.3618 8.32952 24.3633 8.29741C24.3771 8.0375 24.3923 7.74853 24.4596 7.49321C24.4611 7.48403 24.4749 7.48709 24.4734 7.49474C24.4703 7.74548 24.4229 7.99316 24.4153 8.2439C24.4504 8.23014 24.5085 8.20415 24.5407 8.20415C24.5498 8.20721 24.5269 8.37998 24.5299 8.4075C24.5299 8.4075 24.5299 8.40903 24.5299 8.41055C24.6309 8.42279 24.7073 8.39221 24.8036 8.32341C24.8113 8.31882 24.8174 8.32341 24.8128 8.32952Z" fill="#263238"/>
<path d="M24.5781 8.4242C24.5781 8.4242 24.6316 8.49606 24.705 8.52052C24.7325 8.5297 24.7616 8.53428 24.7906 8.52511C24.8533 8.50829 24.8533 8.45172 24.8426 8.4028C24.8335 8.36305 24.8136 8.32788 24.8136 8.32788C24.8136 8.32788 24.7234 8.4135 24.5781 8.4242Z" fill="#263238"/>
<path d="M24.7051 8.52056C24.7326 8.52973 24.7616 8.53432 24.7907 8.52514C24.8534 8.50833 24.8534 8.45176 24.8427 8.40283C24.7754 8.41048 24.7097 8.45634 24.7051 8.52056Z" fill="#F496B8"/>
<path d="M24.1592 7.12015C24.2005 7.02077 24.2494 6.92139 24.309 6.89999C24.3686 6.88011 24.4084 7.02536 24.5445 7.033C24.7279 7.04371 24.8151 6.87552 25.0704 6.85412C25.4374 6.82507 25.6025 7.13085 25.6162 7.65221C25.6285 8.11853 25.9098 8.15981 25.9098 8.15981C25.9098 8.15981 26.0703 7.13085 25.7783 6.79449C25.4863 6.4566 24.8197 6.31288 24.3778 6.6416C24.2142 6.76086 24.1592 7.12015 24.1592 7.12015Z" fill="#263238"/>
<path d="M25.6725 7.97786C25.6725 7.97786 25.8819 7.58035 26.0593 7.65068C26.2366 7.72101 26.1113 8.27447 25.9247 8.37232C25.7397 8.46864 25.6465 8.29893 25.6465 8.29893L25.6725 7.97786Z" fill="#FDD5BE"/>
<path d="M26.0194 7.80811C26.0224 7.80811 26.024 7.81116 26.0209 7.81269C25.891 7.88455 25.8359 8.02062 25.8007 8.15823C25.8344 8.10319 25.8864 8.06802 25.9613 8.10777C25.9659 8.1093 25.9628 8.11542 25.9582 8.11542C25.9001 8.11083 25.8619 8.12459 25.8298 8.17504C25.8069 8.21021 25.7931 8.25302 25.7793 8.29124C25.7748 8.305 25.7518 8.30042 25.7549 8.28513C25.7549 8.2836 25.7549 8.2836 25.7549 8.28207C25.7289 8.11083 25.8344 7.84939 26.0194 7.80811Z" fill="#263238"/>
<path d="M26.8939 10.2101C27.3709 11.2727 28.4258 13.4498 28.1552 14.2693C27.799 15.3442 25.9352 16.5306 25.4536 16.8624C25.2442 17.0076 24.1984 15.6668 24.2626 15.4022C24.3268 15.1377 26.2854 13.5859 26.3908 13.4116C26.4963 13.2373 26.053 11.4714 25.978 10.4853C25.8832 9.24073 26.4902 9.31106 26.8939 10.2101Z" fill="#FDD5BE"/>
<path d="M23.7803 16.1207C23.8369 16.003 23.7757 15.9724 23.5678 16.0749C23.3568 16.1773 22.6229 16.7522 22.4425 16.4785C22.2621 16.2033 23.3155 15.4052 23.6748 15.263C24.0341 15.1208 24.6655 15.0168 24.6655 15.0168C24.4928 15.2141 24.1166 15.7308 23.7803 16.1207Z" fill="#FDD5BE"/>
<path d="M25.9632 16.4464C25.4541 16.9815 24.8532 17.6802 24.0505 17.9095C23.8931 17.9539 23.7799 17.9019 23.7799 17.9019C23.4221 18.0105 23.2631 17.8744 23.2631 17.8744C22.8993 17.8744 22.7555 17.7123 22.7555 17.7123C22.7555 17.7123 22.3351 17.8362 22.2174 17.5931C22.0859 17.3224 22.702 17.2017 23.0017 16.928C23.6866 16.3011 24.4847 15.2171 24.6636 15.0168L25.9632 16.4464Z" fill="#FDD5BE"/>
<path d="M24.1839 16.775C23.979 16.9555 23.7818 17.1389 23.5524 17.2903C23.3017 17.4569 23.0326 17.5747 22.7605 17.7031C22.7513 17.7077 22.7574 17.7199 22.7651 17.7169C23.2925 17.564 23.8322 17.2001 24.19 16.7842C24.2007 16.775 24.1931 16.7659 24.1839 16.775Z" fill="#263238"/>
<path d="M24.6231 17.1344C24.4137 17.2995 24.0437 17.587 23.2624 17.8668C23.2594 17.8683 23.2609 17.8729 23.2639 17.8713C23.7945 17.7567 24.2363 17.5121 24.6308 17.1436C24.643 17.1329 24.6369 17.1237 24.6231 17.1344Z" fill="#263238"/>
<path d="M24.8547 17.3315C24.4877 17.5976 24.2232 17.7199 23.7829 17.9003C23.7799 17.9018 23.7814 17.9064 23.7844 17.9049C24.3058 17.7535 24.4786 17.6389 24.8654 17.3438C24.8776 17.3315 24.8684 17.3208 24.8547 17.3315Z" fill="#263238"/>
<path d="M26.0596 11.8399L27.8378 11.9255C27.8378 11.9255 27.0137 10.1504 26.6253 9.69634C26.1865 9.18568 26.0214 9.52204 25.9679 10.1596C25.9144 10.7972 26.0596 11.8399 26.0596 11.8399Z" fill="#FFC829"/>
<path opacity="0.1" d="M26.0596 11.8399L27.8378 11.9255C27.8378 11.9255 27.0137 10.1504 26.6253 9.69634C26.1865 9.18568 26.0214 9.52204 25.9679 10.1596C25.9144 10.7972 26.0596 11.8399 26.0596 11.8399Z" fill="#010101"/>
<path d="M26.1372 11.522C26.365 11.5021 27.0561 11.5388 27.1708 11.5449C27.2304 11.5479 27.472 11.5694 27.5316 11.5709C27.5392 11.5709 27.5377 11.5831 27.5301 11.5831C27.4154 11.5785 27.2992 11.5862 27.1845 11.5831C27.0668 11.5801 26.365 11.5678 26.1372 11.5311C26.1326 11.5296 26.1326 11.522 26.1372 11.522Z" fill="#263238"/>
<path d="M27.0425 10.363C27.0395 10.3554 27.0502 10.3508 27.0532 10.3584C27.1404 10.5006 27.2229 10.6443 27.304 10.7896C27.281 10.7055 27.2489 10.626 27.2107 10.5449C27.2092 10.5419 27.2138 10.5388 27.2168 10.5419C27.2658 10.629 27.2994 10.7269 27.3239 10.8232C27.3804 10.9241 27.4355 11.0266 27.489 11.129C27.6266 11.3904 27.7672 11.6504 27.888 11.9194C27.8941 11.9332 27.8834 11.9485 27.8681 11.9485C27.807 11.9439 27.7458 11.9363 27.6847 11.9271C27.6786 11.9256 27.677 11.9164 27.6847 11.9149C27.7351 11.9103 27.7871 11.9103 27.8376 11.9087C27.6984 11.6595 27.5715 11.4042 27.4401 11.1519C27.3024 10.8935 27.1679 10.6306 27.0425 10.363Z" fill="#263238"/>
<path d="M25.951 11.0831C25.9311 10.9914 25.9128 10.8996 25.8975 10.8064C25.8975 10.8048 25.9005 10.8033 25.9005 10.8064C25.9173 10.8736 25.9326 10.9409 25.9464 11.0082C25.9387 10.8706 25.9342 10.733 25.9357 10.5954C25.9357 10.5939 25.9387 10.5939 25.9387 10.5954C25.9678 10.8018 25.9846 11.0097 26.0091 11.2177C26.032 11.421 26.0519 11.6243 26.0718 11.8292C26.1115 11.8369 26.1528 11.8445 26.1925 11.8522C26.2002 11.8537 26.1987 11.8644 26.191 11.8644C26.1467 11.8644 26.1008 11.8644 26.0565 11.8659C26.0458 11.8659 26.0351 11.8613 26.0335 11.8491C25.9968 11.5968 25.9678 11.34 25.951 11.0831Z" fill="#263238"/>
<path d="M18.8583 21.0977H12.125V26.6614H18.8583V21.0977Z" fill="#FFC829"/>
<path d="M21.5264 21.0977H18.8584V26.6614H21.5264V21.0977Z" fill="#FFC829"/>
<path opacity="0.1" d="M21.5264 21.0977H18.8584V26.6614H21.5264V21.0977Z" fill="#010101"/>
<path d="M21.343 26.2792C21.1458 25.8832 20.9501 25.4872 20.7559 25.0882L20.1764 23.891L19.6046 22.6893C19.415 22.2887 19.227 21.8851 19.042 21.4814C19.2392 21.8774 19.4349 22.2734 19.6291 22.6725L20.2086 23.8696L20.7804 25.0713C20.97 25.4719 21.1565 25.874 21.343 26.2792Z" fill="#FFC829"/>
<path d="M21.343 21.4814C21.1565 21.8851 20.97 22.2887 20.7804 22.6893L20.2086 23.891L19.6291 25.0882C19.4349 25.4857 19.2392 25.8832 19.042 26.2792C19.227 25.8755 19.415 25.4719 19.6046 25.0713L20.1764 23.8696L20.7559 22.6725C20.9485 22.2734 21.1458 21.8774 21.343 21.4814Z" fill="#FFC829"/>
<path d="M15.9676 22.3009H15.8621H15.7826L15.7367 22.2076L15.6725 22.3009L15.5854 22.1098L15.5028 22.3009H15.2689H15.1603L15.1221 22.174L15.0854 22.3009H15.0166V21.0977H15.9676V22.3009Z" fill="white"/>
<path d="M25.4351 21.0977H20.4111V26.6598H25.4351V21.0977Z" fill="#FFC829"/>
<path d="M28.0282 21.0977H25.4336V26.6614H28.0282V21.0977Z" fill="#FFC829"/>
<path opacity="0.1" d="M28.0282 21.0977H25.4336V26.6614H28.0282V21.0977Z" fill="#010101"/>
<g opacity="0.1">
<path d="M25.0662 26.2777C24.6977 25.8817 24.3308 25.4857 23.97 25.0867L22.889 23.8895L21.8218 22.6878C21.4687 22.2872 21.1185 21.8836 20.7715 21.48C21.14 21.876 21.5069 22.272 21.8677 22.671L22.9487 23.8681L24.0158 25.0699C24.369 25.472 24.7191 25.8741 25.0662 26.2777Z" fill="#010101"/>
<path d="M25.0662 21.4814C24.7191 21.8851 24.369 22.2887 24.0158 22.6893L22.9487 23.891L21.8677 25.0882C21.5054 25.4857 21.14 25.8832 20.7715 26.2792C21.1185 25.8755 21.4687 25.4719 21.8218 25.0713L22.889 23.8696L23.97 22.6725C24.3308 22.2734 24.6962 21.8774 25.0662 21.4814Z" fill="#010101"/>
</g>
<path d="M27.6631 25.7195H27.209V26.3616H27.6631V25.7195Z" fill="white"/>
<path d="M18.981 17.5H13.2461V21.0975H18.981V17.5Z" fill="#FFC829"/>
<path opacity="0.1" d="M18.981 17.5H13.2461V21.0975H18.981V17.5Z" fill="#010101"/>
<path d="M21.577 17.5H18.9824V21.0975H21.577V17.5Z" fill="#FFC829"/>
<path opacity="0.2" d="M21.577 17.5H18.9824V21.0975H21.577V17.5Z" fill="#010101"/>
<path d="M21.397 20.8865C21.2043 20.6388 21.0147 20.3911 20.8251 20.1419L20.2625 19.3928L19.7075 18.6405C19.5225 18.3898 19.3406 18.1375 19.1602 17.8853C19.3528 18.1329 19.5424 18.3806 19.732 18.6298L20.2946 19.379L20.8496 20.1312C21.0346 20.382 21.2165 20.6327 21.397 20.8865Z" fill="#FFC829"/>
<path d="M21.397 17.8838C21.2165 18.1361 21.0346 18.3883 20.8496 18.6391L20.2946 19.3913L19.732 20.1405C19.5439 20.3897 19.3528 20.6374 19.1602 20.885C19.3406 20.6328 19.5225 20.3805 19.7075 20.1298L20.2625 19.3775L20.8251 18.6284C21.0147 18.3807 21.2058 18.1315 21.397 17.8838Z" fill="#FFC829"/>
<path d="M8.92937 3.59575C8.66793 3.54989 8.01355 3.76394 7.80562 4.11864C7.59921 4.47335 7.64202 5.02988 7.75975 5.0788C7.87595 5.12773 8.36673 5.06504 8.69545 4.86322C9.02416 4.66294 9.0578 3.61869 8.92937 3.59575Z" fill="#263238"/>
<path d="M8.93107 3.59738C8.94024 3.59586 8.94024 3.58057 8.92954 3.58057C8.70326 3.58515 8.46475 3.6723 8.25223 3.74416C8.08099 3.80226 7.90517 3.86953 7.77063 3.99337C7.63608 4.11722 7.56881 4.27775 7.57034 4.46122C7.57187 4.65998 7.61162 4.90002 7.71711 5.07279C7.72017 5.07737 7.72934 5.07584 7.72782 5.06973C7.60703 4.6982 7.49542 4.24259 7.85777 3.96891C8.16508 3.73652 8.57025 3.69371 8.93107 3.59738Z" fill="#263238"/>
<path d="M7.79453 4.97958C7.56978 5.01933 7.00255 5.47495 6.92305 5.90763C6.84355 6.34184 7.21966 6.95952 7.3328 7.0008C7.44594 7.04208 7.92602 6.60787 8.07585 6.29903C8.17523 6.09263 8.07891 5.86023 8.01928 5.62937C7.9306 5.28689 7.82969 4.97346 7.79453 4.97958Z" fill="#263238"/>
<path d="M8.20873 6.23949C8.25612 5.79917 7.98856 5.37719 7.82191 4.98884C7.82038 4.98425 7.81274 4.98731 7.81427 4.9919C7.91365 5.36648 8.15674 5.69826 8.18121 6.09425C8.19497 6.3297 8.12311 6.56362 7.93658 6.71651C7.77452 6.84953 7.56505 6.91527 7.37394 6.99325C7.36171 6.99783 7.37088 7.01771 7.38311 7.01159C7.76534 6.86635 8.15827 6.69358 8.20873 6.23949Z" fill="#263238"/>
<path d="M7.74688 5.0223C7.75758 5.01619 7.74993 4.99937 7.7377 5.00396C7.42275 5.17061 7.04663 5.40912 6.88916 5.74242C6.71945 6.10325 6.92126 6.46407 7.10167 6.77444C7.1032 6.77902 7.11085 6.77597 7.10779 6.77138C6.93044 6.45642 6.73932 6.06349 6.93655 5.71031C7.10626 5.40606 7.45027 5.18437 7.74688 5.0223Z" fill="#263238"/>
<path d="M7.37262 6.94409C7.52704 7.01289 7.76249 7.25905 7.82976 7.55719C7.94596 8.06937 8.13554 7.95623 8.70736 8.06173C9.19202 8.1504 9.32351 8.67941 9.085 8.95767C9.085 8.95767 9.21343 8.61978 8.88318 8.47606C8.48719 8.30482 7.631 8.76044 7.1601 8.24214C6.55159 7.57248 7.37262 6.94409 7.37262 6.94409Z" fill="#263238"/>
<path d="M7.5897 7.17186C7.58359 7.16574 7.59429 7.15351 7.60193 7.15963C7.67074 7.22231 7.72731 7.29264 7.77011 7.3752C7.82516 7.48223 7.83433 7.59995 7.8802 7.71003C7.99945 7.9883 8.34193 7.95772 8.59114 7.96231C8.92597 7.96689 9.20576 8.15495 9.24552 8.50507C9.24552 8.50966 9.23787 8.51118 9.23787 8.5066C9.20882 8.28949 9.0651 8.09838 8.85564 8.02346C8.65688 7.95313 8.43825 8.00817 8.23338 7.97148C8.09272 7.94549 7.95206 7.89503 7.8802 7.76355C7.84044 7.69169 7.82821 7.6076 7.80375 7.52962C7.76247 7.38896 7.69214 7.27735 7.5897 7.17186Z" fill="#263238"/>
<path d="M7.28884 7.01126C7.2919 7.0082 7.29648 7.01279 7.29342 7.01585C7.11607 7.21308 6.92649 7.41184 6.88826 7.68704C6.84698 7.98365 7.01516 8.26803 7.2552 8.43162C7.52429 8.61509 7.79644 8.50501 8.08081 8.43162C8.28722 8.37964 8.49821 8.34142 8.70614 8.40104C8.71226 8.40257 8.7092 8.41328 8.70308 8.41175C8.36978 8.35365 8.07317 8.46985 7.7521 8.54018C7.49065 8.59827 7.27661 8.51877 7.09467 8.32307C6.69409 7.89497 6.89438 7.36444 7.28884 7.01126Z" fill="#263238"/>
<path d="M8.72271 3.36804C8.64627 3.28089 8.51172 3.40015 8.58817 3.4873C8.66309 3.57597 8.79916 3.45672 8.72271 3.36804Z" fill="#FFC829"/>
<path d="M8.79889 3.51794C8.72244 3.43079 8.5879 3.55005 8.66434 3.6372C8.73926 3.72587 8.87533 3.60509 8.79889 3.51794Z" fill="#FFC829"/>
<path d="M8.90142 3.65246C8.82498 3.56532 8.69043 3.68457 8.76688 3.77172C8.8418 3.8604 8.97634 3.74114 8.90142 3.65246Z" fill="#FFC829"/>
<path d="M9.01666 3.77014C8.94021 3.68299 8.80567 3.80225 8.88211 3.8894C8.95856 3.97654 9.0931 3.85729 9.01666 3.77014Z" fill="#FFC829"/>
<path d="M9.15435 3.86804C9.07791 3.78089 8.94336 3.90015 9.01981 3.9873C9.09473 4.07444 9.2308 3.95519 9.15435 3.86804Z" fill="#FFC829"/>
<path d="M9.30084 3.93689C9.22439 3.84974 9.08985 3.969 9.16629 4.05614C9.24121 4.14329 9.37728 4.02404 9.30084 3.93689Z" fill="#FFC829"/>
<path d="M14.8374 27.5508C14.6722 27.6028 9.86533 27.4988 9.69103 27.3811C9.62376 27.3383 10.035 22.7852 10.035 22.7852L13.0837 22.8433L12.7366 25.8889C12.7366 25.8889 14.5102 26.7298 14.689 26.8781C14.8679 27.0279 15.0025 27.5003 14.8374 27.5508Z" fill="#FDD5BE"/>
<path d="M14.8372 27.5508C14.672 27.6028 9.86514 27.4988 9.69084 27.3811C9.66944 27.3673 9.66332 26.9056 9.73977 26.3032C10.6113 26.45 13.7226 26.927 13.9642 26.7848C14.1323 26.6855 13.984 26.531 13.8449 26.4255C14.2424 26.6228 14.6124 26.8139 14.6889 26.8781C14.8677 27.0279 15.0023 27.5004 14.8372 27.5508Z" fill="#263238"/>
<path d="M12.8237 25.1596L9.83158 25.1168C9.83158 25.1168 10.4248 17.9492 10.4003 17.8116C10.3682 17.6358 8.24609 9.30933 8.24609 9.30933H11.1021C11.1021 9.30933 13.3542 17.0686 13.4352 17.8162C13.5652 19.024 12.8237 25.1596 12.8237 25.1596Z" fill="#37474F"/>
<path d="M10.1002 24.4408C10.2775 24.4286 10.4564 24.4301 10.6323 24.4286C10.8096 24.4255 10.987 24.4255 11.1643 24.427C11.519 24.4301 11.8737 24.4362 12.2284 24.4454C12.3248 24.4484 12.4226 24.4515 12.5189 24.4561C12.6229 24.4607 12.7269 24.479 12.8293 24.4821C12.8369 24.4821 12.8369 24.4943 12.8293 24.4943C12.7422 24.4958 12.655 24.5081 12.5679 24.5111C12.4777 24.5142 12.3874 24.5142 12.2972 24.5142C12.1199 24.5142 11.9425 24.5142 11.7652 24.5126C11.4105 24.5096 11.0558 24.505 10.7011 24.4897C10.5008 24.4821 10.299 24.479 10.0987 24.4591C10.088 24.4576 10.088 24.4423 10.1002 24.4408Z" fill="#263238"/>
<path d="M8.87224 9.98194C9.12757 10.8871 9.3615 11.7998 9.59083 12.7126C9.82017 13.6253 10.048 14.5381 10.2758 15.4509C10.3889 15.908 10.5036 16.3636 10.6167 16.8208C10.7268 17.2657 10.8552 17.7121 10.8828 18.1708C10.9103 18.6371 10.8507 19.108 10.8124 19.5728C10.7727 20.0407 10.7345 20.507 10.6932 20.9748C10.6106 21.909 10.5326 22.8447 10.4317 23.7773C10.4195 23.8935 10.4057 24.0112 10.395 24.1274C10.3935 24.1381 10.3782 24.1366 10.3798 24.1274C10.4409 23.1918 10.5067 22.2576 10.5816 21.3234C10.6183 20.8556 10.6565 20.3893 10.6962 19.9214C10.7345 19.4551 10.7895 18.9872 10.8033 18.5194C10.8186 18.047 10.7314 17.5944 10.6183 17.1388C10.5067 16.6923 10.395 16.2459 10.2819 15.7979C10.0541 14.8852 9.82476 13.9724 9.59848 13.0596C9.34468 12.0368 9.09088 11.0124 8.86766 9.98347C8.86307 9.97888 8.87072 9.97582 8.87224 9.98194Z" fill="#263238"/>
<path d="M8.24414 9.30933C8.24414 9.30933 9.15537 12.8809 9.79293 15.3959L11.0084 9.30933H8.24414Z" fill="#263238"/>
<path d="M11.2486 27.5631C11.0835 27.6151 6.27658 27.5111 6.10229 27.3934C6.03501 27.3506 6.28575 22.7944 6.28575 22.7944L9.29466 22.8525L9.14941 25.9012C9.14941 25.9012 10.9229 26.7421 11.1018 26.8904C11.2792 27.0387 11.4137 27.5111 11.2486 27.5631Z" fill="#FDD5BE"/>
<path d="M11.2486 27.563C11.0835 27.615 6.27657 27.511 6.10228 27.3933C6.08087 27.3796 6.08546 26.9301 6.10228 26.3154C6.97376 26.4622 10.134 26.9392 10.3756 26.797C10.5438 26.6977 10.3955 26.5432 10.2563 26.4377C10.6539 26.635 11.0238 26.8261 11.1003 26.8903C11.2792 27.0386 11.4137 27.5126 11.2486 27.563Z" fill="#263238"/>
<path d="M11.0085 9.30786C11.0085 9.30786 10.9259 10.6732 10.5988 11.7526C10.5728 11.8413 10.5437 11.9299 10.5131 12.014C10.5131 12.014 10.186 12.1287 9.68447 12.4268C9.68447 12.4268 9.47807 17.6511 9.48265 17.9753C9.49641 19.1892 9.18604 25.1 9.18604 25.1L6.16797 25.071C6.16797 25.071 6.4814 18.3865 6.4814 17.9416C6.48445 17.2276 7.11437 9.30939 7.11437 9.30939L11.0085 9.30786Z" fill="#37474F"/>
<path d="M10.3509 11.1427C10.3616 11.0678 10.3738 10.9913 10.3845 10.9164C10.4059 10.7773 10.4334 10.6412 10.4579 10.5021C10.5129 10.1886 10.5695 9.87521 10.6398 9.56484C10.6414 9.5572 10.6536 9.55872 10.6536 9.56637C10.6414 9.69174 10.6276 9.81711 10.6093 9.94095C10.5909 10.0663 10.5787 10.1917 10.5619 10.3155C10.5267 10.5632 10.4931 10.8109 10.4502 11.0571C10.4334 11.1519 10.3753 11.3216 10.5114 11.3506C10.62 11.3735 10.6995 11.2681 10.73 11.1794C10.7683 11.0708 10.782 10.9516 10.8034 10.8384C10.8264 10.7131 10.8447 10.5877 10.8631 10.4623C10.9013 10.1886 10.9441 9.91649 10.9884 9.64434C10.99 9.6367 11.0022 9.63823 11.0022 9.64587C10.993 9.92719 10.9793 10.2039 10.941 10.4837C10.9227 10.6167 10.9028 10.7497 10.8814 10.8812C10.86 11.0051 10.8447 11.1381 10.7897 11.2528C10.7469 11.343 10.6674 11.4225 10.5634 11.4347C10.5619 11.4347 10.5588 11.4347 10.5573 11.4347C10.5603 11.4362 10.5619 11.4393 10.5619 11.4423C10.5603 11.4867 10.5619 11.531 10.5573 11.5754C10.5527 11.6197 10.5435 11.6625 10.5359 11.7053C10.5282 11.7481 10.5175 11.794 10.5022 11.8353C10.4946 11.8552 10.4869 11.875 10.4778 11.8949C10.4686 11.9148 10.4548 11.9316 10.4426 11.9499C10.438 11.9576 10.4288 11.953 10.4273 11.9454C10.4273 11.9377 10.4273 11.9316 10.4288 11.924C10.4288 11.9224 10.4288 11.9209 10.4288 11.9209C10.4288 11.9087 10.4288 11.8949 10.4319 11.8827C10.435 11.8613 10.4395 11.8399 10.4441 11.82C10.4533 11.7772 10.4655 11.7359 10.4762 11.6946C10.4869 11.6533 10.4961 11.6105 10.5068 11.5692C10.5175 11.5264 10.5313 11.4836 10.542 11.4408C10.542 11.4393 10.5435 11.4378 10.545 11.4362C10.4655 11.4378 10.383 11.3949 10.3539 11.317C10.3325 11.2589 10.3417 11.2008 10.3509 11.1427Z" fill="#263238"/>
<path d="M9.44191 12.5295C9.52906 12.4591 9.62997 12.3995 9.72629 12.3429C9.83026 12.2802 9.93881 12.2237 10.0504 12.1747C10.2691 12.08 10.4938 12.0157 10.7186 11.9408C10.7247 11.9393 10.7293 11.95 10.7231 11.9531C10.5045 12.0402 10.295 12.1549 10.0856 12.2588C9.98162 12.3093 9.87613 12.3582 9.77063 12.4041C9.66514 12.4515 9.55964 12.505 9.45109 12.5447C9.44191 12.5478 9.4358 12.5356 9.44191 12.5295Z" fill="#263238"/>
<path d="M7.73929 10.6274C7.89218 10.6274 8.04507 10.6045 8.19491 10.5663C8.26371 10.5479 8.33098 10.5265 8.39825 10.5051C8.46247 10.4837 8.52974 10.4577 8.58172 10.4134C8.68569 10.3247 8.73308 10.184 8.77895 10.0587C8.82941 9.91801 8.8661 9.77429 8.89821 9.62905C8.89974 9.6214 8.91044 9.62446 8.91044 9.63058C8.91503 9.79417 8.89209 9.96082 8.84928 10.1183C8.81259 10.2528 8.76213 10.4042 8.65358 10.4975C8.53891 10.5968 8.38296 10.632 8.23619 10.6504C8.07106 10.6702 7.90594 10.6657 7.74082 10.6442C7.72859 10.6427 7.72859 10.6274 7.73929 10.6274Z" fill="#263238"/>
<path d="M6.74667 21.3955C6.79865 20.4415 6.8537 19.4874 6.90874 18.5349C7.01882 16.6375 7.12431 14.7386 7.2451 12.8428C7.31237 11.7725 7.3827 10.7023 7.46526 9.63205C7.46679 9.62135 7.48361 9.62135 7.48361 9.63205C7.40869 11.5417 7.29096 13.4482 7.18088 15.3548C7.0708 17.2522 6.95766 19.1495 6.83841 21.0469C6.77113 22.1172 6.68704 23.1874 6.61977 24.2576C6.61977 24.2653 6.60601 24.2653 6.60754 24.2576C6.65799 23.3036 6.69622 22.3496 6.74667 21.3955Z" fill="#263238"/>
<path d="M6.30332 24.4855C6.48067 24.4732 6.65956 24.4748 6.83538 24.4732C7.01274 24.4702 7.19009 24.4702 7.36744 24.4717C7.72215 24.4748 8.07686 24.4809 8.43157 24.4901C8.52789 24.4931 8.62574 24.4962 8.72206 24.5008C8.82603 24.5053 8.92999 24.5237 9.03243 24.5267C9.04007 24.5267 9.04007 24.539 9.03243 24.539C8.94528 24.5405 8.85813 24.5527 8.77099 24.5558C8.68078 24.5589 8.59057 24.5589 8.50037 24.5589C8.32301 24.5589 8.14566 24.5589 7.96831 24.5573C7.6136 24.5543 7.25889 24.5497 6.90418 24.5344C6.70389 24.5267 6.50208 24.5237 6.30179 24.5038C6.29109 24.5023 6.29109 24.487 6.30332 24.4855Z" fill="#263238"/>
<path d="M9.7991 6.21952C10.0881 6.93963 11.2393 9.26358 11.9961 9.42718C12.493 9.5342 14.4974 9.34003 14.843 8.86607C14.9928 8.65966 14.739 7.2179 14.4715 7.276C14.2039 7.33257 12.597 7.54508 12.3998 7.48851C12.2041 7.43194 10.7226 5.72721 10.1706 5.30523C9.21658 4.57441 9.64315 5.83117 9.7991 6.21952Z" fill="#FDD5BE"/>
<path d="M11.5527 6.57415L10.2929 7.32026C10.2929 7.32026 9.76239 6.30965 9.55598 5.64915C9.34805 4.98866 9.52693 4.68594 10.2868 5.34337C11.0482 6.00081 11.5527 6.57415 11.5527 6.57415Z" fill="#FFC829"/>
<path d="M10.2399 7.06046C10.4065 6.93967 10.5778 6.82195 10.7505 6.70881C10.8362 6.65377 10.9202 6.5972 11.0059 6.54216C11.0945 6.48712 11.1878 6.43666 11.2765 6.38162C11.2826 6.37703 11.2902 6.38621 11.2826 6.39079C11.1985 6.44736 11.119 6.51005 11.0349 6.56815C10.9493 6.62778 10.8591 6.68282 10.7719 6.74092C10.5992 6.85406 10.4233 6.96261 10.2445 7.06657C10.2399 7.07116 10.2338 7.06352 10.2399 7.06046Z" fill="#263238"/>
<path d="M11.4863 10.2221L11.2019 8.61523C11.2019 8.61523 11.6392 7.85077 11.3854 7.30189C11.257 7.02363 10.1317 5.29596 9.65925 4.95195C9.21433 4.62935 8.57066 4.97489 8.33062 5.22716C7.40563 6.20107 7.15947 7.99755 6.82617 10.6303L11.4863 10.2221Z" fill="#FFC829"/>
<path d="M11.4634 7.46244C11.4344 7.34471 11.3701 7.24075 11.309 7.13678C11.2876 7.09856 11.2371 7.02058 11.1775 6.92885C11.1607 6.88451 11.1423 6.8417 11.1209 6.80042C11.0888 6.73773 11.0521 6.67658 11.0261 6.61084C11.0231 6.60472 11.0139 6.60778 11.017 6.61542C11.0491 6.67658 11.072 6.74232 11.0965 6.80654C10.9956 6.65517 10.8901 6.4977 10.8457 6.43348C10.8427 6.42737 10.8335 6.43348 10.8366 6.43807C10.9329 6.56344 11.2478 7.11691 11.3243 7.25604C11.4023 7.39823 11.4328 7.545 11.4344 7.70707C11.4359 7.83702 11.4068 8.07095 11.3717 8.18867C11.3671 8.20243 11.3808 8.20855 11.387 8.19632C11.4359 8.08318 11.4619 7.95781 11.4756 7.83855C11.4909 7.71318 11.4925 7.58322 11.4634 7.46244Z" fill="#263238"/>
<path d="M9.58015 6.36018C9.58015 6.36018 9.2973 6.04523 9.52817 5.8694C9.75904 5.69358 9.98837 6.05134 9.98837 6.05134L9.58015 6.36018Z" fill="#455B64"/>
<path d="M11.7842 8.40894L11.853 8.81869L11.8774 8.95324L11.7521 8.89514L11.376 8.71931L9.57031 6.34797L9.977 6.0376L11.7827 8.40894H11.7842Z" fill="#455B64"/>
<path d="M11.8529 8.8186L11.8773 8.95315L11.752 8.89505L11.8529 8.8186Z" fill="#37474F"/>
<path d="M10.002 5.99814L9.52637 6.36035L9.59862 6.45523L10.0742 6.09302L10.002 5.99814Z" fill="#263238"/>
<path d="M10.08 6.1019L9.60449 6.46411L9.67675 6.55898L10.1523 6.19677L10.08 6.1019Z" fill="#263238"/>
<path d="M9.67676 6.55882L9.82965 6.44263L10.3984 7.36456L10.3403 7.40431L9.67676 6.55882Z" fill="#263238"/>
<path d="M7.90417 5.74249C6.7636 7.1705 5.52365 9.53573 6.14439 9.98676C6.71162 10.398 8.65487 9.85221 9.86424 9.29263C10.0936 9.18561 9.00957 7.1598 8.77565 7.29893C8.36743 7.54355 8.04483 7.69033 8.01425 7.6995C7.94698 7.72244 8.29098 7.24389 8.63805 6.12472C8.99123 4.98721 8.55702 4.92605 7.90417 5.74249Z" fill="#FDD5BE"/>
<path d="M11.7766 6.95488C11.7934 7.19645 11.1925 7.18728 11.1925 7.18728C11.1925 7.18728 11.3408 7.26678 11.3897 7.41967C11.4463 7.5955 11.1956 7.76062 11.1956 7.76062C11.1956 7.76062 11.3286 7.87223 11.3637 8.03888C11.4004 8.21318 11.1711 8.41499 11.1711 8.41499C11.1711 8.41499 11.2384 8.58623 11.165 8.75288C11.0396 9.03726 10.5626 9.07243 10.2706 9.15346C9.95868 9.23908 9.50765 9.42714 9.32112 9.52193L8.6377 7.37839C8.6377 7.37839 9.87 6.53902 10.2293 6.53443C10.532 6.52984 11.7521 6.58489 11.7766 6.95488Z" fill="#FDD5BE"/>
<path d="M11.1863 7.17969C10.8637 7.10783 10.5243 7.11241 10.1971 7.12006C10.1895 7.12006 10.1895 7.13229 10.1971 7.13076C10.5228 7.11853 10.8592 7.19345 11.1833 7.19498C11.194 7.1965 11.1955 7.18274 11.1863 7.17969Z" fill="#263238"/>
<path d="M11.1828 7.73618C11.1094 7.72242 11.0314 7.7316 10.958 7.73771C10.8785 7.74383 10.799 7.75147 10.7195 7.75912C10.5605 7.77593 10.4015 7.79734 10.244 7.82333C10.2364 7.82486 10.2364 7.83556 10.244 7.83403C10.403 7.81722 10.5605 7.80193 10.7195 7.79275C10.799 7.78817 10.8785 7.78358 10.958 7.77899C11.0314 7.77593 11.1109 7.77746 11.1828 7.75759C11.195 7.75453 11.195 7.73924 11.1828 7.73618Z" fill="#263238"/>
<path d="M11.1631 8.41505C11.1004 8.39976 11.024 8.41964 10.9598 8.42728C10.8879 8.43646 10.8145 8.44563 10.7427 8.4548C10.5974 8.47162 10.4537 8.48844 10.3085 8.50067C10.3008 8.50067 10.3008 8.5129 10.3085 8.51137C10.4568 8.49914 10.6035 8.48997 10.7519 8.47774C10.8237 8.47162 10.8971 8.46551 10.969 8.45786C11.0301 8.45175 11.1081 8.45175 11.1647 8.4227C11.1677 8.42117 11.1662 8.41658 11.1631 8.41505Z" fill="#263238"/>
<path d="M8.24317 7.54822L7.00781 6.76236C7.00781 6.76236 7.6683 5.83125 8.16214 5.34811C8.65598 4.86344 9.00763 4.88638 8.76606 5.86183C8.52449 6.83727 8.24317 7.54822 8.24317 7.54822Z" fill="#FFC829"/>
<path d="M7.21337 6.59714C7.39684 6.69041 7.57878 6.78979 7.75766 6.89222C7.84634 6.94268 7.93502 6.99313 8.02216 7.04512C8.11237 7.10016 8.19799 7.15978 8.2882 7.2133C8.29431 7.21788 8.28972 7.22706 8.28208 7.224C8.1934 7.17507 8.10014 7.13226 8.01146 7.08334C7.91973 7.03288 7.82952 6.97937 7.73779 6.92739C7.5589 6.82495 7.38155 6.7164 7.20725 6.60479C7.2042 6.60173 7.20725 6.59409 7.21337 6.59714Z" fill="#263238"/>
<path d="M8.24234 7.55435C8.30044 7.34641 8.38758 7.14613 8.45791 6.94278C8.52977 6.73791 8.59704 6.5315 8.65973 6.32357C8.66126 6.31898 8.6689 6.32051 8.66737 6.3251C8.64138 6.43059 8.61845 6.53609 8.5894 6.64006C8.57564 6.69204 8.55882 6.74249 8.542 6.79448C8.55271 6.77613 8.56188 6.75625 8.57411 6.73791C8.60775 6.68286 8.64444 6.62935 8.68419 6.5789C8.68572 6.57584 8.69031 6.5789 8.68878 6.58196C8.65973 6.64006 8.63068 6.69663 8.59552 6.75167C8.57105 6.79142 8.54353 6.82964 8.51754 6.86786C8.50837 6.89691 8.49767 6.92749 8.48849 6.95654C8.42122 7.16141 8.35548 7.36629 8.25304 7.5574C8.25151 7.56352 8.24081 7.56046 8.24234 7.55435Z" fill="#263238"/>
<path d="M7.96336 7.7164C7.64687 7.88 7.29063 8.12309 7.10869 8.31574C7.10258 8.32185 7.11022 8.3295 7.11634 8.32491C7.29828 8.17814 7.83951 7.85248 7.98017 7.75921C8.02145 7.73016 8.05356 7.66901 7.96336 7.7164Z" fill="#263238"/>
<path d="M13.5093 9.55877L10.9912 9.61228L12.0981 6.35722L14.6163 6.30371L13.5093 9.55877Z" fill="#FDD5BE"/>
<path d="M13.6822 9.55413L11.1641 9.60917L12.271 6.35411L14.7876 6.29907L13.6822 9.55413Z" fill="#FDD5BE"/>
<path d="M12.5378 6.34797C12.5241 6.39842 12.4874 6.45193 12.4323 6.48251C12.4079 6.49627 12.4018 6.46416 12.4247 6.45193C12.4583 6.43206 12.4828 6.39995 12.4966 6.36784C12.4981 6.36173 12.5011 6.35561 12.5027 6.3495C12.5088 6.32809 12.5103 6.30669 12.5057 6.28834C12.5027 6.27917 12.4981 6.27152 12.4904 6.26693C12.4904 6.26693 12.4889 6.26693 12.4889 6.26541C12.4874 6.26541 12.4859 6.26541 12.4859 6.26388C12.4843 6.26388 12.4813 6.26388 12.4813 6.26388C12.4751 6.26235 12.4706 6.26388 12.4629 6.26541C12.4522 6.26846 12.443 6.27611 12.4339 6.28528C12.4232 6.29751 12.4171 6.30669 12.4094 6.31892C12.4048 6.32503 12.4018 6.33115 12.3987 6.33726L12.3972 6.34185C12.3956 6.34338 12.3956 6.34644 12.3941 6.34797C12.3941 6.3495 12.3926 6.35102 12.3926 6.35255H12.3574C12.3651 6.33115 12.3758 6.30974 12.3895 6.28987C12.414 6.25623 12.4476 6.22871 12.4843 6.22565C12.518 6.22413 12.5363 6.24859 12.5424 6.27611C12.547 6.29751 12.5455 6.3235 12.5378 6.34797Z" fill="#C7C7C6"/>
<path d="M12.7351 6.34333C12.7213 6.39378 12.6846 6.44729 12.6296 6.47787C12.6051 6.49163 12.599 6.45953 12.622 6.44729C12.6556 6.42742 12.6801 6.39531 12.6938 6.3632C12.6953 6.35709 12.6984 6.35097 12.6999 6.34486C12.706 6.32345 12.7076 6.30205 12.703 6.2837C12.6999 6.27453 12.6953 6.26688 12.6877 6.2623C12.6877 6.2623 12.6862 6.2623 12.6862 6.26077C12.6846 6.26077 12.6831 6.26077 12.6831 6.25924C12.6816 6.25924 12.6785 6.25924 12.6785 6.25924C12.6724 6.25771 12.6678 6.25924 12.6602 6.26077C12.6495 6.26383 12.6403 6.27147 12.6311 6.28064C12.6204 6.29287 12.6143 6.30205 12.6067 6.31428C12.6021 6.32039 12.599 6.32651 12.596 6.33263L12.5944 6.33721C12.5929 6.33874 12.5929 6.3418 12.5914 6.34333C12.5914 6.34486 12.5899 6.34639 12.5899 6.34792H12.5547C12.5623 6.32651 12.573 6.30511 12.5868 6.28523C12.6113 6.25159 12.6449 6.22407 12.6816 6.22102C12.7152 6.21949 12.7336 6.24395 12.7397 6.27147C12.7443 6.29287 12.7427 6.31887 12.7351 6.34333Z" fill="#C7C7C6"/>
<path d="M12.9304 6.34033C12.9167 6.39079 12.88 6.4443 12.8249 6.47488C12.8005 6.48864 12.7943 6.45653 12.8173 6.4443C12.8509 6.42443 12.8754 6.39232 12.8891 6.36021C12.8907 6.35409 12.8937 6.34798 12.8952 6.34186C12.9014 6.32046 12.9029 6.29905 12.8983 6.28071C12.8952 6.27153 12.8907 6.26389 12.883 6.2593C12.883 6.2593 12.8815 6.2593 12.8815 6.25777C12.88 6.25777 12.8784 6.25777 12.8784 6.25624C12.8769 6.25624 12.8738 6.25624 12.8738 6.25624C12.8677 6.25472 12.8631 6.25624 12.8555 6.25777C12.8448 6.26083 12.8356 6.26848 12.8264 6.27765C12.8157 6.28988 12.8096 6.29905 12.802 6.31129C12.7974 6.3174 12.7943 6.32352 12.7913 6.32963L12.7898 6.33422C12.7882 6.33575 12.7882 6.33881 12.7867 6.34033C12.7867 6.34186 12.7852 6.34339 12.7852 6.34492L12.75 6.34645C12.7576 6.32505 12.7683 6.30364 12.7821 6.28376C12.8066 6.25013 12.8402 6.22261 12.8769 6.21955C12.9105 6.21802 12.9289 6.24248 12.935 6.27C12.9411 6.28988 12.9396 6.31434 12.9304 6.34033Z" fill="#C7C7C6"/>
<path d="M13.1281 6.33582C13.1143 6.38628 13.0776 6.43979 13.0226 6.47037C12.9981 6.48413 12.992 6.45202 13.015 6.43979C13.0486 6.41991 13.0731 6.38781 13.0868 6.3557C13.0884 6.34958 13.0914 6.34347 13.0929 6.33735C13.0991 6.31595 13.1006 6.29454 13.096 6.2762C13.0929 6.26702 13.0883 6.25938 13.0807 6.25479C13.0807 6.25479 13.0792 6.25479 13.0792 6.25326C13.0776 6.25326 13.0761 6.25326 13.0761 6.25173C13.0746 6.25173 13.0715 6.25173 13.0715 6.25173C13.0654 6.2502 13.0608 6.25173 13.0532 6.25326C13.0425 6.25632 13.0333 6.26396 13.0241 6.27314C13.0134 6.28537 13.0073 6.29454 12.9997 6.30677C12.9951 6.31289 12.992 6.31901 12.989 6.32512L12.9874 6.32971C12.9874 6.32971 12.9859 6.33277 12.9859 6.3343C12.9859 6.33582 12.9844 6.33735 12.9844 6.33888H12.9492C12.9569 6.31748 12.9676 6.29607 12.9813 6.2762C13.0058 6.24256 13.0394 6.21504 13.0761 6.21198C13.1098 6.21045 13.1281 6.23492 13.1342 6.26244C13.1388 6.28537 13.1357 6.30983 13.1281 6.33582Z" fill="#C7C7C6"/>
<path d="M13.3249 6.33106C13.3112 6.38151 13.2745 6.43502 13.2194 6.4656C13.195 6.47936 13.1889 6.44725 13.2118 6.43502C13.2454 6.41515 13.2699 6.38304 13.2837 6.35093C13.2852 6.34482 13.2882 6.3387 13.2898 6.33259C13.2959 6.31118 13.2974 6.28978 13.2928 6.27143C13.2898 6.26226 13.2852 6.25461 13.2775 6.25003C13.2775 6.25003 13.276 6.25002 13.276 6.2485C13.2745 6.2485 13.273 6.2485 13.273 6.24697C13.2714 6.24697 13.2684 6.24697 13.2684 6.24697C13.2623 6.24544 13.2577 6.24697 13.25 6.2485C13.2393 6.25155 13.2302 6.2592 13.221 6.26837C13.2103 6.2806 13.2042 6.28978 13.1965 6.30201C13.1919 6.30812 13.1889 6.31424 13.1858 6.32036L13.1843 6.32494C13.1828 6.32647 13.1828 6.32953 13.1812 6.33106C13.1812 6.33259 13.1797 6.33412 13.1797 6.33564L13.1445 6.33717C13.1522 6.31577 13.1629 6.29436 13.1766 6.27449C13.2011 6.24085 13.2347 6.21333 13.2714 6.21027C13.3051 6.20874 13.3234 6.23321 13.3295 6.26073C13.3356 6.2806 13.3326 6.30659 13.3249 6.33106Z" fill="#C7C7C6"/>
<path d="M13.5222 6.32642C13.5084 6.37687 13.4718 6.43038 13.4167 6.46096C13.3923 6.47472 13.3861 6.44262 13.4091 6.43038C13.4427 6.41051 13.4672 6.3784 13.4809 6.34629C13.4825 6.34018 13.4855 6.33406 13.487 6.32795C13.4932 6.30654 13.4947 6.28514 13.4901 6.26679C13.487 6.25762 13.4825 6.24997 13.4748 6.24539C13.4748 6.24539 13.4733 6.24539 13.4733 6.24386C13.4718 6.24386 13.4702 6.24386 13.4702 6.24233C13.4687 6.24233 13.4656 6.24233 13.4656 6.24233C13.4595 6.2408 13.4549 6.24233 13.4473 6.24386C13.4366 6.24692 13.4274 6.25456 13.4182 6.26373C13.4075 6.27596 13.4014 6.28514 13.3938 6.29737C13.3892 6.30348 13.3861 6.3096 13.3831 6.31572L13.3815 6.3203C13.38 6.32183 13.38 6.32489 13.3785 6.32642C13.3785 6.32795 13.377 6.32948 13.377 6.33101L13.3418 6.33253C13.3494 6.31113 13.3601 6.28972 13.3739 6.26985C13.3984 6.23621 13.432 6.20869 13.4687 6.20563C13.5023 6.20411 13.5207 6.22857 13.5268 6.25609C13.5329 6.27596 13.5299 6.30196 13.5222 6.32642Z" fill="#C7C7C6"/>
<path d="M13.7195 6.32355C13.7057 6.37401 13.669 6.42752 13.614 6.4581C13.5895 6.47186 13.5834 6.43975 13.6063 6.42752C13.64 6.40764 13.6644 6.37554 13.6782 6.34343C13.6797 6.33731 13.6828 6.3312 13.6843 6.32508C13.6904 6.30368 13.692 6.28227 13.6874 6.26393C13.6843 6.25475 13.6797 6.24711 13.6721 6.24252C13.6721 6.24252 13.6705 6.24252 13.6705 6.24099C13.669 6.24099 13.6675 6.24099 13.6675 6.23946C13.666 6.23946 13.6629 6.23946 13.6629 6.23946C13.6568 6.23793 13.6522 6.23946 13.6446 6.24099C13.6339 6.24405 13.6247 6.25169 13.6155 6.26087C13.6048 6.2731 13.5987 6.28227 13.591 6.2945C13.5865 6.30062 13.5834 6.30673 13.5803 6.31285L13.5788 6.31744C13.5773 6.31897 13.5773 6.32202 13.5758 6.32355C13.5758 6.32508 13.5742 6.32661 13.5742 6.32814H13.5391C13.5467 6.30673 13.5574 6.28533 13.5712 6.26545C13.5956 6.23182 13.6293 6.2043 13.666 6.20124C13.6996 6.19971 13.7179 6.22417 13.7241 6.25169C13.7302 6.2731 13.7271 6.29756 13.7195 6.32355Z" fill="#C7C7C6"/>
<path d="M13.9167 6.31885C13.903 6.3693 13.8663 6.42282 13.8112 6.45339C13.7868 6.46715 13.7807 6.43505 13.8036 6.42282C13.8372 6.40294 13.8617 6.37083 13.8755 6.33873C13.877 6.33261 13.88 6.32649 13.8816 6.32038C13.8877 6.29897 13.8892 6.27757 13.8846 6.25922C13.8816 6.25005 13.877 6.2424 13.8693 6.23782C13.8693 6.23782 13.8678 6.23782 13.8678 6.23629C13.8663 6.23629 13.8648 6.23629 13.8648 6.23476C13.8632 6.23476 13.8602 6.23476 13.8602 6.23476C13.8541 6.23323 13.8495 6.23476 13.8418 6.23629C13.8311 6.23935 13.8219 6.24699 13.8128 6.25616C13.8021 6.2684 13.796 6.27757 13.7883 6.2898C13.7837 6.29592 13.7807 6.30203 13.7776 6.30815L13.7761 6.31273C13.7746 6.31426 13.7746 6.31732 13.773 6.31885C13.773 6.32038 13.7715 6.32191 13.7715 6.32344L13.7363 6.32497C13.744 6.30356 13.7547 6.28216 13.7684 6.26228C13.7929 6.22864 13.8265 6.20112 13.8632 6.19807C13.8969 6.19654 13.9152 6.221 13.9213 6.24852C13.9259 6.2684 13.9244 6.29286 13.9167 6.31885Z" fill="#C7C7C6"/>
<path d="M14.114 6.31428C14.1002 6.36473 14.0636 6.41824 14.0085 6.44882C13.984 6.46258 13.9779 6.43047 14.0009 6.41824C14.0345 6.39837 14.059 6.36626 14.0727 6.33415C14.0743 6.32804 14.0773 6.32192 14.0788 6.3158C14.085 6.2944 14.0865 6.27299 14.0819 6.25465C14.0788 6.24547 14.0743 6.23783 14.0666 6.23324C14.0666 6.23324 14.0651 6.23324 14.0651 6.23171C14.0636 6.23171 14.062 6.23171 14.062 6.23019C14.0605 6.23019 14.0574 6.23019 14.0574 6.23019C14.0513 6.22866 14.0467 6.23019 14.0391 6.23171C14.0284 6.23477 14.0192 6.24242 14.01 6.25159C13.9993 6.26382 13.9932 6.273 13.9856 6.28523C13.981 6.29134 13.9779 6.29746 13.9749 6.30357L13.9733 6.30816C13.9718 6.30969 13.9718 6.31275 13.9703 6.31428C13.9703 6.3158 13.9688 6.31733 13.9688 6.31886H13.9336C13.9412 6.29746 13.9519 6.27605 13.9657 6.25618C13.9902 6.22254 14.0238 6.19502 14.0605 6.19196C14.0941 6.19043 14.1125 6.2149 14.1186 6.24242C14.1232 6.26382 14.1217 6.28981 14.114 6.31428Z" fill="#C7C7C6"/>
<path d="M14.3113 6.30982C14.2975 6.36027 14.2608 6.41378 14.2058 6.44436C14.1813 6.45812 14.1752 6.42601 14.1981 6.41378C14.2318 6.39391 14.2562 6.3618 14.27 6.32969C14.2715 6.32358 14.2746 6.31746 14.2761 6.31135C14.2822 6.28994 14.2838 6.26854 14.2792 6.25019C14.2761 6.24102 14.2715 6.23337 14.2639 6.22878C14.2639 6.22878 14.2623 6.22878 14.2623 6.22726C14.2608 6.22726 14.2593 6.22726 14.2593 6.22573C14.2578 6.22573 14.2547 6.22573 14.2547 6.22573C14.2486 6.2242 14.244 6.22573 14.2364 6.22726C14.2257 6.23031 14.2165 6.23796 14.2073 6.24713C14.1966 6.25936 14.1905 6.26854 14.1828 6.28077C14.1783 6.28688 14.1752 6.293 14.1721 6.29911L14.1706 6.3037C14.1691 6.30523 14.1691 6.30829 14.1676 6.30982C14.1676 6.31135 14.166 6.31287 14.166 6.3144L14.1309 6.31593C14.1385 6.29453 14.1492 6.27312 14.163 6.25325C14.1874 6.21961 14.2211 6.19209 14.2578 6.18903C14.2914 6.1875 14.3097 6.21197 14.3159 6.23949C14.3204 6.25936 14.3189 6.28535 14.3113 6.30982Z" fill="#C7C7C6"/>
<path d="M14.5085 6.30524C14.4948 6.3557 14.4581 6.40921 14.403 6.43979C14.3786 6.45355 14.3725 6.42144 14.3954 6.40921C14.429 6.38933 14.4535 6.35723 14.4673 6.32512C14.4688 6.319 14.4718 6.31289 14.4734 6.30677C14.4795 6.28537 14.481 6.26396 14.4764 6.24561C14.4734 6.23644 14.4688 6.2288 14.4611 6.22421C14.4611 6.22421 14.4596 6.22421 14.4596 6.22268C14.4581 6.22268 14.4566 6.22268 14.4566 6.22115C14.455 6.22115 14.452 6.22115 14.452 6.22115C14.4459 6.21962 14.4413 6.22115 14.4336 6.22268C14.4229 6.22574 14.4137 6.23338 14.4046 6.24256C14.3939 6.25479 14.3878 6.26396 14.3801 6.27619C14.3755 6.28231 14.3725 6.28842 14.3694 6.29454L14.3679 6.29913C14.3663 6.30066 14.3663 6.30371 14.3648 6.30524C14.3648 6.30677 14.3633 6.3083 14.3633 6.30983H14.3281C14.3358 6.28842 14.3465 6.26702 14.3602 6.24714C14.3847 6.21351 14.4183 6.18599 14.455 6.18293C14.4887 6.1814 14.507 6.20586 14.5131 6.23338C14.5177 6.25632 14.5162 6.28078 14.5085 6.30524Z" fill="#C7C7C6"/>
<path d="M14.7038 6.30207C14.6901 6.35252 14.6534 6.40603 14.5984 6.43661C14.5739 6.45037 14.5678 6.41827 14.5907 6.40604C14.6243 6.38616 14.6488 6.35405 14.6626 6.32194C14.6641 6.31583 14.6672 6.30971 14.6687 6.3036C14.6748 6.28219 14.6763 6.26079 14.6717 6.24244C14.6687 6.23327 14.6641 6.22562 14.6565 6.22104C14.6565 6.22104 14.6549 6.22104 14.6549 6.21951C14.6534 6.21951 14.6519 6.21951 14.6519 6.21798C14.6503 6.21798 14.6473 6.21798 14.6473 6.21798C14.6412 6.21645 14.6366 6.21798 14.6289 6.21951C14.6182 6.22257 14.6091 6.23021 14.5999 6.23938C14.5892 6.25161 14.5831 6.26079 14.5754 6.27302C14.5708 6.27914 14.5678 6.28525 14.5647 6.29137L14.5632 6.29595C14.5617 6.29748 14.5617 6.30054 14.5601 6.30207C14.5601 6.3036 14.5586 6.30513 14.5586 6.30666H14.5234C14.5311 6.28525 14.5418 6.26385 14.5555 6.24397C14.58 6.21033 14.6136 6.18281 14.6503 6.17976C14.684 6.17823 14.7023 6.20269 14.7084 6.23021C14.7146 6.25161 14.713 6.27608 14.7038 6.30207Z" fill="#C7C7C6"/>
<path d="M14.6262 7.03589C14.7455 7.31415 15.0589 7.6658 15.0757 7.89055C15.0926 8.09237 14.9213 8.15658 14.9213 8.15658C14.9213 8.15658 15.1399 8.27584 15.1216 8.48224C15.1124 8.58774 14.9351 8.66724 14.9351 8.66724C14.9351 8.66724 15.1063 8.77121 15.0788 8.95315C15.0574 9.09839 14.8831 9.15649 14.8831 9.15649C14.8831 9.15649 15.0008 9.33232 14.932 9.47298C14.7914 9.75888 13.5315 9.70996 13.3557 9.23752C13.2731 9.01736 13.5805 9.04641 13.5805 9.04641C13.5805 9.04641 13.1493 8.89811 13.1524 8.63819C13.1554 8.37827 13.5529 8.43943 13.5529 8.43943C13.5529 8.43943 13.1386 8.29418 13.1692 8.0251C13.2013 7.7453 13.5881 7.87373 13.5881 7.87373C13.5881 7.87373 13.316 7.67345 13.3863 7.47163C13.504 7.13985 14.0177 7.58324 14.296 7.5282L14.4672 7.07717L14.6262 7.03589Z" fill="#FDD5BE"/>
<path d="M14.8634 7.44269C14.7732 7.16902 15.1203 6.84947 15.0729 6.5758C15.0071 6.2058 14.5806 6.54981 14.4674 7.07881L14.4521 7.50538L14.8634 7.44269Z" fill="#FDD5BE"/>
<path d="M14.8586 9.17031C14.8632 9.17031 14.8632 9.17643 14.8602 9.17643C14.4412 9.26052 13.9566 9.22535 13.5652 9.048C13.5529 9.04188 13.556 9.01895 13.5713 9.02201C14.0101 9.12903 14.4076 9.18866 14.8586 9.17031Z" fill="#263238"/>
<path d="M14.9428 8.67192C14.9474 8.67192 14.9474 8.67956 14.9428 8.68109C14.5116 8.76518 13.9658 8.71167 13.5392 8.45328C13.5239 8.44411 13.5209 8.42117 13.5377 8.43035C13.8343 8.58018 14.5361 8.69026 14.9428 8.67192Z" fill="#263238"/>
<path d="M13.5619 7.84638C13.9808 8.07877 14.4303 8.15216 14.9043 8.16286C14.9104 8.16286 14.9104 8.17204 14.9043 8.17357C14.6719 8.23166 14.3707 8.19344 14.1383 8.14452C13.9166 8.09712 13.7255 8.00997 13.5542 7.86167C13.5466 7.85555 13.5527 7.84179 13.5619 7.84638Z" fill="#263238"/>
<path d="M8.84774 4.88326C8.86609 4.95971 9.42108 5.44132 9.76814 5.42603C9.88128 5.42144 9.68711 4.81293 9.68711 4.81293L9.69781 4.76707L9.84153 4.12645L9.08931 3.64332L8.98075 3.5791C8.98075 3.5791 8.95323 3.75646 8.9196 3.97815C8.91807 3.98885 8.91654 3.99802 8.91501 4.01026C8.91348 4.02249 8.91042 4.03472 8.9089 4.04695C8.90431 4.08059 8.89819 4.11422 8.89361 4.14786C8.89055 4.17385 8.88596 4.19831 8.88443 4.22583C8.88137 4.25335 8.87832 4.27934 8.87526 4.30686C8.84621 4.5729 8.84009 4.84963 8.84774 4.88326Z" fill="#FDD5BE"/>
<path d="M8.91992 3.97815C9.10186 4.48881 9.51008 4.69674 9.69661 4.76707L9.84033 4.12645L9.0881 3.64332L8.97955 3.5791C8.98108 3.5791 8.95356 3.75646 8.91992 3.97815Z" fill="#263238"/>
<path d="M10.8296 3.32381C10.744 4.47202 10.0468 4.55 9.79912 4.53165C9.57437 4.51483 8.81144 4.42769 8.77781 3.27641C8.74417 2.12514 9.30528 1.80254 9.82206 1.81324C10.3373 1.827 10.9152 2.1756 10.8296 3.32381Z" fill="#FDD5BE"/>
<path d="M8.8065 3.20002C9.07712 3.24588 9.14439 2.81932 9.14439 2.81932C9.14439 2.81932 9.45629 2.84072 9.55872 2.34841C9.55872 2.34841 9.6581 2.67101 10.0648 2.80097C10.1504 2.82849 9.89203 2.55176 9.89203 2.55176C9.89203 2.55176 10.1948 2.9294 10.8705 2.91411C10.9179 2.91258 10.9317 2.20317 10.4547 1.88362C9.97765 1.56408 9.49145 1.62218 9.1184 1.89585C9.1184 1.89585 8.80803 1.97842 8.70865 2.33007C8.60927 2.68019 8.701 3.18167 8.8065 3.20002Z" fill="#263238"/>
<path d="M8.9708 3.30093C8.9708 3.30093 8.77969 2.90647 8.60539 2.96762C8.42957 3.03031 8.53353 3.5746 8.71089 3.67551C8.88824 3.77642 8.98456 3.61435 8.98456 3.61435L8.9708 3.30093Z" fill="#FDD5BE"/>
<path d="M8.63698 3.1236C8.63393 3.12207 8.6324 3.12666 8.63546 3.12819C8.7593 3.2031 8.80975 3.33765 8.83727 3.47372C8.80517 3.41868 8.75624 3.38199 8.68285 3.41868C8.67827 3.42021 8.68132 3.42632 8.68591 3.42632C8.74248 3.42327 8.77917 3.43855 8.80975 3.48901C8.83116 3.52417 8.84186 3.56545 8.85562 3.60368C8.86021 3.61591 8.88161 3.61438 8.88008 3.59909C8.88008 3.59756 8.88008 3.59756 8.88008 3.59603C8.90913 3.42785 8.81587 3.171 8.63698 3.1236Z" fill="#263238"/>
<path d="M10.6277 3.09892C10.6017 3.09128 10.5788 3.08057 10.5528 3.0714C10.5238 3.0607 10.5008 3.05458 10.4825 3.02859C10.4718 3.01483 10.4764 2.99037 10.4901 2.97967C10.5192 2.95367 10.5574 2.95826 10.5926 2.97049C10.6308 2.98272 10.6568 3.0026 10.6782 3.03624C10.6965 3.06834 10.6614 3.10657 10.6277 3.09892Z" fill="#263238"/>
<path d="M9.89238 2.98887C9.9199 2.98887 9.94437 2.98581 9.97189 2.98429C10.0025 2.98123 10.0269 2.98276 10.0514 2.96288C10.0652 2.95218 10.0667 2.92772 10.059 2.91396C10.0376 2.88185 9.99941 2.87573 9.96271 2.87573C9.92296 2.87726 9.89238 2.88796 9.86181 2.91548C9.83276 2.93995 9.85569 2.98734 9.89238 2.98887Z" fill="#263238"/>
<path d="M10.0141 3.29917C10.0141 3.29612 10.0079 3.30223 10.0079 3.30529C10.0018 3.38326 9.98043 3.47194 9.90704 3.48876C9.90551 3.48876 9.90398 3.49335 9.90704 3.49335C9.99419 3.49182 10.0202 3.37409 10.0141 3.29917Z" fill="#263238"/>
<path d="M9.95483 3.21042C9.83099 3.18596 9.79124 3.4367 9.90591 3.4581C10.019 3.47951 10.0588 3.23029 9.95483 3.21042Z" fill="#263238"/>
<path d="M9.90292 3.21504C9.87845 3.22574 9.85399 3.24715 9.82647 3.24562C9.79589 3.24409 9.77602 3.21351 9.76073 3.18599C9.7592 3.18294 9.75614 3.18446 9.75614 3.18752C9.7485 3.23492 9.7592 3.2869 9.80812 3.30219C9.85399 3.31595 9.89374 3.27926 9.91362 3.23339C9.91821 3.22574 9.91362 3.21046 9.90292 3.21504Z" fill="#263238"/>
<path d="M10.4364 3.36179C10.4379 3.35873 10.4425 3.36638 10.441 3.36944C10.4257 3.44588 10.4211 3.53762 10.4869 3.57431C10.4884 3.57584 10.4884 3.5789 10.4853 3.5789C10.4028 3.55138 10.4089 3.43212 10.4364 3.36179Z" fill="#263238"/>
<path d="M10.5191 3.29151C10.6445 3.30221 10.6139 3.55448 10.4962 3.54378C10.3815 3.53307 10.4136 3.28233 10.5191 3.29151Z" fill="#263238"/>
<path d="M10.5696 3.31439C10.5879 3.32968 10.6047 3.3572 10.6277 3.36179C10.6552 3.36637 10.6781 3.34191 10.6995 3.31898C10.701 3.31592 10.7041 3.31898 10.7026 3.32203C10.698 3.37096 10.675 3.41836 10.6277 3.42141C10.5848 3.42447 10.5589 3.38013 10.5527 3.32968C10.5527 3.32051 10.5619 3.30827 10.5696 3.31439Z" fill="#263238"/>
<path d="M9.91847 3.92462C9.93376 3.94602 9.94599 3.97507 9.97351 3.98272C9.9995 3.99036 10.0331 3.98424 10.0607 3.97966C10.0637 3.97966 10.0652 3.98272 10.0637 3.98424C10.0377 4.01024 9.99186 4.01941 9.95822 4.00565C9.92458 3.99189 9.91388 3.95825 9.91235 3.92462C9.91082 3.92309 9.91694 3.92156 9.91847 3.92462Z" fill="#263238"/>
<path d="M10.2836 3.69224C10.2836 3.69224 10.282 3.80996 10.2744 3.865C10.2728 3.86959 10.2606 3.87112 10.2407 3.86959C10.2392 3.86959 10.2392 3.86959 10.2392 3.86959C10.1398 3.87112 10.0481 3.82372 10.0007 3.73504C9.99764 3.72893 10.0053 3.72434 10.0099 3.72893C10.0741 3.79161 10.1521 3.81761 10.2377 3.83137C10.2438 3.81608 10.2331 3.62802 10.2407 3.62955C10.2713 3.63108 10.3264 3.66013 10.3615 3.67542C10.3707 3.42926 10.3401 3.18311 10.3524 2.93848C10.3524 2.92931 10.3661 2.92931 10.3676 2.93695C10.4181 3.19228 10.4135 3.47666 10.4105 3.73046C10.4105 3.76257 10.305 3.70447 10.2836 3.69224Z" fill="#263238"/>
<path d="M10.21 3.83425C10.21 3.83425 10.1565 3.89388 10.0877 3.9107C10.0632 3.91682 10.0372 3.91682 10.0097 3.90764C9.9562 3.88777 9.95926 3.83578 9.97455 3.79297C9.98678 3.75781 10.0067 3.72876 10.0067 3.72876C10.0067 3.72876 10.08 3.81285 10.21 3.83425Z" fill="#263238"/>
<path d="M10.0877 3.90923C10.0632 3.91535 10.0372 3.91535 10.0097 3.90617C9.9562 3.8863 9.95926 3.83431 9.97455 3.7915C10.0342 3.80526 10.0892 3.85113 10.0877 3.90923Z" fill="#F499BB"/>
<path d="M10.8094 2.1878C10.6779 2.15569 9.94097 2.17863 9.6092 2.32082C9.27895 2.46301 8.69032 2.9385 8.66127 2.96449C8.63069 2.98895 8.47933 1.77499 9.46395 1.55483C10.5372 1.31173 10.8094 2.1878 10.8094 2.1878Z" fill="#FFC829"/>
<path d="M8.71777 2.91241C8.71777 2.91241 9.36909 2.05469 9.72991 1.85746C10.0923 1.66176 10.9011 1.55015 11.4025 1.77031C11.7924 1.94155 10.8399 2.44456 10.8399 2.44456C10.8399 2.44456 10.8139 2.30543 10.6885 2.25651C10.4439 2.16019 9.98218 2.2351 9.71768 2.32378C9.38591 2.43539 8.71777 2.91241 8.71777 2.91241Z" fill="#FFC829"/>
<path opacity="0.2" d="M8.71777 2.91241C8.71777 2.91241 9.36909 2.05469 9.72991 1.85746C10.0923 1.66176 10.9011 1.55015 11.4025 1.77031C11.7924 1.94155 10.8399 2.44456 10.8399 2.44456C10.8399 2.44456 10.8139 2.30543 10.6885 2.25651C10.4439 2.16019 9.98218 2.2351 9.71768 2.32378C9.38591 2.43539 8.71777 2.91241 8.71777 2.91241Z" fill="#010101"/>
<path d="M9.68571 4.81139L9.52976 5.33733L8.83869 4.75635L8.67969 4.97957C8.67969 4.97957 9.39216 5.93973 9.39216 5.89386L9.56034 5.43671L9.89059 5.71192L9.79426 4.95052L9.68571 4.81139Z" fill="#FFC829"/>
<path d="M9.86305 5.33278C9.84317 5.20741 9.82635 5.08051 9.80036 4.95667C9.79883 4.95208 9.79272 4.95055 9.79119 4.95667C9.77743 5.08051 9.85693 5.55906 9.86763 5.67373L9.8661 5.6722C9.85234 5.65997 9.56185 5.43063 9.55879 5.43522C9.52057 5.50861 9.39673 5.84191 9.38908 5.87096C9.27594 5.71807 8.84632 5.1646 8.71636 5.02394C8.7133 5.01936 8.70566 5.02394 8.70872 5.02853C8.81115 5.19059 9.37991 5.9367 9.38755 5.93365C9.39367 5.9367 9.54656 5.52696 9.56185 5.45051C9.6123 5.50096 9.90891 5.76241 9.90891 5.74406C9.90586 5.62022 9.88445 5.45815 9.86305 5.33278Z" fill="#263238"/>
<defs>
<linearGradient id="paint0_linear_2793_52617" x1="20.5005" y1="42.0001" x2="20.5005" y2="18.0502" gradientUnits="userSpaceOnUse">
<stop stop-color="#8CBFD3"/>
<stop offset="0.31" stop-color="#C6E2EC"/>
<stop offset="0.47" stop-color="#DFF2F7"/>
</linearGradient>
<linearGradient id="paint1_linear_2793_52617" x1="0.909972" y1="27.6757" x2="40.0911" y2="27.6757" gradientUnits="userSpaceOnUse">
<stop offset="0.26" stop-color="#B4DBE5"/>
<stop offset="0.29" stop-color="#AFD7E3"/>
<stop offset="0.49" stop-color="#95C5D7"/>
<stop offset="0.6" stop-color="#8CBFD3"/>
</linearGradient>
</defs>
</svg>
