<svg width="25" height="24" viewBox="0 0 25 24" fill="none" xmlns="http://www.w3.org/2000/svg">
<path d="M19.84 14.49L18.84 12.83C18.63 12.46 18.44 11.76 18.44 11.35V8.82C18.44 6.47 17.06 4.44 15.07 3.49C14.55 2.57 13.59 2 12.49 2C11.4 2 10.42 2.59 9.9 3.52C7.95 4.49 6.6 6.5 6.6 8.82V11.35C6.6 11.76 6.41 12.46 6.2 12.82L5.19 14.49C4.79 15.16 4.7 15.9 4.95 16.58C5.19 17.25 5.76 17.77 6.5 18.02C8.44 18.68 10.48 19 12.52 19C14.56 19 16.6 18.68 18.54 18.03C19.24 17.8 19.78 17.27 20.04 16.58C20.3 15.89 20.23 15.13 19.84 14.49Z" fill="#87868C"/>
<path d="M15.33 20.01C14.91 21.17 13.8 22 12.5 22C11.71 22 10.93 21.68 10.38 21.11C10.06 20.81 9.81999 20.41 9.67999 20C9.80999 20.02 9.93999 20.03 10.08 20.05C10.31 20.08 10.55 20.11 10.79 20.13C11.36 20.18 11.94 20.21 12.52 20.21C13.09 20.21 13.66 20.18 14.22 20.13C14.43 20.11 14.64 20.1 14.84 20.07C15 20.05 15.16 20.03 15.33 20.01Z" fill="#87868C"/>
</svg>
