<svg width="149" height="56" viewBox="0 0 149 56" fill="none" xmlns="http://www.w3.org/2000/svg">
<path d="M13.9585 12.1242C18.2061 12.1242 21.4307 15.411 21.4307 19.6026C21.4307 23.8005 18.1813 27.0842 13.9585 27.0842C9.73571 27.0842 6.48 23.7788 6.48 19.6026C6.48 15.4265 9.71394 12.1242 13.9585 12.1242ZM0.4599 0V16.5926C0.466119 17.6436 0.490995 18.6418 0.500324 19.6026C0.584282 27.0936 5.83632 33.2412 13.9585 33.2412C20.9674 33.2412 26.0795 28.6763 27.342 22.5878V32.6006H33.7539V20.1219C33.7539 19.5498 33.7881 18.9217 33.8099 18.3371C33.9281 14.5372 36.4157 12.2672 40.3773 12.2019C39.0028 14.3382 38.2006 16.8756 38.2006 19.6026C38.2006 27.1651 44.3326 33.2909 51.8951 33.2909C58.5589 33.2909 64.1032 28.5364 65.3284 22.2333V22.2644C65.3284 28.8411 70.6146 33.3251 76.9736 33.3251C79.6541 33.3251 82.0267 32.1746 83.8333 30.2964V32.6006H90.2297V18.8719C90.2359 18.6138 90.2483 18.3961 90.2577 18.1847C90.4163 13.8251 92.9692 11.9314 95.7771 11.9314C98.5633 11.9314 100.97 13.8313 101.063 18.166C101.085 18.5392 101.088 18.7879 101.088 19.2139V32.6006L107.572 32.6037V22.4044C108.775 28.9873 114.344 33.238 120.993 33.238C128.515 33.238 132.768 28.4213 133.907 23.3839H127.631C127.084 25.175 124.861 27.9269 120.989 27.9269C117.5 27.9269 114.531 25.5419 113.778 21.6581H134.615V32.6006H141.04V20.1219C141.04 19.5498 141.074 18.9217 141.086 18.3371C141.214 14.475 143.773 12.1957 147.834 12.1957H148.54V6.06985H147.834C139.33 6.06985 134.802 10.8399 134.622 17.0186C133.397 10.2957 127.591 5.90194 120.986 5.90194C114.397 5.90194 108.778 10.2895 107.572 16.9626C107.565 11.0358 102.942 5.91438 96.9277 5.91438C94.3125 5.91438 92.0457 6.92498 90.2297 8.67877V0.0528625H83.8333V19.2606C83.8333 19.8918 83.8053 20.2992 83.7183 21.2352C83.3265 25.2216 80.6429 27.19 77.7137 27.19C74.6757 27.19 71.9393 25.7565 71.8522 21.2538C71.8367 20.4733 71.818 20.1499 71.818 19.5995V12.4071H81.781V6.37459H71.818V0.0528625H65.3284V16.972C64.1032 10.672 58.5557 5.91438 51.8951 5.91438C47.6008 5.91438 43.776 7.88584 41.2635 10.9736V6.07296H40.5545C32.1929 6.07296 27.681 10.6844 27.3576 16.7108C26.1355 10.6036 21.0856 6.07296 14.7017 6.07296C11.3558 6.07296 8.74998 7.28569 6.71011 9.32867V0H0.4599ZM51.8982 12.1242C56.1427 12.1242 59.3767 15.411 59.3767 19.6026C59.3767 23.8005 56.121 27.0842 51.8982 27.0842C47.6754 27.0842 44.4197 23.7788 44.4197 19.6026C44.4197 15.4265 47.6505 12.1242 51.8982 12.1242ZM120.989 11.3095C125.05 11.3095 127.476 14.5652 127.945 16.5988H114.064C115.119 13.3307 117.833 11.3095 120.989 11.3095Z" fill="#0D2EA0"/>
<path d="M34.239 45.2005C34.239 43.1793 33.4896 41.0773 30.3832 41.0773C29.1145 41.0773 27.8831 41.4286 27.0497 41.9511L27.4664 43.1793C28.1754 42.7036 29.1549 42.4299 30.1126 42.4299C32.1774 42.4082 32.4044 43.9287 32.4044 44.7652V44.9704C28.5081 44.9518 26.3407 46.2858 26.3407 48.7268C26.3407 50.182 27.3824 51.6218 29.4254 51.6218C30.8651 51.6218 31.969 50.9128 32.5101 50.1199H32.5723L32.7402 51.3948H34.3851C34.2825 50.7045 34.2421 49.8555 34.2421 48.9786V45.2005H34.239ZM32.4448 47.996C32.4448 48.1826 32.423 48.3909 32.3608 48.5775C32.0685 49.4326 31.2134 50.266 29.8825 50.266C28.9652 50.266 28.1723 49.6939 28.1723 48.5153C28.1723 46.5594 30.4453 46.1987 32.4448 46.2422V47.996Z" fill="#0D2EA0"/>
<path d="M39.1801 38.7047V41.3042H41.8077V42.6724H39.1801V48.1422C39.1801 49.6689 39.7274 50.0981 40.5918 50.0981C40.9961 50.0981 41.2728 50.0576 41.618 49.9768L41.7019 51.3699C41.3816 51.4849 40.8219 51.6217 40.0787 51.6217C38.4524 51.6217 37.389 50.6018 37.389 48.4469V42.6693H35.828V41.3011H37.389V39.2613L39.1801 38.7047Z" fill="#0D2EA0"/>
<path d="M49.1617 41.3042L51.3509 47.2652C51.5996 47.9369 51.836 48.6552 52.0008 49.2616H52.0443C52.2309 48.6552 52.4548 47.9555 52.7066 47.2217L54.7092 41.3042H56.6464L53.8945 48.4966C52.5854 51.9544 51.6867 53.73 50.4335 54.8308C49.5193 55.6019 48.6424 55.916 48.1822 56L47.7251 54.4576C48.1822 54.3332 48.7855 54.0409 49.3297 53.559C49.8303 53.164 50.4335 52.4551 50.872 51.516C50.9528 51.3263 51.0181 51.205 51.0181 51.0806C51.0181 50.978 50.9746 50.8319 50.872 50.6204L47.1623 41.3042H49.1617Z" fill="#0D2EA0"/>
<path d="M61.8301 51.6218C64.2245 51.6218 66.8334 49.9955 66.8334 46.2422C66.8334 43.1793 64.8743 41.0773 61.9793 41.0773C59.2056 41.0773 56.9761 43.0581 56.9761 46.4319C56.9761 49.6223 59.103 51.6218 61.8114 51.6218H61.8301ZM61.8705 50.294C60.0981 50.294 58.8511 48.6024 58.8511 46.3697C58.8511 44.4325 59.7902 42.4019 61.9327 42.4019C64.1001 42.4019 64.9552 44.5817 64.9552 46.3075C64.9552 48.6242 63.643 50.294 61.8892 50.294H61.8705Z" fill="#0D2EA0"/>
<path d="M77.0669 48.6428C77.0669 49.6845 77.0856 50.6018 77.1509 51.3948H75.5526L75.45 49.7467H75.4064C74.9493 50.5583 73.8641 51.6218 72.0699 51.6218C70.4871 51.6218 68.5903 50.7231 68.5903 47.2062V41.3074H70.3938V46.8735C70.3938 48.8667 71.0313 50.1167 72.6793 50.1167C73.9076 50.1167 74.7596 49.2492 75.0955 48.4158C75.1981 48.1639 75.2603 47.8281 75.2603 47.4767V41.3074H77.07V48.6428H77.0669Z" fill="#0D2EA0"/>
<path d="M79.8966 44.4511C79.8966 43.2664 79.8842 42.2434 79.8158 41.3043H81.4639L81.5571 43.2851H81.6256C82.1324 41.9262 83.37 41.0773 84.7165 41.0773C84.9248 41.0773 85.0865 41.0928 85.27 41.1363V42.8466C85.043 42.8248 84.8346 42.8062 84.5641 42.8062C83.1399 42.8062 82.1324 43.7857 81.8557 45.1415C81.809 45.4089 81.7841 45.7074 81.7841 46.0152V51.3948H79.8998V44.4511H79.8966Z" fill="#0D2EA0"/>
<path d="M89.3528 49.6286C90.0524 49.9395 91.2092 50.2473 92.1047 50.2473C93.5476 50.2473 94.3903 49.6006 94.3903 48.7454C94.3903 47.9867 93.8896 47.5545 91.9866 46.8952C89.9809 46.1925 89.1351 45.2907 89.1351 44.0718C89.1351 42.4455 90.2919 41.0773 92.8915 41.0773C94.0171 41.0773 95.0246 41.3447 95.6528 41.6805L95.1801 42.9337C94.5799 42.6414 93.7528 42.4268 92.8666 42.4268C91.5575 42.4268 90.8298 43.1327 90.8298 43.8043C90.8298 44.504 91.1812 44.787 93.1682 45.4742C95.2609 46.1925 96.085 47.1098 96.085 48.5371C96.085 50.3282 94.723 51.6156 92.0581 51.6156C90.8454 51.6156 89.6358 51.3419 88.8553 50.9252L89.3528 49.6286Z" fill="#0D2EA0"/>
<path d="M99.0702 39.4478C98.3829 39.4478 97.9227 38.9099 97.9227 38.26C97.9227 37.6163 98.4047 37.0939 99.1106 37.0939C99.8196 37.0939 100.277 37.6163 100.277 38.26C100.277 38.9099 99.8164 39.4478 99.0888 39.4478H99.0702ZM98.215 41.3042H100.006V51.3916H98.215V41.3042Z" fill="#0D2EA0"/>
<path d="M109.696 37.1686V42.5979H109.652C109.214 41.8049 108.172 41.0773 106.611 41.0773C104.173 41.0773 102.068 43.1203 102.086 46.4941C102.086 49.5602 103.983 51.6218 106.421 51.6218C108.069 51.6218 109.276 50.7698 109.839 49.6441H109.882L109.966 51.3948H111.567C111.508 50.7045 111.487 49.6845 111.487 48.789V37.1686H109.696ZM109.696 47.1596C109.696 47.4519 109.674 47.7038 109.615 47.9525C109.279 49.3052 108.153 50.1385 106.925 50.1385C104.966 50.1385 103.943 48.45 103.943 46.3884C103.943 44.1775 105.072 42.5108 106.965 42.5108C108.34 42.5108 109.341 43.4716 109.615 44.616C109.674 44.8678 109.696 45.157 109.696 45.4058V47.1596Z" fill="#0D2EA0"/>
<path d="M121.928 46.6931C121.969 46.4817 121.988 46.1987 121.988 45.8256C121.988 43.9692 121.132 41.0773 117.839 41.0773C114.901 41.0773 113.088 43.4747 113.088 46.5377C113.088 49.5601 114.963 51.6218 118.051 51.6218C119.413 51.6218 120.467 51.3979 121.422 50.9501L121.092 49.6814C120.427 49.9551 119.615 50.1821 118.303 50.1821C116.468 50.1821 114.904 49.1746 114.864 46.6931H121.928ZM114.879 45.3685C115.025 44.0998 115.821 42.3895 117.693 42.3895C119.736 42.3895 120.237 44.2241 120.218 45.3685H114.879Z" fill="#0D2EA0"/>
</svg>
