<svg width="24" height="24" viewBox="0 0 24 24" fill="none" xmlns="http://www.w3.org/2000/svg">
<path d="M9.49893 22C10.8796 22 11.9988 20.8808 11.9988 19.5001C11.9988 18.1194 10.8796 17.0002 9.49893 17.0002C8.11827 17.0002 6.99902 18.1194 6.99902 19.5001C6.99902 20.8808 8.11827 22 9.49893 22Z" stroke="#333333" stroke-width="1.5" stroke-linecap="round" stroke-linejoin="round"/>
<path d="M2.00195 19.5L7.00176 19.5" stroke="#333333" stroke-width="1.5" stroke-linecap="round" stroke-linejoin="round"/>
<path d="M12 19.5L21.9996 19.5" stroke="#333333" stroke-width="1.5" stroke-linecap="round" stroke-linejoin="round"/>
<path d="M16.9989 14.5C18.3796 14.5 19.4988 13.3808 19.4988 12.0001C19.4988 10.6195 18.3796 9.50021 16.9989 9.50021C15.6183 9.50021 14.499 10.6195 14.499 12.0001C14.499 13.3808 15.6183 14.5 16.9989 14.5Z" stroke="#333333" stroke-width="1.5" stroke-linecap="round" stroke-linejoin="round"/>
<path d="M2 12.0013L14.4995 12.0013" stroke="#333333" stroke-width="1.5" stroke-linecap="round" stroke-linejoin="round"/>
<path d="M19.5 12.0013L21.9999 12.0013" stroke="#333333" stroke-width="1.5" stroke-linecap="round" stroke-linejoin="round"/>
<path d="M5.75088 7.00098C7.13154 7.00098 8.25079 5.88173 8.25079 4.50107C8.25079 3.12041 7.13154 2.00117 5.75088 2.00117C4.37022 2.00117 3.25098 3.12041 3.25098 4.50107C3.25098 5.88173 4.37022 7.00098 5.75088 7.00098Z" stroke="#333333" stroke-width="1.5" stroke-linecap="round" stroke-linejoin="round"/>
<path d="M2.00195 4.50127L3.25191 4.50127" stroke="#333333" stroke-width="1.5" stroke-linecap="round" stroke-linejoin="round"/>
<path d="M8.25 4.50098L21.9995 4.50098" stroke="#333333" stroke-width="1.5" stroke-linecap="round" stroke-linejoin="round"/>
</svg>
