<svg width="37" height="42" viewBox="0 0 37 42" fill="none" xmlns="http://www.w3.org/2000/svg">
<path opacity="0.2" d="M16.4869 41.5645L1.157 32.7144C0.0473786 32.0734 0.18714 30.9539 1.46899 30.2142L16.1778 20.4987C17.4596 19.7589 19.4007 19.6785 20.5104 20.3194L35.8431 30.3935C36.9527 31.0344 36.813 32.1539 35.5311 32.8965L20.8223 41.388C19.5405 42.1278 17.5994 42.2082 16.4898 41.5673L16.4869 41.5645Z" fill="url(#paint0_linear_2793_52244)"/>
<path d="M34.9004 27.6801L20.5177 18.151C19.4081 17.51 17.4684 17.5919 16.1851 18.3302L2.11445 27.6801L0.414735 26.4561V29.3869C0.383677 29.8217 0.627906 30.2382 1.16154 30.5473L16.4915 39.3974C17.6011 40.0384 19.5408 39.9565 20.8241 39.2182L35.5328 30.7266C36.1978 30.3426 36.5578 29.8542 36.5916 29.3869V26.4561L34.8919 27.6801H34.9004Z" fill="url(#paint1_linear_2793_52244)"/>
<path d="M16.4869 36.4695L1.157 27.6151C0.0473786 26.9742 0.18714 25.8547 1.46899 25.115L16.1778 16.6206C17.4596 15.8809 19.4007 15.799 20.5104 16.4413L35.8431 25.2914C36.9527 25.9323 36.813 27.0519 35.5311 27.7944L20.8223 36.286C19.5405 37.0257 17.5994 37.1076 16.4898 36.4652L16.4869 36.4695Z" fill="#E9F6FB"/>
<path opacity="0.2" d="M26.6604 29.2529C29.5023 29.2529 31.8061 27.9225 31.8061 26.2813C31.8061 24.64 29.5023 23.3096 26.6604 23.3096C23.8185 23.3096 21.5146 24.64 21.5146 26.2813C21.5146 27.9225 23.8185 29.2529 26.6604 29.2529Z" fill="#87B2B9"/>
<path opacity="0.2" d="M21.1442 34.6908L28.2664 30.5812C28.4541 30.4725 28.4541 30.2975 28.2664 30.1888L13.1397 21.4502C12.952 21.3415 12.647 21.3415 12.4593 21.4502L5.33711 25.5597C5.14935 25.6684 5.14935 25.8435 5.33711 25.9522L20.4638 34.6908C20.6515 34.7995 20.9565 34.7995 21.1442 34.6908Z" fill="#87B2B9"/>
<path d="M20.1987 6.65391C20.793 6.9659 22.5351 7.86658 22.5351 7.86658C22.5351 7.86658 23.2649 6.45203 23.5543 5.87746C23.9934 5.00501 24.4014 4.72408 24.9604 4.67749L24.7317 7.34424C24.7317 7.34424 24.0851 8.36774 23.759 8.92255C23.3115 9.68347 22.9981 9.75971 22.7821 9.75547C22.1031 9.73288 21.6429 9.24443 20.0801 7.96117L20.1987 6.65391Z" fill="#FDD5BE"/>
<path d="M25.0241 4.61401C24.6302 4.64648 24.2251 4.78907 23.8862 5.26341C23.5474 5.73634 22.8613 7.16642 22.8613 7.16642C22.8613 7.16642 23.0025 7.50241 23.4048 7.79887C23.8072 8.09533 24.2307 8.21533 24.2307 8.21533L24.8307 7.24406L25.0241 4.61401Z" fill="#FFCF30"/>
<path d="M22.5361 7.86661C22.8933 8.0459 23.1234 8.28025 23.2434 8.74753C23.2547 8.43836 23.1079 7.96825 22.6194 7.7085L22.5361 7.86661Z" fill="#CB8B8C"/>
<path d="M18.859 7.71958C19.2754 7.85934 19.555 7.83817 19.8302 7.89323C20.0152 7.92993 20.2439 8.1064 20.4246 8.24333C20.4246 8.24333 21.0726 7.34124 20.5658 6.84572C20.3709 6.74408 20.1451 6.61985 19.9997 6.5295C19.9065 6.47162 19.771 6.23445 19.7159 6.1441C19.6213 5.99022 19.4674 5.87587 19.3319 5.76293C19.2401 5.68529 19.1597 5.59493 19.0707 5.51447C19.0411 5.48764 19.0086 5.44388 18.9663 5.46647C18.9267 5.48623 18.89 5.54129 18.8929 5.6147C18.8985 5.80952 19.034 5.93657 19.1216 6.10033C19.1286 6.11304 19.1343 6.12857 19.1272 6.14127C19.1187 6.1568 19.0947 6.15539 19.0778 6.15115C18.9267 6.11869 18.7503 6.07916 18.595 6.10174C18.578 6.10457 18.5597 6.1088 18.5442 6.11586C18.4468 6.1681 18.427 6.33468 18.4213 6.43209C18.4129 6.57608 18.4425 6.72008 18.5032 6.84996C18.6995 7.2763 18.859 7.71958 18.859 7.71958Z" fill="#CB8B8C"/>
<path d="M18.2013 4.42749L21.8577 5.41993L23.1523 9.58735L23.0789 9.67911L19.5975 8.66408L18.1279 4.51784L18.2013 4.42749Z" fill="#FCB325"/>
<path opacity="0.35" d="M21.7842 5.51168L23.0787 9.6791L23.1521 9.58734L21.8576 5.41992L21.7842 5.51168Z" fill="black"/>
<path d="M18.1279 4.51782L21.7843 5.51168L23.0789 9.67909L19.5975 8.66406L18.1279 4.51782Z" fill="#FFC829"/>
<g opacity="0.1">
<path d="M19.2658 5.30698C19.2658 5.30698 19.2474 5.24487 19.2263 5.16722C19.2037 5.08958 19.4168 5.11499 19.7006 5.2251L20.3585 5.37192C20.6422 5.48063 20.909 5.55827 20.9302 5.63592L20.9697 5.77568L19.2658 5.30698Z" fill="black"/>
</g>
<path d="M19.0065 4.67883C18.9923 4.63084 19.0742 4.63507 19.19 4.65625L19.4003 4.7113C19.4003 4.7113 19.3015 4.51084 19.797 4.60684C20.342 4.71272 20.373 4.97812 20.373 4.97812C20.373 4.97812 20.4365 5.00353 20.637 5.05294C20.8191 5.09812 20.8403 5.13059 20.8587 5.18L20.8911 5.26752L19.0276 4.76213C19.0291 4.76213 19.0206 4.72825 19.0065 4.67883Z" fill="#37474F"/>
<path d="M19.2177 4.93712C19.3914 5.00065 19.4648 5.03312 19.4987 5.15171C19.5382 5.28723 19.5481 5.34511 19.5481 5.34511L20.5207 5.64863C20.5207 5.64863 20.4544 5.44958 20.4375 5.38182C20.4205 5.31547 20.5447 5.30558 20.7141 5.36911L20.6619 5.20253L19.1514 4.76489L19.2177 4.93712Z" fill="#37474F"/>
<path d="M19.216 5.3126C19.216 5.3126 19.1976 5.25048 19.1764 5.17284C19.1539 5.09519 19.367 5.1206 19.6508 5.23072L20.3087 5.37754C20.5924 5.48624 20.8592 5.56389 20.8804 5.64153L20.9199 5.78129L19.216 5.3126Z" fill="#37474F"/>
<path d="M18.2051 6.39258C18.0837 6.22317 18.095 6.20059 18.1614 6.11447C18.2277 6.02836 18.3745 5.88577 18.5962 5.89283C18.7458 5.89707 18.8955 5.89424 18.9731 5.93377C19.0493 5.9733 18.9844 6.13565 18.7896 6.178C18.4832 6.24576 18.4847 6.32905 18.4847 6.32905C18.4847 6.32905 18.767 6.26694 18.8799 6.25988C18.9929 6.25423 19.2004 6.30788 19.3289 6.32764C19.4573 6.34741 19.4827 6.51399 19.2639 6.57187C19.2639 6.57187 19.4263 6.59869 19.5011 6.60999C19.6663 6.63681 19.7227 6.72434 19.5929 6.82739C19.5618 6.85139 19.5194 6.87963 19.4432 6.88386C19.4432 6.88386 19.6197 6.88386 19.6239 6.94174C19.6338 7.10974 19.5251 7.1535 19.1679 7.25656C19.0677 7.2862 18.9406 7.41044 18.8898 7.45279C18.8319 7.51914 18.8362 7.61372 18.8588 7.71819L18.5566 7.54737C18.4677 7.48526 18.4014 7.3695 18.4409 7.22974C18.4409 7.22974 18.2461 7.23397 18.2348 7.11397C18.2235 6.99398 18.2814 6.85704 18.2814 6.85704C18.2814 6.85704 18.167 6.80057 18.1741 6.65799C18.1811 6.5154 18.2447 6.44764 18.2447 6.44764L18.2051 6.39258Z" fill="#FDD5BE"/>
<path d="M19.2644 6.57316C19.1924 6.56187 19.1261 6.54634 19.0498 6.54916C18.9708 6.55622 18.9058 6.58869 18.8423 6.61552C18.7138 6.6734 18.5868 6.73551 18.4668 6.81598C18.6066 6.7821 18.7378 6.72987 18.8663 6.6734C18.9313 6.64516 18.9948 6.61269 19.0555 6.59858C19.1204 6.58728 19.1952 6.58587 19.2644 6.57316Z" fill="#CB8B8C"/>
<path d="M19.4427 6.88376C19.3693 6.86117 19.2875 6.85976 19.2098 6.8767C19.1322 6.89082 19.0602 6.91764 18.9882 6.94587C18.847 7.00517 18.7101 7.07434 18.583 7.16187C18.7312 7.11952 18.871 7.06022 19.0122 7.00375C19.1519 6.9487 19.2875 6.88658 19.4427 6.88376Z" fill="#CB8B8C"/>
<path d="M29.6756 20.4975L27.5566 20.4114C27.5962 20.6189 27.6343 20.8208 27.6696 21.0114C27.894 22.5261 28.2103 23.5694 28.2526 24.3261C28.2667 24.5068 28.47 26.3237 28.542 26.7317C28.614 27.1397 29.5444 27.1877 29.6319 26.4945C29.6898 26.0329 29.646 24.4433 29.6375 24.2216C29.5938 23.0654 29.6982 22.2664 29.6756 20.4975Z" fill="#FDD5BE"/>
<path d="M25.7931 23.5847C25.7931 23.4224 25.9244 21.8638 26.1559 20.5481L24.0468 20.606C24.1612 22.0346 24.2628 23.3405 24.2685 23.5099C24.2981 24.2722 24.0313 24.5278 23.8591 24.7113C23.4991 25.0967 23.0614 25.3409 22.501 25.6543C22.573 25.8209 23.4539 25.8816 23.7264 25.7461C24.1612 25.5301 24.8543 24.9908 25.0068 24.8877C25.7465 24.3922 25.8115 23.7852 25.8115 23.7852L25.7931 23.5847Z" fill="#C8856A"/>
<path d="M26.4807 14.4284L26.0755 12.3051C26.0755 12.3051 24.7273 12.1908 24.2275 11.7588C24.2275 11.7588 24.8656 12.5649 25.7818 12.675L26.2138 14.4326L26.091 17.3718L26.4807 14.4284Z" fill="#FABCA7"/>
<path d="M22.1933 26.2345C22.2004 26.3009 22.1453 26.514 22.3204 26.6609C22.4757 26.7907 22.967 26.9658 23.5556 26.8147C24.1443 26.6623 24.4168 26.4434 24.63 26.219C24.8431 25.9945 24.9885 25.6613 25.3852 25.4835C25.621 25.3776 25.8878 25.2519 25.9584 25.1672C26.029 25.0825 25.94 24.6873 25.94 24.6873L22.1933 26.2345Z" fill="#263238"/>
<path d="M25.7927 23.5848C25.7927 23.5848 25.8675 23.5763 25.8929 23.6511C25.924 23.7401 25.8718 23.7824 25.9155 24.0845C25.9466 24.3005 25.9777 24.4106 25.9762 24.8652C25.9762 25.0403 25.6685 25.1955 25.324 25.3424C25.06 25.4539 24.7805 25.7659 24.525 26.0609C24.0874 26.5677 23.4238 26.7174 22.7716 26.6214C22.581 26.5932 22.3566 26.5353 22.2549 26.3602C22.2013 26.2699 22.1985 26.1823 22.2267 26.0849C22.2606 25.9706 22.2761 25.8675 22.358 25.7744C22.4441 25.6755 22.5599 25.6078 22.6714 25.5372C22.8013 25.4567 22.9283 25.3706 23.054 25.2845C23.4154 25.036 23.7909 24.772 23.9885 24.3866C24.0224 24.3217 24.0633 24.2666 24.0873 24.196C24.1142 24.117 24.1283 24.0351 24.1311 23.9518C24.1325 23.908 24.1297 23.8629 24.1382 23.8191C24.1466 23.7753 24.165 23.7316 24.2017 23.7048C24.2356 23.6793 24.2808 23.6709 24.3231 23.6681C24.4008 23.6624 24.4798 23.6666 24.5575 23.6751C24.6789 23.6878 24.7989 23.709 24.916 23.7386C24.9951 23.7584 25.0756 23.7824 25.1433 23.8276C25.2337 23.8883 25.2944 23.9885 25.3057 24.0958C25.3141 24.1678 25.3014 24.2426 25.3283 24.309C25.365 24.2426 25.3974 24.1735 25.4271 24.1029C25.4539 24.0407 25.4694 23.973 25.5047 23.9165C25.5499 23.8459 25.6078 23.7782 25.684 23.7372C25.7151 23.7203 25.7574 23.7033 25.7871 23.6836L25.7927 23.5848Z" fill="#37474F"/>
<path d="M22.697 25.5245C23.5666 25.4695 23.9068 26.1725 23.9873 26.4859C23.784 26.5862 23.5694 26.6638 23.3916 26.6892C22.7972 26.7753 22.3991 26.6059 22.2523 26.4153C22.0787 26.1909 22.1154 25.8267 22.697 25.5245Z" fill="#FAFBFB"/>
<path d="M23.9231 25.5133C23.9329 25.5119 23.9414 25.5076 23.9485 25.5006C23.964 25.4836 23.964 25.4582 23.9471 25.4427C23.8073 25.317 23.4035 25.1109 23.0958 25.1843C23.0732 25.19 23.0591 25.2126 23.0647 25.2338C23.0704 25.2563 23.093 25.269 23.1155 25.2634C23.4035 25.1956 23.7791 25.4018 23.8892 25.502C23.8976 25.5105 23.9103 25.5147 23.9231 25.5133Z" fill="#F1F0F0"/>
<path d="M24.2629 25.242C24.2728 25.2406 24.2812 25.2364 24.2883 25.2293C24.3038 25.2124 24.3038 25.187 24.2869 25.1715C24.1471 25.0458 23.7434 24.8397 23.4356 24.9131C23.413 24.9188 23.3989 24.9413 23.4046 24.9625C23.4102 24.9837 23.4314 24.9978 23.4554 24.9922C23.7434 24.9244 24.1189 25.1305 24.229 25.2307C24.2375 25.2406 24.2502 25.2434 24.2629 25.242Z" fill="#F1F0F0"/>
<path d="M24.5725 24.974C24.5823 24.9726 24.5908 24.9683 24.5979 24.9613C24.6134 24.9443 24.6134 24.9189 24.5965 24.9034C24.4567 24.7777 24.0515 24.5716 23.7452 24.645C23.7226 24.6507 23.7085 24.6733 23.7141 24.6944C23.7198 24.717 23.7424 24.7297 23.765 24.7241C24.053 24.6563 24.4285 24.8624 24.5386 24.9627C24.5471 24.9726 24.5612 24.9754 24.5725 24.974Z" fill="#F1F0F0"/>
<path d="M24.9086 24.6153C24.917 24.6139 24.9269 24.6097 24.934 24.6026C24.9509 24.5857 24.9495 24.5603 24.9326 24.5447C24.7406 24.3654 24.3171 24.2186 24.0079 24.292C23.9853 24.2977 23.9712 24.3203 23.9768 24.3414C23.9825 24.364 24.0051 24.3767 24.0277 24.3711C24.3058 24.3047 24.7025 24.4445 24.8733 24.6026C24.8832 24.6125 24.8959 24.6167 24.9086 24.6153Z" fill="#F1F0F0"/>
<path d="M28.2354 27.0353C28.2438 27.439 28.2989 27.7087 28.4401 27.9515C28.5812 28.1943 28.8636 28.279 29.1544 28.2226C29.4452 28.1647 29.8221 27.9953 29.9181 27.6508C30.0141 27.3063 30.072 27.0706 30.0226 26.6951L28.2354 27.0353Z" fill="#263238"/>
<path d="M29.6316 24.0776C29.7502 24.0918 29.6966 24.7228 29.7432 25.2663C29.7926 25.8494 29.9662 26.0964 30.0128 26.575C30.0664 27.1213 29.9606 27.3613 29.746 27.6818C29.5314 28.0022 28.8072 28.2959 28.4754 27.8117C28.2044 27.4164 28.21 26.99 28.258 26.4479C28.3074 25.8875 28.282 25.4978 28.275 25.0701C28.2679 24.6621 28.131 24.2033 28.2354 24.1623C28.2411 24.223 28.2453 24.2993 28.251 24.3572C28.258 24.4292 28.2552 24.5054 28.2806 24.576C28.2919 24.607 28.3173 24.6395 28.33 24.5901C28.3385 24.5576 28.3371 24.5223 28.3342 24.4884C28.323 24.3374 28.4034 24.3289 28.4472 24.319C28.5418 24.2979 29.0373 24.2245 29.1262 24.223C29.2166 24.2202 29.5314 24.2202 29.5695 24.271C29.5963 24.3049 29.5977 24.3614 29.6034 24.4306C29.6105 24.5124 29.6274 24.5732 29.6316 24.5477C29.6401 24.4899 29.6344 24.336 29.6344 24.2993C29.6344 24.264 29.6302 24.216 29.6316 24.1807C29.6316 24.1482 29.633 24.1129 29.6316 24.0776Z" fill="#37474F"/>
<path d="M30.0325 26.8927C30.0395 27.2315 29.945 27.4588 29.777 27.71C29.5624 28.0305 28.7803 28.3227 28.4485 27.8385C28.2833 27.5971 28.2481 27.319 28.2354 27.0352C28.4598 26.6809 29.7134 26.5708 30.0325 26.8927Z" fill="#FAFBFB"/>
<path d="M28.5193 26.4536C28.5249 26.4536 28.5291 26.4522 28.5334 26.4508C28.5376 26.4494 29.0967 26.256 29.6261 26.3943C29.6501 26.4 29.6741 26.3873 29.6797 26.3647C29.6854 26.3421 29.6726 26.3195 29.6486 26.3139C29.0882 26.167 28.5193 26.3647 28.4981 26.3732C28.4755 26.383 28.4656 26.407 28.4755 26.4282C28.4826 26.4451 28.5009 26.455 28.5193 26.4536Z" fill="#F1F0F0"/>
<path d="M29.6168 25.9879C29.6337 25.9865 29.6492 25.9766 29.6549 25.9611C29.6634 25.9399 29.6521 25.9159 29.6295 25.9074C29.1043 25.7154 28.5029 25.947 28.4803 25.9582C28.4577 25.9681 28.4493 25.9935 28.4592 26.0133C28.469 26.0345 28.4959 26.043 28.5184 26.0331C28.5241 26.0302 29.11 25.8058 29.5984 25.9851C29.6041 25.9879 29.6111 25.9893 29.6168 25.9879Z" fill="#F1F0F0"/>
<path d="M29.6131 25.6053C29.6301 25.6039 29.6442 25.5955 29.6513 25.5799C29.6597 25.5588 29.6498 25.5348 29.6273 25.5249C29.0499 25.3032 28.4781 25.5602 28.4555 25.5715C28.4344 25.5828 28.4259 25.6082 28.4386 25.6279C28.4499 25.6477 28.4781 25.6562 28.4979 25.6449C28.5021 25.642 29.0555 25.3964 29.5934 25.6025C29.6004 25.6053 29.6061 25.6053 29.6131 25.6053Z" fill="#F1F0F0"/>
<path d="M29.5992 25.2283C29.6147 25.2269 29.6302 25.2184 29.6373 25.2029C29.6472 25.1817 29.6359 25.1577 29.6133 25.1478C29.0726 24.9304 28.4571 25.1944 28.4345 25.2057C28.4133 25.2156 28.4049 25.241 28.4162 25.2622C28.4274 25.2834 28.4543 25.2904 28.4754 25.2805C28.4811 25.2777 29.0768 25.0236 29.5794 25.2255C29.5865 25.2269 29.5921 25.2283 29.5992 25.2283Z" fill="#EBEBEB"/>
<path d="M28.4006 9.31934C28.913 10.1508 29.4255 10.8285 29.4128 13.3413C29.4057 14.7192 29.4339 16.3794 29.4537 16.6829C29.4721 16.985 29.6132 17.1403 29.7332 18.6367C29.8631 20.2616 29.6471 22.6686 29.6471 22.6686C29.6471 22.6686 29.4706 22.8479 28.8693 22.9143C28.3144 22.9764 27.9389 22.7152 27.9389 22.7152C27.9389 22.7152 27.3319 19.6122 27.1484 18.7073C26.859 17.2801 26.499 15.0312 26.499 15.0312L26.3056 17.4579C26.3056 17.4579 26.4157 18.3247 26.2816 19.6376C26.1474 20.9506 25.9187 22.5627 25.9187 22.5627C25.9187 22.5627 25.57 22.8253 25.0957 22.8338C24.3898 22.8465 24.1541 22.615 24.1541 22.615C24.1541 22.615 23.8054 18.3318 23.7644 16.8495C23.7235 15.3672 23.4567 11.6134 24.0468 9.44074L28.4006 9.31934Z" fill="#37474F"/>
<path d="M26.4976 15.0283L25.9244 12.1907C25.9244 12.1907 24.8755 12.1483 24.2783 11.5879C24.531 12.1935 25.4021 12.5987 25.7818 12.6749L26.2886 15.0029L26.3056 17.4564L26.4976 15.0283Z" fill="#263238"/>
<path d="M27.4072 9.76392C27.5555 9.97285 27.6684 10.2016 27.7658 10.4359C27.8646 10.6688 27.9423 10.9088 28.0114 11.1516C28.0778 11.3945 28.1343 11.6387 28.1752 11.8872C28.2161 12.1342 28.2472 12.3841 28.2486 12.6354C28.1794 12.3926 28.1131 12.1526 28.0481 11.9126C27.9818 11.6726 27.9197 11.4312 27.8505 11.1926C27.7856 10.9526 27.715 10.7154 27.643 10.4768C27.5696 10.2383 27.4933 10.0025 27.4072 9.76392Z" fill="#263238"/>
<path d="M27.7559 9.84595C27.8928 9.95747 28.0128 10.0831 28.1243 10.2172C28.2358 10.3499 28.3361 10.4911 28.4278 10.6379C28.5168 10.7862 28.5972 10.9386 28.6608 11.0981C28.7257 11.2577 28.7751 11.4228 28.7963 11.5923L28.5436 11.1504C28.4575 11.005 28.3728 10.861 28.2838 10.7184C28.1977 10.5744 28.106 10.4318 28.0184 10.2878C27.9281 10.1424 27.8377 9.99841 27.7559 9.84595Z" fill="#263238"/>
<path d="M25.3213 2.64036C25.262 2.60789 25.2041 2.56978 25.1491 2.52743C24.8512 2.30296 24.6394 1.97685 24.5604 1.61969C24.4813 1.26393 24.5434 0.858765 24.8032 0.586301C24.8907 0.494539 24.998 0.419718 25.1081 0.353366C25.4399 0.155725 25.8168 0.0201989 26.2036 0.00184642C26.6879 -0.0207412 27.117 0.165607 27.4685 0.467716C27.5278 0.518538 27.5589 0.590536 27.6196 0.632888C27.6958 0.686534 27.7904 0.717592 27.8666 0.775473C28.0135 0.888411 28.1292 1.03664 28.1998 1.20464C28.3466 1.56039 28.2563 1.94156 28.0812 2.27755C27.8681 2.68695 27.525 3.2954 27.3104 3.70481C27.2045 3.51563 27.2201 3.13164 27.0973 2.95236C27.0733 2.91565 27.0464 2.87895 27.0083 2.85636C26.9448 2.81824 26.8615 2.82671 26.7838 2.83377C26.2728 2.88883 25.7589 2.886 25.3213 2.64036Z" fill="#263238"/>
<path d="M28.1914 0.900995C28.4864 1.06899 28.7236 1.34287 28.8365 1.66333C28.9353 1.94567 28.9382 2.25061 28.941 2.54989C28.9481 3.4774 28.9537 4.40349 28.9608 5.33099C28.9608 5.34229 28.9608 5.3564 28.9537 5.36488C28.9452 5.37617 28.9283 5.37899 28.9142 5.3804C28.5132 5.42417 28.1123 5.46652 27.7086 5.47075C27.494 5.47358 27.2752 5.4637 27.0733 5.38887C27.0225 5.37052 26.9702 5.34511 26.9378 5.30135C26.9039 5.25476 26.8968 5.19406 26.8912 5.13759C26.8192 4.37102 26.8121 3.5988 26.8686 2.83083C26.8982 2.43837 26.9434 2.04873 27.0055 1.6605C27.0352 1.47416 27.0676 1.28781 27.1072 1.10287C27.1297 0.995581 27.1481 0.861467 27.2286 0.779587C27.446 0.560769 27.9754 0.778175 28.1914 0.900995Z" fill="#263238"/>
<path d="M25.7402 4.52637C25.7402 4.52637 27.2141 4.60542 27.7322 4.70283C28.2686 4.80307 28.6103 4.92306 28.6103 4.92306C28.7797 5.13059 29.103 5.9875 29.158 6.78937C29.1849 7.18041 28.6329 8.31544 28.6173 8.76861C28.6032 9.15683 28.8969 10.0095 29.1326 10.6081C28.0766 12.1892 24.2678 11.8405 23.7963 10.3949L24.0278 9.09613C24.0278 9.09613 24.073 8.33803 24.056 8.05568C24.056 8.05568 23.7624 7.56864 23.7666 7.02795C23.7709 6.49714 23.8909 6.09338 24.4047 5.35787C24.5939 5.08682 25.0231 4.61389 25.0231 4.61389C25.0231 4.61389 25.5017 4.55037 25.7402 4.52637Z" fill="#FCB325"/>
<path d="M27.9673 4.7523C27.8939 4.73677 27.8162 4.71983 27.733 4.7043C27.2134 4.60689 25.741 4.52783 25.741 4.52783C25.6464 4.5363 25.5151 4.55183 25.3909 4.56736C25.141 4.96547 25.0521 5.3791 25.7819 5.64733C26.5189 5.91697 27.6003 5.52733 27.9673 4.7523Z" fill="#FFCF30"/>
<path d="M27.3912 4.25117C27.4096 3.726 27.4082 3.20931 27.4082 3.20931C27.4632 3.3039 27.795 3.45919 28.1056 3.17684C28.3809 2.92555 28.3597 2.5091 28.186 2.30016C27.9884 2.06017 27.675 2.08134 27.4745 2.40322C27.4632 2.42157 27.3729 2.39898 27.356 2.39192C27.3221 2.3778 27.2952 2.35522 27.2769 2.32275C27.2543 2.28463 27.2458 2.23946 27.243 2.19569C27.2402 2.15899 27.2472 2.09405 27.2571 2.04887C26.9677 2.0644 26.5484 1.93735 26.2957 1.71853C25.899 1.37266 25.7409 0.77973 25.7565 0.713379C25.4558 0.761378 25.2765 0.865845 25.2101 0.927961C25.069 1.05925 24.9955 1.17078 24.9306 1.35007C24.86 1.54065 24.8939 1.75947 24.8826 1.94864C24.8755 2.06299 24.836 2.26769 24.8134 2.41451C24.7315 2.95238 24.8346 3.57071 25.1127 3.846C25.2864 4.01823 25.5998 4.12693 25.8002 4.1227C25.8002 4.1227 25.7875 4.22999 25.7776 4.37116C25.7692 4.51234 25.7423 4.51234 25.5899 4.54339C25.4233 4.72409 25.1621 5.3749 25.9767 5.51749C26.8237 5.66431 27.6044 5.11938 27.7329 4.70574C27.5494 4.62951 27.3785 4.60269 27.3912 4.25117Z" fill="#FDD5BE"/>
<path d="M25.802 4.12266C26.4006 4.13395 26.8806 3.95749 27.1643 3.56079C27.1643 3.56079 27.1121 3.87843 26.8777 4.03231C26.3766 4.36406 25.7822 4.32595 25.7822 4.32595L25.802 4.12266Z" fill="#CB8B8C"/>
<path d="M25.7588 3.20912L26.3418 3.04395C26.3941 3.20347 26.3065 3.36864 26.1456 3.41523C25.9847 3.4604 25.811 3.36723 25.7588 3.20912Z" fill="#AF6152"/>
<path d="M26.0137 3.42108C26.056 3.42813 26.1012 3.42531 26.1436 3.41402C26.2551 3.38155 26.3313 3.2912 26.3497 3.18532C26.1958 3.18391 26.0617 3.28132 26.0137 3.42108Z" fill="#F3908F"/>
<path d="M25.9212 1.95142L25.8506 2.84504L25.3975 2.64457L25.9212 1.95142Z" fill="#CB8B8C"/>
<path d="M25.0471 1.71281L25.417 1.64081C25.4 1.53775 25.3054 1.46999 25.2024 1.48975C25.1007 1.50952 25.0316 1.60975 25.0471 1.71281Z" fill="#263238"/>
<path d="M26.4658 1.69308L26.8357 1.85261C26.8837 1.75096 26.8399 1.63379 26.7383 1.59003C26.6352 1.54485 26.5138 1.59144 26.4658 1.69308Z" fill="#263238"/>
<path d="M25.4442 2.10953C25.4442 2.19706 25.3736 2.26764 25.286 2.26764C25.1985 2.26764 25.1279 2.19706 25.1279 2.10953C25.1279 2.022 25.1985 1.95142 25.286 1.95142C25.3736 1.95142 25.4442 2.022 25.4442 2.10953Z" fill="#263238"/>
<path d="M26.5643 2.142C26.5643 2.22953 26.4937 2.30011 26.4062 2.30011C26.3186 2.30011 26.248 2.22953 26.248 2.142C26.248 2.05447 26.3186 1.98389 26.4062 1.98389C26.4937 1.98389 26.5643 2.05447 26.5643 2.142Z" fill="#263238"/>
<path d="M26.9296 8.61626C26.7715 8.57815 26.2845 8.02475 26.2125 7.88216C26.1391 7.73958 26.0219 7.57723 25.9104 7.45018C25.7988 7.32312 25.7494 7.16642 25.7932 7.10007C25.8384 7.03372 25.892 6.99983 25.9795 7.07607C26.0671 7.15089 26.1574 7.23983 26.3918 7.34006C26.6247 7.44029 26.8703 7.54053 26.9649 7.8384C27.0609 8.13627 26.9296 8.61626 26.9296 8.61626Z" fill="#AF6152"/>
<path d="M26.1098 6.67651C26.0435 6.75557 26.1239 6.90239 26.3202 7.2525C26.5164 7.60261 26.9216 8.36635 26.9216 8.36635C26.9216 8.36635 26.7606 8.51317 26.635 8.63599C26.5094 8.75881 26.275 8.91128 26.1084 8.83646C25.9418 8.76163 26.0237 8.57246 26.1945 8.40306L25.5607 7.50096C25.5607 7.50096 25.4915 7.32308 25.7385 7.04074C25.987 6.75698 26.1098 6.67651 26.1098 6.67651Z" fill="#37474F"/>
<path d="M25.6052 7.2312C25.5205 7.3992 25.56 7.49943 25.56 7.49943L26.1939 8.40152C26.2461 8.47493 26.3731 8.60905 26.4734 8.4947C26.575 8.38035 26.5976 8.01753 26.3322 7.67448C26.0866 7.35402 25.7647 7.24955 25.6052 7.2312Z" fill="#455B64"/>
<path opacity="0.4" d="M26.1098 6.67651C26.1098 6.67651 25.9869 6.75698 25.7399 7.04074C25.4914 7.32308 25.562 7.50096 25.562 7.50096L25.6185 7.58002C25.7046 7.46285 25.8288 7.2892 25.9206 7.13391C26.0307 6.94756 26.0603 6.87274 26.1013 6.81486C26.0801 6.75134 26.0829 6.70757 26.1098 6.67651Z" fill="black"/>
<path d="M25.3028 5.98336C25.3 5.94524 25.2491 5.94524 25.0713 5.97489C24.6463 6.04689 24.1649 6.18382 23.7301 6.50287L23.6172 6.58193L25.0219 7.22991L25.0416 7.45014C25.0416 7.45014 25.7178 6.97298 25.9437 6.81204C26.171 6.65111 26.2345 6.5297 26.2204 6.38147L26.2134 6.30382L25.6825 6.05818L25.3028 5.98336Z" fill="#455B64"/>
<path d="M25.9695 5.97902C25.8664 5.93384 25.6688 5.94796 25.5135 5.96349C25.3963 5.97478 25.3017 5.98325 25.3017 5.98325C25.3017 5.98325 24.9206 6.20489 25.2509 6.36442C25.5813 6.52394 26.1968 6.11596 26.2222 6.38136C26.1982 6.09901 26.1516 6.05949 25.9695 5.97902Z" fill="#37474F"/>
<path d="M25.1541 6.1145C25.1005 6.18932 25.0878 6.28532 25.253 6.36438C25.3701 6.42085 25.524 6.40532 25.6736 6.37426C25.4944 6.3912 25.3137 6.32203 25.2544 6.27685C25.1937 6.23309 25.1344 6.16674 25.1541 6.1145Z" fill="#AB6CAD"/>
<path d="M26.0287 6.74851C26.0386 6.8558 25.5868 7.4939 25.313 7.79884C25.2212 7.90048 25.1393 7.98095 25.0716 8.04165C24.953 8.14753 24.7836 8.17294 24.6382 8.10659L23.7699 7.70566C23.6415 7.64637 23.5525 7.52214 23.5398 7.38096L23.5144 7.10568C23.5059 7.01956 23.4467 6.95462 23.3845 6.90804C23.3168 6.85863 23.3154 6.75839 23.3831 6.71039C23.4481 6.66522 23.5215 6.61157 23.5864 6.56781C23.7205 6.47464 23.9436 6.54946 24.4659 6.79227C24.9869 7.03509 25.1238 7.19885 25.1407 7.37955L26.0287 6.74851Z" fill="#37474F"/>
<path d="M25.1426 7.37955C25.1609 7.58284 25.2061 7.83836 25.1623 7.95836C25.2075 7.88213 25.2315 7.86519 25.1835 7.35132L25.1426 7.37955Z" fill="#263238"/>
<path d="M23.3863 6.90804C23.4498 6.95462 23.5091 7.01956 23.5162 7.10568L23.5416 7.38097C23.5543 7.52214 23.6418 7.64637 23.7717 7.70566L24.6399 8.10659C24.7839 8.17294 24.9547 8.14753 25.0733 8.04165C25.1411 7.98095 25.223 7.90189 25.3147 7.79884C25.3345 7.77625 25.3557 7.75225 25.3783 7.72543C25.3726 7.73107 25.0578 8.03742 24.9449 8.06989C24.7924 8.11506 24.6992 8.08683 24.4988 7.99083C24.2813 7.88636 23.8677 7.69013 23.7675 7.63367C23.7308 7.61249 23.6729 7.54049 23.7096 7.49673C23.7943 7.39226 23.9214 7.35273 23.9581 7.36967C24.0696 7.42049 24.8842 7.79601 24.8842 7.79601C24.8672 7.60967 24.7571 7.45861 24.4691 7.29626C24.1811 7.13391 23.7491 6.95745 23.5543 6.88404C23.3581 6.81204 23.3411 6.76404 23.3863 6.70898C23.3171 6.75981 23.3186 6.85863 23.3863 6.90804Z" fill="#263238"/>
<path d="M24.8843 7.7972C24.8843 7.7972 24.8801 7.62356 24.674 7.46686C24.4368 7.28757 23.9893 7.0984 23.8213 7.02075L23.8481 7.31863L24.8843 7.7972Z" fill="#AB6CAD"/>
<path d="M24.6054 6.6213L24.7127 6.67071C24.7861 6.70459 24.8948 6.69612 24.9555 6.65236C25.0177 6.6086 25.0078 6.54648 24.9344 6.5126L24.8271 6.46319C24.7537 6.42931 24.645 6.43778 24.5843 6.48154C24.5236 6.5253 24.532 6.58883 24.6054 6.6213Z" fill="#263238"/>
<path d="M30.0148 6.17245C29.6449 5.26895 29.2652 5.03601 28.6412 4.98096C28.0596 5.70941 28.4181 6.83173 28.4181 6.83173L29.1071 8.5258C28.8981 8.48769 28.6553 8.42839 28.4294 8.36769C28.109 8.28299 27.8238 8.19687 27.7165 8.17146C27.5528 8.13193 27.4624 8.06982 27.3862 7.947C27.293 7.79594 27.1885 7.60959 27.1476 7.53195C27.1052 7.45148 27.0304 7.30325 26.9415 7.25948C26.8695 7.22419 26.6478 7.24819 26.4516 7.25666C26.2568 7.26654 26.1297 7.30325 26.0267 7.34419C25.9236 7.38513 25.6314 7.56724 25.5848 7.65759C25.5382 7.74794 25.6173 7.82559 25.7415 7.81853C25.8502 7.81288 26.0479 7.68159 26.1791 7.66747C26.3104 7.65336 26.6464 7.65336 26.6464 7.65336C26.6464 7.65336 26.2187 7.71406 26.1594 7.731C26.1001 7.74794 25.9109 7.84112 25.8474 7.86794C25.7839 7.89617 25.678 7.99358 25.6836 8.04158C25.6893 8.08958 25.726 8.17711 25.774 8.18558C25.822 8.19405 25.8643 8.1884 25.8643 8.1884C25.8643 8.1884 25.8544 8.2364 25.8615 8.2844C25.8672 8.3324 25.8827 8.35075 25.8827 8.35075C25.8827 8.35075 25.8516 8.40581 25.8897 8.47639C25.9194 8.53004 25.966 8.55404 26.0027 8.57098C26.11 8.6218 26.1749 8.63592 26.3006 8.66274C26.5307 8.71215 26.6253 8.75309 26.7834 8.95214C26.9048 9.10602 27.1109 9.14555 27.2874 9.17661C27.3961 9.19496 27.7815 9.3926 28.1683 9.57895C28.229 9.6086 29.2299 10.2128 29.9343 10.385C30.492 10.522 30.9691 10.2509 31.0256 10.0307C31.3108 9.51825 30.3833 7.07596 30.0148 6.17245Z" fill="#FDD5BE"/>
<path d="M25.7743 8.18833C25.7532 8.1841 25.7348 8.16574 25.7207 8.14175C25.7207 8.14175 25.7602 8.1601 25.8548 8.14598C25.9508 8.13186 26.2021 8.0401 26.3602 8.03022C26.5183 8.02175 26.6948 8.03022 26.7611 7.99634C26.7174 8.02881 26.5437 8.05845 26.3588 8.07539C26.1739 8.09234 25.8647 8.19116 25.8647 8.19116C25.8647 8.19116 25.8223 8.1968 25.7743 8.18833Z" fill="#CB8B8C"/>
<path d="M26.0722 8.38452C26.1315 8.39158 26.3997 8.37181 26.5 8.36617C26.5988 8.36193 26.7597 8.33934 26.7597 8.33934C26.7597 8.33934 26.6397 8.3817 26.548 8.39017C26.4562 8.39864 26.1866 8.4184 26.0821 8.41275C25.979 8.40569 25.9226 8.38028 25.8845 8.35346C25.8845 8.35346 25.8689 8.33511 25.8633 8.28711C25.9056 8.35628 26.0129 8.37746 26.0722 8.38452Z" fill="#CB8B8C"/>
<path d="M29.1068 8.52587C29.584 8.65575 29.7026 8.69669 29.8678 8.79834C30.0372 8.90139 30.1402 9.04115 30.1402 9.04115C30.1402 9.04115 30.1515 8.57246 29.0137 8.29858L29.1068 8.52587Z" fill="#CB8B8C"/>
<path d="M28.6108 4.9231C29.2122 5.02474 29.4452 5.11509 29.7501 5.56967C30.055 6.02424 30.6734 7.90749 30.6734 7.90749C30.6734 7.90749 30.0932 8.46794 29.0824 8.48771C29.0824 8.48771 28.5586 7.43173 28.3793 6.92351C28.1986 6.41529 28.0716 5.32261 28.6108 4.9231Z" fill="#FFCF30"/>
<path d="M7.62988 26.2219L9.40584 27.2468V27.6181L7.62988 26.5932V26.2219Z" fill="#FFC829"/>
<path opacity="0.55" d="M7.62988 26.2219L9.40584 27.2468V27.6181L7.62988 26.5932V26.2219Z" fill="black"/>
<path d="M9.40625 27.2468L15.5176 23.7217V24.093L9.40625 27.618V27.2468Z" fill="#FFC829"/>
<path opacity="0.45" d="M9.40625 27.2452L15.5176 23.7188V24.09L9.40625 27.6165V27.2452Z" fill="black"/>
<path d="M9.40584 27.2468L7.62988 26.2219L13.7412 22.6968L15.5172 23.7217L9.40584 27.2468Z" fill="#AB6CAD"/>
<path d="M9.40584 27.2468L7.62988 26.2219L13.7412 22.6968L15.5172 23.7217L9.40584 27.2468Z" fill="#FFC829"/>
<path d="M8.6875 20.4043V26.3477L8.98679 26.5213V20.5765L8.6875 20.4043Z" fill="#37474F"/>
<path d="M9.28703 20.4043V26.3477L8.98633 26.5213V20.5765L9.28703 20.4043Z" fill="#263238"/>
<path d="M8.04883 19.6687L9.82478 20.695V21.0649L8.04883 20.04V19.6687Z" fill="#455B64"/>
<path d="M9.82422 21.0649L10.1461 20.88L9.82422 20.6951V21.0649Z" fill="#37474F"/>
<path d="M12.873 29.2485L14.649 30.2735V30.6447L12.873 29.6198V29.2485Z" fill="#AB6CAD"/>
<path opacity="0.55" d="M12.873 29.2485L14.649 30.2735V30.6447L12.873 29.6198V29.2485Z" fill="black"/>
<path d="M14.6494 30.2735L20.7594 26.7441V27.1154L14.6494 30.6447V30.2735Z" fill="#FFC829"/>
<path opacity="0.45" d="M14.6494 30.272L20.7594 26.7427V27.1125L14.6494 30.6433V30.272Z" fill="black"/>
<path d="M14.649 30.2735L12.873 29.2486L18.983 25.7192L20.759 26.7442L14.649 30.2735Z" fill="#AB6CAD"/>
<path d="M14.649 30.2735L12.873 29.2486L18.983 25.7192L20.759 26.7442L14.649 30.2735Z" fill="#FFC829"/>
<path d="M13.9287 23.4309V29.3743L14.2294 29.5479V23.6045L13.9287 23.4309Z" fill="#37474F"/>
<path d="M14.5288 23.4309V29.3743L14.2295 29.5479V23.6045L14.5288 23.4309Z" fill="#263238"/>
<path d="M13.292 22.6968L15.0679 23.7217V24.093L13.292 23.0666V22.6968Z" fill="#455B64"/>
<path d="M15.0674 24.093L15.3893 23.9066L15.0674 23.7217V24.093Z" fill="#37474F"/>
<path d="M18.1143 32.2754L19.8902 33.3003V33.6716L18.1143 32.6467V32.2754Z" fill="#FFC829"/>
<path opacity="0.55" d="M18.1143 32.2754L19.8902 33.3003V33.6716L18.1143 32.6467V32.2754Z" fill="black"/>
<path d="M19.8906 33.3003L26.3182 29.5889V29.9602L19.8906 33.6716V33.3003Z" fill="#FFC829"/>
<path opacity="0.45" d="M19.8906 33.2988L26.3182 29.5874V29.9587L19.8906 33.6701V33.2988Z" fill="black"/>
<path d="M19.8902 33.3003L18.1143 32.2754L24.5418 28.564L26.3178 29.5889L19.8902 33.3003Z" fill="#AB6CAD"/>
<path d="M19.8902 33.3003L18.1143 32.2754L24.5418 28.564L26.3178 29.5889L19.8902 33.3003Z" fill="#FFC829"/>
<path d="M19.1709 26.4578V32.4011L19.4716 32.5748L19.4702 26.63L19.1709 26.4578Z" fill="#37474F"/>
<path d="M19.771 26.4578V32.4011L19.4717 32.5748V26.63L19.771 26.4578Z" fill="#263238"/>
<path d="M24.6836 23.4917V29.4365L24.9843 29.6087V23.6653L24.6836 23.4917Z" fill="#37474F"/>
<path d="M25.2851 23.4917V29.4365L24.9844 29.6087V23.6653L25.2851 23.4917Z" fill="#263238"/>
<path d="M18.5342 25.7236L20.3101 26.7485V27.1198L18.5342 26.0935V25.7236Z" fill="#455B64"/>
<path d="M20.3096 27.1198L20.6314 26.9335L20.3096 26.7485V27.1198Z" fill="#37474F"/>
<path d="M27.866 22.6108L12.3483 13.6505C12.1379 13.5291 11.9488 13.515 11.8147 13.5912L5.82894 17.0471C5.7047 17.1177 5.62988 17.266 5.62988 17.4763C5.62988 17.9153 5.95882 18.4603 6.36398 18.6946L21.8266 27.6224C22.044 27.748 22.2431 27.7607 22.3828 27.6788L28.3629 24.2258C28.4857 24.1552 28.5648 24.014 28.5719 23.8121C28.5874 23.383 28.2726 22.8437 27.866 22.6108Z" fill="#455B64"/>
<path d="M6.36398 18.6961L21.8266 27.6239C22.044 27.7495 22.2431 27.7622 22.3828 27.6804C22.5043 27.6098 22.5805 27.4686 22.5875 27.2695C22.6031 26.839 22.2868 26.3011 21.8817 26.0668L6.36398 17.1065C6.15363 16.9851 5.96305 16.971 5.82894 17.0486C5.7047 17.1192 5.62988 17.2675 5.62988 17.4778C5.62988 17.9169 5.95882 18.4618 6.36398 18.6961Z" fill="#37474F"/>
<path d="M22.1793 27.5053C22.1313 27.5053 22.0494 27.4912 21.9393 27.4276L6.47663 18.4999C6.14064 18.3051 5.85547 17.8378 5.85547 17.4764C5.85547 17.3592 5.88653 17.2745 5.94158 17.2434C5.96135 17.2322 5.98817 17.2251 6.01923 17.2251C6.0644 17.2251 6.14205 17.2378 6.25075 17.3013L21.7685 26.2616C22.103 26.455 22.3741 26.9124 22.3614 27.2597C22.3586 27.3246 22.3444 27.4389 22.2682 27.4841C22.2456 27.4982 22.2146 27.5053 22.1793 27.5053Z" fill="#455B64"/>
<path d="M21.442 26.3406C21.5691 26.414 21.6721 26.5919 21.6721 26.7387C21.6721 26.8855 21.5691 26.9448 21.442 26.8714C21.315 26.798 21.2119 26.6201 21.2119 26.4733C21.2133 26.3265 21.315 26.2672 21.442 26.3406Z" fill="#263238"/>
<path d="M21.442 26.3406C21.5691 26.414 21.6721 26.5919 21.6721 26.7387C21.6721 26.8855 21.5691 26.9448 21.442 26.8714C21.315 26.798 21.2119 26.6201 21.2119 26.4733C21.2133 26.3265 21.315 26.2672 21.442 26.3406Z" fill="#263238"/>
<path d="M19.3512 25.1336C19.4783 25.2071 19.5813 25.3849 19.5813 25.5318C19.5813 25.6786 19.4783 25.7379 19.3512 25.6645C19.2242 25.591 19.1211 25.4132 19.1211 25.2663C19.1225 25.1209 19.2242 25.0616 19.3512 25.1336Z" fill="#263238"/>
<path d="M17.2604 23.9266C17.3874 24 17.4905 24.1779 17.4905 24.3247C17.4905 24.4715 17.3874 24.5308 17.2604 24.4574C17.1333 24.384 17.0303 24.2061 17.0303 24.0593C17.0317 23.9139 17.1333 23.8546 17.2604 23.9266Z" fill="#263238"/>
<path d="M15.1696 22.7209C15.2966 22.7944 15.3997 22.9722 15.3997 23.119C15.3997 23.2659 15.2966 23.3252 15.1696 23.2517C15.0425 23.1783 14.9395 23.0005 14.9395 22.8536C14.9409 22.7068 15.0425 22.6475 15.1696 22.7209Z" fill="#263238"/>
<path d="M13.0787 21.5139C13.2058 21.5873 13.3089 21.7652 13.3089 21.912C13.3089 22.0588 13.2058 22.1181 13.0787 22.0447C12.9517 21.9713 12.8486 21.7934 12.8486 21.6466C12.85 21.4998 12.9517 21.4405 13.0787 21.5139Z" fill="#263238"/>
<path d="M10.9879 20.3069C11.115 20.3803 11.218 20.5582 11.218 20.705C11.218 20.8518 11.115 20.9111 10.9879 20.8377C10.8609 20.7643 10.7578 20.5864 10.7578 20.4396C10.7592 20.2928 10.8609 20.2335 10.9879 20.3069Z" fill="#263238"/>
<path d="M8.8971 19.0998C9.02416 19.1733 9.12721 19.3511 9.12721 19.498C9.12721 19.6448 9.02416 19.7041 8.8971 19.6307C8.77005 19.5572 8.66699 19.3794 8.66699 19.2325C8.6684 19.0857 8.77005 19.0264 8.8971 19.0998Z" fill="#263238"/>
<path d="M6.80628 17.8928C6.93334 17.9662 7.03639 18.1441 7.03639 18.2909C7.03639 18.4377 6.93334 18.497 6.80628 18.4236C6.67923 18.3502 6.57617 18.1723 6.57617 18.0255C6.57758 17.8787 6.67923 17.8194 6.80628 17.8928Z" fill="#263238"/>
<path d="M12.1125 20.6852L12.3412 20.8179V20.5568L12.1111 20.4241L12.1125 20.6852ZM10.033 19.4853L10.2617 19.618V19.3568L10.0316 19.2241L10.033 19.4853ZM7.95356 18.2839L8.18226 18.4166V18.1554L7.95215 18.0227L7.95356 18.2839ZM18.3509 24.2879L18.5796 24.4206V24.1595L18.3495 24.0268L18.3509 24.2879ZM20.4318 25.2282L20.4092 25.2155V25.4766L20.6379 25.6093L20.6605 25.622V25.3609L20.4318 25.2282ZM14.192 21.8866L14.4207 22.0193V21.7581L14.1906 21.6254L14.192 21.8866ZM16.2715 23.0866L16.5002 23.2193V22.9581L16.27 22.8254L16.2715 23.0866Z" fill="#263238"/>
<path d="M12.1125 22.0151L12.3412 22.1478V21.8866L12.1111 21.7539L12.1125 22.0151ZM10.033 20.8137L10.2617 20.9464V20.6852L10.0316 20.5525L10.033 20.8137ZM7.95356 19.6137L8.18226 19.7464V19.4852L7.95215 19.3525L7.95356 19.6137ZM18.3509 25.6164L18.5796 25.7491V25.4879L18.3495 25.3552L18.3509 25.6164ZM20.4318 26.5566L20.4092 26.5439V26.805L20.6379 26.9377L20.6605 26.9505V26.6893L20.4318 26.5566ZM14.192 23.215L14.4207 23.3477V23.0866L14.1906 22.9539L14.192 23.215ZM16.2715 24.4164L16.5002 24.5491V24.2879L16.27 24.1552L16.2715 24.4164Z" fill="#263238"/>
<path d="M22.2567 19.3708L16.271 22.8267L16.5011 22.9594L22.4854 19.5035L22.2567 19.3708ZM24.3362 20.5722L18.3505 24.0281L18.5806 24.1608L24.5649 20.7049L24.3362 20.5722ZM26.3931 21.7595L20.4074 25.2154L20.6375 25.3481L20.6587 25.3608L26.643 21.9049L26.4143 21.7722L26.3931 21.7595ZM20.1773 18.1708L14.1915 21.6267L14.4217 21.7595L20.406 18.3035L20.1773 18.1708ZM18.0978 16.9695L12.1121 20.4254L12.3422 20.5581L18.3265 17.1022L18.0978 16.9695ZM7.95312 18.024L8.18324 18.1567L14.1675 14.7008L13.9388 14.5681L7.95312 18.024ZM16.0183 15.7681L10.0326 19.224L10.2627 19.3567L16.247 15.9008L16.0183 15.7681Z" fill="#37474F"/>
<path d="M16.0281 14.0442L12.2517 11.8589L7.96289 14.3407L11.7393 16.5261L16.0281 14.0442Z" fill="#AB6CAD"/>
<path d="M16.0281 14.0442L12.2517 11.8589L7.96289 14.3407L11.7393 16.5261L16.0281 14.0442Z" fill="#FFC829"/>
<path d="M11.7393 19.3636L16.0281 16.8803V14.0442L11.7393 16.526V19.3636Z" fill="#FCB325"/>
<path opacity="0.4" d="M11.749 19.3636L16.0378 16.8803V14.0442L11.749 16.526V19.3636Z" fill="white"/>
<path d="M12.2132 18.4219C12.2005 18.4219 12.1878 18.4191 12.1765 18.412C12.1468 18.3951 12.1299 18.3584 12.1299 18.3104V18.0097V17.9871L12.1454 17.9899L12.3812 17.8516V18.1876C12.3812 18.2737 12.3303 18.3697 12.2654 18.4064C12.2471 18.4163 12.2287 18.4219 12.2132 18.4219ZM12.168 18.0323V18.3104C12.168 18.3443 12.1779 18.3697 12.1948 18.3795C12.2118 18.3894 12.2315 18.3824 12.2456 18.3739C12.2979 18.3428 12.3431 18.2581 12.3431 18.1876V18.1636H12.2555L12.2386 18.0464L12.168 18.0323ZM12.288 18.124H12.3431V17.9165L12.2019 17.9984L12.2711 18.0111L12.288 18.124Z" fill="#455B64"/>
<path d="M12.2557 18.662C12.2458 18.662 12.2373 18.6535 12.2373 18.6436V18.3909C12.2373 18.381 12.2458 18.3726 12.2557 18.3726C12.2655 18.3726 12.274 18.381 12.274 18.3909V18.6436C12.274 18.6535 12.2655 18.662 12.2557 18.662Z" fill="#455B64"/>
<path d="M12.1448 18.7255C12.1378 18.7255 12.1321 18.7227 12.1279 18.7156C12.1222 18.7072 12.1251 18.6945 12.1349 18.6902L12.3538 18.5632C12.3622 18.5575 12.3749 18.5604 12.3792 18.5702C12.3848 18.5787 12.382 18.5914 12.3721 18.5957L12.1533 18.7227C12.1505 18.7241 12.1476 18.7255 12.1448 18.7255Z" fill="#455B64"/>
<path d="M12.9285 18.2907C12.9215 18.2907 12.9144 18.2893 12.9074 18.2851C12.8932 18.2766 12.8848 18.2597 12.8848 18.2399V18.1877C12.8848 18.1778 12.8932 18.1693 12.9031 18.1693C12.913 18.1693 12.9215 18.1778 12.9215 18.1877V18.2399C12.9215 18.247 12.9243 18.2512 12.9257 18.2526C12.9271 18.254 12.9314 18.2526 12.9384 18.2498C12.9554 18.2399 12.9737 18.2018 12.9737 18.1637V17.8277C12.9737 17.8178 12.9822 17.8093 12.9921 17.8093C13.0019 17.8093 13.0104 17.8178 13.0104 17.8277V18.1637C13.0104 18.2131 12.9878 18.2639 12.9568 18.2823C12.9483 18.2879 12.9384 18.2907 12.9285 18.2907Z" fill="#455B64"/>
<path d="M12.7295 17.9971V17.9646C12.7295 17.8107 12.8382 17.623 12.9709 17.5453C13.0387 17.5058 13.1036 17.5002 13.1544 17.5284C13.2038 17.5566 13.2321 17.6159 13.2321 17.695V17.7063L12.7295 17.9971ZM13.0838 17.5482C13.0556 17.5482 13.0231 17.558 12.9893 17.5778C12.8763 17.6427 12.7817 17.7952 12.7676 17.9293L13.1925 17.6837C13.1897 17.6244 13.17 17.5806 13.1347 17.5609C13.1205 17.5524 13.1036 17.5482 13.0838 17.5482Z" fill="#455B64"/>
<path d="M13.6072 17.9038C13.5973 17.9038 13.5889 17.8954 13.5889 17.8855V17.2417C13.5889 17.2319 13.5973 17.2234 13.6072 17.2234C13.6171 17.2234 13.6256 17.2319 13.6256 17.2417V17.8855C13.6256 17.8954 13.6171 17.9038 13.6072 17.9038Z" fill="#455B64"/>
<path d="M13.5508 17.3872C13.548 17.3872 13.5452 17.3872 13.5437 17.3858C13.5339 17.3815 13.5296 17.3702 13.5339 17.3604L13.6016 17.2051L13.6764 17.2912C13.6835 17.2997 13.6821 17.311 13.675 17.318C13.6666 17.3251 13.6553 17.3237 13.6482 17.3166L13.6129 17.2757L13.5692 17.3759C13.5663 17.383 13.5593 17.3872 13.5508 17.3872Z" fill="#455B64"/>
<path d="M13.782 17.8035C13.7721 17.8035 13.7637 17.795 13.7637 17.7851V17.1414C13.7637 17.1315 13.7721 17.123 13.782 17.123C13.7919 17.123 13.8004 17.1315 13.8004 17.1414V17.7851C13.8018 17.795 13.7933 17.8035 13.782 17.8035Z" fill="#455B64"/>
<path d="M13.7276 17.2883C13.7247 17.2883 13.7219 17.2883 13.7205 17.2869C13.7106 17.2827 13.7064 17.2714 13.7106 17.2615L13.7784 17.1062L13.8532 17.1923C13.8603 17.2008 13.8589 17.2121 13.8518 17.2191C13.8433 17.2262 13.832 17.2248 13.825 17.2177L13.7897 17.1768L13.7459 17.277C13.7417 17.2841 13.7346 17.2883 13.7276 17.2883Z" fill="#455B64"/>
<path d="M11.7393 19.3637L7.96289 17.1784V14.3408L11.7393 16.5262V19.3637Z" fill="#FCB325"/>
<path opacity="0.6" d="M11.7393 19.3637L7.96289 17.1784V14.3408L11.7393 16.5262V19.3637Z" fill="white"/>
<path d="M9.66602 15.7567L9.94413 15.9162V15.4856L9.66602 15.3247V15.7567Z" fill="#37474F"/>
<path d="M9.94413 15.4855L14.233 13.0023L13.9563 12.8428L9.66602 15.3246L9.94413 15.4855Z" fill="#455B64"/>
<path d="M8.503 16.1264L9.48556 16.694C9.50956 16.7081 9.52933 16.742 9.52933 16.7702V17.4521C9.52933 17.5085 9.4898 17.5311 9.44039 17.5029L8.45783 16.9354C8.43383 16.9213 8.41406 16.8874 8.41406 16.8591V16.1759C8.41547 16.1208 8.455 16.0982 8.503 16.1264Z" fill="#FAFBFB"/>
<path d="M8.47949 16.2324L8.51337 16.2522V16.855L8.47949 16.8352V16.2324Z" fill="#455B64"/>
<path d="M8.61523 16.3115L8.67312 16.3454V16.9468L8.61523 16.9129V16.3115Z" fill="#455B64"/>
<path d="M8.75195 16.3892L8.78442 16.4089V17.0117L8.75195 16.992V16.3892Z" fill="#455B64"/>
<path d="M8.85449 16.447L8.92226 16.488V17.0894L8.85449 17.0498V16.447Z" fill="#455B64"/>
<path d="M9.02246 16.5459L9.05634 16.5657V17.1685L9.02246 17.1487V16.5459Z" fill="#455B64"/>
<path d="M9.12207 16.6023L9.19266 16.6446V17.246L9.12207 17.2037V16.6023Z" fill="#455B64"/>
<path d="M9.2959 16.7039L9.32978 16.7222V17.325L9.2959 17.3053V16.7039Z" fill="#455B64"/>
<path d="M9.37402 16.7478L9.39096 16.7577V17.3605L9.37402 17.3506V16.7478Z" fill="#455B64"/>
<path d="M9.2334 16.6702L9.25034 16.68V17.2829L9.2334 17.273V16.6702Z" fill="#455B64"/>
<path d="M8.95996 16.5105L8.9769 16.5204V17.1218L8.95996 17.1133V16.5105Z" fill="#455B64"/>
<path d="M8.81055 16.4243L8.82749 16.4342V17.0356L8.81055 17.0271V16.4243Z" fill="#455B64"/>
<path d="M8.70117 16.3652L8.71811 16.3737V16.9765L8.70117 16.9666V16.3652Z" fill="#455B64"/>
<path d="M8.55664 16.2761L8.57358 16.286V16.8874L8.55664 16.8789V16.2761Z" fill="#455B64"/>
<path d="M9.43066 16.7815L9.46455 16.8013V17.4041L9.43066 17.3843V16.7815Z" fill="#455B64"/>
<path d="M20.7322 16.6546L16.9558 14.4692L12.667 16.9525L16.4434 19.1364L20.7322 16.6546Z" fill="#AB6CAD"/>
<path d="M20.7322 16.6546L16.9558 14.4692L12.667 16.9525L16.4434 19.1364L20.7322 16.6546Z" fill="#FFC829"/>
<path d="M16.4434 21.9739L20.7322 19.4921V16.6545L16.4434 19.1364V21.9739Z" fill="#FCB325"/>
<path opacity="0.4" d="M16.4531 21.9739L20.742 19.4921V16.6545L16.4531 19.1364V21.9739Z" fill="white"/>
<path d="M16.9173 21.0323C16.9046 21.0323 16.8919 21.0294 16.8806 21.0224C16.8509 21.0054 16.834 20.9687 16.834 20.9207V20.62V20.5974L16.8495 20.6003L17.0853 20.4619V20.7979C17.0853 20.884 17.0344 20.98 16.9695 21.0167C16.9512 21.028 16.9328 21.0323 16.9173 21.0323ZM16.8721 20.6426V20.9207C16.8721 20.9546 16.882 20.98 16.8989 20.9899C16.9159 20.9998 16.9356 20.9927 16.9497 20.9843C17.002 20.9532 17.0472 20.8685 17.0472 20.7979V20.7739H16.9596L16.9427 20.6567L16.8721 20.6426ZM16.9921 20.7358H17.0472V20.5283L16.906 20.6101L16.9752 20.6229L16.9921 20.7358Z" fill="#455B64"/>
<path d="M16.9598 21.2723C16.9499 21.2723 16.9414 21.2638 16.9414 21.254V21.0013C16.9414 20.9914 16.9499 20.9829 16.9598 20.9829C16.9696 20.9829 16.9781 20.9914 16.9781 21.0013V21.254C16.9781 21.2638 16.9696 21.2723 16.9598 21.2723Z" fill="#455B64"/>
<path d="M16.8499 21.3359C16.8428 21.3359 16.8372 21.3331 16.833 21.326C16.8273 21.3175 16.8301 21.3048 16.84 21.3006L17.0588 21.1735C17.0673 21.1679 17.08 21.1707 17.0842 21.1806C17.0899 21.1891 17.0871 21.2018 17.0772 21.206L16.8584 21.3331C16.857 21.3345 16.8527 21.3359 16.8499 21.3359Z" fill="#455B64"/>
<path d="M17.6317 20.9011C17.6246 20.9011 17.6175 20.8997 17.6105 20.8954C17.5964 20.887 17.5879 20.87 17.5879 20.8503V20.798C17.5879 20.7881 17.5964 20.7797 17.6062 20.7797C17.6161 20.7797 17.6246 20.7881 17.6246 20.798V20.8503C17.6246 20.8573 17.6274 20.8615 17.6288 20.863C17.6302 20.8644 17.6345 20.863 17.6415 20.8601C17.6585 20.8503 17.6768 20.8121 17.6768 20.774V20.438C17.6768 20.4281 17.6853 20.4197 17.6952 20.4197C17.7051 20.4197 17.7135 20.4281 17.7135 20.438V20.774C17.7135 20.8234 17.6909 20.8743 17.6599 20.8926C17.6514 20.8983 17.6415 20.9011 17.6317 20.9011Z" fill="#455B64"/>
<path d="M17.4326 20.6074V20.575C17.4326 20.4211 17.5413 20.2333 17.674 20.1557C17.7418 20.1162 17.8067 20.1105 17.8575 20.1387C17.907 20.167 17.9352 20.2263 17.9352 20.3053V20.3166L17.4326 20.6074ZM17.787 20.1599C17.7587 20.1599 17.7263 20.1698 17.6924 20.1896C17.5794 20.2545 17.4849 20.407 17.4707 20.5411L17.8957 20.2954C17.8928 20.2361 17.8731 20.1924 17.8378 20.1726C17.8237 20.1642 17.8067 20.1599 17.787 20.1599Z" fill="#455B64"/>
<path d="M18.3113 20.5142C18.3014 20.5142 18.293 20.5057 18.293 20.4958V19.8521C18.293 19.8422 18.3014 19.8337 18.3113 19.8337C18.3212 19.8337 18.3297 19.8422 18.3297 19.8521V20.4958C18.3297 20.5057 18.3212 20.5142 18.3113 20.5142Z" fill="#455B64"/>
<path d="M18.2559 19.999C18.2531 19.999 18.2502 19.999 18.2488 19.9976C18.2389 19.9934 18.2347 19.9821 18.2389 19.9722L18.3067 19.8169L18.3815 19.903C18.3886 19.9115 18.3872 19.9228 18.3801 19.9298C18.3716 19.9369 18.3603 19.9355 18.3533 19.9284L18.318 19.8875L18.2742 19.9877C18.27 19.9948 18.2629 19.999 18.2559 19.999Z" fill="#455B64"/>
<path d="M18.4851 20.4139C18.4753 20.4139 18.4668 20.4054 18.4668 20.3955V19.7518C18.4668 19.7419 18.4753 19.7334 18.4851 19.7334C18.495 19.7334 18.5035 19.7419 18.5035 19.7518V20.3955C18.5049 20.4054 18.4964 20.4139 18.4851 20.4139Z" fill="#455B64"/>
<path d="M18.4297 19.8987C18.4269 19.8987 18.4241 19.8987 18.4227 19.8973C18.4128 19.893 18.4085 19.8817 18.4128 19.8718L18.4805 19.7166L18.5554 19.8027C18.5624 19.8111 18.561 19.8224 18.5539 19.8295C18.5455 19.8365 18.5342 19.8351 18.5271 19.8281L18.4918 19.7871L18.4481 19.8874C18.4438 19.8944 18.4368 19.8987 18.4297 19.8987Z" fill="#455B64"/>
<path d="M16.4434 21.9739L12.667 19.7886V16.9524L16.4434 19.1363V21.9739Z" fill="#FFC829"/>
<path opacity="0.6" d="M16.4434 21.9739L12.667 19.7886V16.9524L16.4434 19.1363V21.9739Z" fill="white"/>
<path d="M14.3691 18.367L14.6473 18.5266V18.096L14.3691 17.9351V18.367Z" fill="#37474F"/>
<path d="M14.6473 18.0959L18.9361 15.6141L18.6594 15.4531L14.3691 17.9349L14.6473 18.0959Z" fill="#455B64"/>
<path d="M13.2061 18.7368L14.1887 19.3043C14.2127 19.3184 14.2325 19.3523 14.2325 19.3805V20.0624C14.2325 20.1189 14.1929 20.1415 14.1435 20.1132L13.161 19.5457C13.137 19.5316 13.1172 19.4977 13.1172 19.4695V18.7862C13.1186 18.7326 13.1581 18.7086 13.2061 18.7368Z" fill="#FAFBFB"/>
<path d="M13.1836 18.8428L13.2175 18.8625V19.4653L13.1836 19.4456V18.8428Z" fill="#455B64"/>
<path d="M13.3184 18.9219L13.3762 18.9558V19.5586L13.3184 19.5247V18.9219Z" fill="#455B64"/>
<path d="M13.4561 19.001L13.4885 19.0193V19.6221L13.4561 19.6024V19.001Z" fill="#455B64"/>
<path d="M13.5557 19.0588L13.6234 19.0984V19.7012L13.5557 19.6616V19.0588Z" fill="#455B64"/>
<path d="M13.7266 19.1575L13.7604 19.1758V19.7786L13.7266 19.7603V19.1575Z" fill="#455B64"/>
<path d="M13.8252 19.2126L13.8958 19.255V19.8578L13.8252 19.8155V19.2126Z" fill="#455B64"/>
<path d="M13.999 19.3142L14.0329 19.334V19.9354L13.999 19.917V19.3142Z" fill="#455B64"/>
<path d="M14.0752 19.3582L14.0921 19.368V19.9708L14.0752 19.961V19.3582Z" fill="#455B64"/>
<path d="M13.9375 19.2817L13.9544 19.2916V19.893L13.9375 19.8831V19.2817Z" fill="#455B64"/>
<path d="M13.6631 19.1208L13.68 19.1307V19.7335L13.6631 19.7237V19.1208Z" fill="#455B64"/>
<path d="M13.5127 19.0347L13.5296 19.0445V19.6474L13.5127 19.6375V19.0347Z" fill="#455B64"/>
<path d="M13.4053 18.9756L13.4208 18.9855V19.5869L13.4053 19.5784V18.9756Z" fill="#455B64"/>
<path d="M13.2578 18.8865L13.2748 18.8964V19.4992L13.2578 19.4893V18.8865Z" fill="#455B64"/>
<path d="M14.1338 19.3933L14.1677 19.4117V20.0145L14.1338 19.9947V19.3933Z" fill="#455B64"/>
<defs>
<linearGradient id="paint0_linear_2793_52244" x1="18.5006" y1="42.0005" x2="18.5006" y2="19.8862" gradientUnits="userSpaceOnUse">
<stop stop-color="#8CBFD3"/>
<stop offset="0.31" stop-color="#C6E2EC"/>
<stop offset="0.47" stop-color="#DFF2F7"/>
</linearGradient>
<linearGradient id="paint1_linear_2793_52244" x1="0.41194" y1="28.774" x2="36.5899" y2="28.774" gradientUnits="userSpaceOnUse">
<stop offset="0.26" stop-color="#B4DBE5"/>
<stop offset="0.29" stop-color="#AFD7E3"/>
<stop offset="0.49" stop-color="#95C5D7"/>
<stop offset="0.6" stop-color="#8CBFD3"/>
</linearGradient>
</defs>
</svg>
